OpenBaskerville.ufo
<glyph name="exclam" format="1">
  <advance width="234"/>
  <unicode hex="0021"/>
  <outline>
    <contour>
      <point x="112" y="121" type="line"/>
      <point x="122" y="121" type="line"/>
      <point x="168" y="611" type="line" smooth="yes"/>
      <point x="171" y="644"/>
      <point x="160" y="676"/>
      <point x="117" y="676" type="curve" smooth="yes"/>
      <point x="74" y="676"/>
      <point x="63" y="643"/>
      <point x="66" y="611" type="curve" smooth="yes"/>
    </contour>
    <contour>
      <point x="65" y="38" type="curve" smooth="yes"/>
      <point x="65" y="9"/>
      <point x="88" y="-14"/>
      <point x="117" y="-14" type="curve" smooth="yes"/>
      <point x="146" y="-14"/>
      <point x="169" y="9"/>
      <point x="169" y="38" type="curve" smooth="yes"/>
      <point x="169" y="67"/>
      <point x="146" y="91"/>
      <point x="117" y="91" type="curve" smooth="yes"/>
      <point x="88" y="91"/>
      <point x="65" y="67"/>
    </contour>
  </outline>
</glyph>
<glyph name="quotedbl" format="1">
  <advance width="288"/>
  <unicode hex="0022"/>
  <outline>
    <contour>
      <point x="207.0" y="617.0" type="curve" smooth="yes"/>
      <point x="192.0" y="617.0"/>
      <point x="172.0" y="600.0"/>
      <point x="172.0" y="586.0" type="curve" smooth="yes"/>
      <point x="172.0" y="537.0"/>
      <point x="191.0" y="488.0"/>
      <point x="194.0" y="434.0" type="curve"/>
      <point x="195.0" y="426.0"/>
      <point x="200.0" y="420.0"/>
      <point x="206.0" y="420.0" type="curve" smooth="yes"/>
      <point x="214.0" y="420.0"/>
      <point x="216.0" y="424.0"/>
      <point x="217.0" y="434.0" type="curve" smooth="yes"/>
      <point x="222.0" y="488.0"/>
      <point x="243.0" y="537.0"/>
      <point x="243.0" y="586.0" type="curve" smooth="yes"/>
      <point x="243.0" y="599.0"/>
      <point x="226.0" y="617.0"/>
    </contour>
    <contour>
      <point x="65.0" y="617.0" type="curve" smooth="yes"/>
      <point x="50.0" y="617.0"/>
      <point x="29.0" y="600.0"/>
      <point x="29.0" y="586.0" type="curve" smooth="yes"/>
      <point x="29.0" y="537.0"/>
      <point x="49.0" y="488.0"/>
      <point x="52.0" y="434.0" type="curve"/>
      <point x="53.0" y="426.0"/>
      <point x="57.0" y="420.0"/>
      <point x="64.0" y="420.0" type="curve" smooth="yes"/>
      <point x="72.0" y="420.0"/>
      <point x="74.0" y="424.0"/>
      <point x="75.0" y="434.0" type="curve" smooth="yes"/>
      <point x="80.0" y="488.0"/>
      <point x="101.0" y="537.0"/>
      <point x="101.0" y="586.0" type="curve" smooth="yes"/>
      <point x="101.0" y="599.0"/>
      <point x="84.0" y="617.0"/>
    </contour>
  </outline>
</glyph>
<glyph name="numbersign" format="1">
  <advance width="562"/>
  <unicode hex="0023"/>
  <outline>
    <contour>
      <point x="412.0" y="600.0" type="line"/>
      <point x="319.0" y="11.0" type="line"/>
      <point x="367.0" y="14.0" type="line"/>
      <point x="463.0" y="603.0" type="line"/>
    </contour>
    <contour>
      <point x="209.0" y="606.0" type="line"/>
      <point x="115.0" y="12.0" type="line"/>
      <point x="162.0" y="14.0" type="line"/>
      <point x="257.0" y="608.0" type="line"/>
    </contour>
    <contour>
      <point x="40.0" y="227.0" type="line"/>
      <point x="31.0" y="188.0" type="line"/>
      <point x="512.0" y="195.0" type="line"/>
      <point x="525.0" y="235.0" type="line"/>
    </contour>
    <contour>
      <point x="71.0" y="436.0" type="line"/>
      <point x="59.0" y="396.0" type="line"/>
      <point x="527.0" y="400.0" type="line"/>
      <point x="541.0" y="442.0" type="line"/>
    </contour>
  </outline>
</glyph>
<glyph name="dollar" format="1">
  <advance width="510"/>
  <unicode hex="0024"/>
  <outline>
    <contour>
      <point x="246" y="373" type="line"/>
      <point x="274" y="373" type="line"/>
      <point x="274" y="757" type="line"/>
      <point x="246" y="757" type="line"/>
    </contour>
    <contour>
      <point x="244" y="-115" type="line"/>
      <point x="272" y="-115" type="line"/>
      <point x="272" y="340" type="line"/>
      <point x="244" y="340" type="line"/>
    </contour>
    <contour>
      <point x="265" y="-14" type="curve" smooth="yes"/>
      <point x="410" y="-14"/>
      <point x="480" y="61"/>
      <point x="481" y="170" type="curve" smooth="yes"/>
      <point x="482" y="382"/>
      <point x="133" y="376"/>
      <point x="133" y="552" type="curve" smooth="yes"/>
      <point x="133" y="654"/>
      <point x="218" y="676"/>
      <point x="253" y="676" type="curve" smooth="yes"/>
      <point x="335" y="676"/>
      <point x="368" y="642"/>
      <point x="368" y="606" type="curve" smooth="yes"/>
      <point x="368" y="559"/>
      <point x="381" y="535"/>
      <point x="408" y="535" type="curve" smooth="yes"/>
      <point x="432" y="535"/>
      <point x="443" y="546"/>
      <point x="443" y="578" type="curve" smooth="yes"/>
      <point x="443" y="640"/>
      <point x="357" y="691"/>
      <point x="250" y="691" type="curve" smooth="yes"/>
      <point x="154" y="691"/>
      <point x="64" y="628"/>
      <point x="64" y="520" type="curve" smooth="yes"/>
      <point x="64" y="304"/>
      <point x="386" y="336"/>
      <point x="386" y="143" type="curve" smooth="yes"/>
      <point x="386" y="52"/>
      <point x="329" y="2"/>
      <point x="262" y="2" type="curve" smooth="yes"/>
      <point x="178" y="2"/>
      <point x="122" y="57"/>
      <point x="122" y="93" type="curve" smooth="yes"/>
      <point x="122" y="129"/>
      <point x="118" y="159"/>
      <point x="87" y="159" type="curve" smooth="yes"/>
      <point x="65" y="159"/>
      <point x="47" y="145"/>
      <point x="47" y="116" type="curve" smooth="yes"/>
      <point x="47" y="43"/>
      <point x="158" y="-14"/>
    </contour>
  </outline>
</glyph>
<glyph name="percent" format="1">
  <advance width="489"/>
  <unicode hex="0025"/>
  <outline>
    <contour>
      <point x="157" y="635" type="curve" smooth="yes"/>
      <point x="85" y="635"/>
      <point x="29" y="574"/>
      <point x="29" y="513" type="curve" smooth="yes"/>
      <point x="29" y="455"/>
      <point x="76" y="389"/>
      <point x="135" y="389" type="curve" smooth="yes"/>
      <point x="201" y="389"/>
      <point x="262" y="447"/>
      <point x="262" y="513" type="curve" smooth="yes"/>
      <point x="262" y="578"/>
      <point x="217" y="635"/>
    </contour>
    <contour>
      <point x="155" y="624" type="curve" smooth="yes"/>
      <point x="178" y="624"/>
      <point x="199" y="574"/>
      <point x="199" y="513" type="curve" smooth="yes"/>
      <point x="199" y="457"/>
      <point x="182" y="402"/>
      <point x="139" y="402" type="curve" smooth="yes"/>
      <point x="111" y="402"/>
      <point x="91" y="455"/>
      <point x="91" y="513" type="curve" smooth="yes"/>
      <point x="91" y="561"/>
      <point x="119" y="624"/>
    </contour>
    <contour>
      <point x="188" y="611" type="line"/>
      <point x="188" y="618"/>
      <point x="173" y="624"/>
      <point x="193" y="619" type="curve" smooth="yes"/>
      <point x="279" y="599"/>
      <point x="364" y="611"/>
      <point x="364" y="611" type="curve" smooth="yes"/>
      <point x="364" y="611"/>
      <point x="71" y="5"/>
      <point x="71" y="5" type="curve"/>
      <point x="71" y="5"/>
      <point x="141" y="8"/>
      <point x="141" y="8" type="curve"/>
      <point x="145" y="20" type="line"/>
      <point x="130" y="22"/>
      <point x="146" y="56"/>
      <point x="152" y="70" type="curve" smooth="yes"/>
      <point x="227" y="229"/>
      <point x="416" y="631"/>
      <point x="416" y="631" type="curve"/>
      <point x="365" y="631" type="line"/>
      <point x="320" y="615"/>
      <point x="244" y="622"/>
      <point x="163" y="630" type="curve" smooth="yes"/>
      <point x="151" y="631"/>
      <point x="173" y="626"/>
      <point x="179" y="620" type="curve" smooth="yes"/>
    </contour>
    <contour>
      <point x="350" y="236" type="curve" smooth="yes"/>
      <point x="278" y="236"/>
      <point x="222" y="175"/>
      <point x="222" y="114" type="curve" smooth="yes"/>
      <point x="222" y="56"/>
      <point x="269" y="-10"/>
      <point x="328" y="-10" type="curve" smooth="yes"/>
      <point x="394" y="-10"/>
      <point x="455" y="48"/>
      <point x="455" y="114" type="curve" smooth="yes"/>
      <point x="455" y="179"/>
      <point x="410" y="236"/>
    </contour>
    <contour>
      <point x="348" y="225" type="curve" smooth="yes"/>
      <point x="371" y="225"/>
      <point x="392" y="175"/>
      <point x="392" y="114" type="curve" smooth="yes"/>
      <point x="392" y="58"/>
      <point x="375" y="3"/>
      <point x="332" y="3" type="curve" smooth="yes"/>
      <point x="304" y="3"/>
      <point x="284" y="56"/>
      <point x="284" y="114" type="curve" smooth="yes"/>
      <point x="284" y="162"/>
      <point x="312" y="225"/>
    </contour>
  </outline>
</glyph>
<glyph name="ampersand" format="1">
  <advance width="627"/>
  <unicode hex="0026"/>
  <outline>
    <contour>
      <point x="109" y="202" type="curve" smooth="yes"/>
      <point x="109" y="272"/>
      <point x="148" y="338"/>
      <point x="203" y="371" type="curve"/>
      <point x="398" y="102" type="line"/>
      <point x="356" y="43"/>
      <point x="300" y="14"/>
      <point x="256" y="14" type="curve" smooth="yes"/>
      <point x="166" y="14"/>
      <point x="109" y="102"/>
    </contour>
    <contour>
      <point x="170" y="595" type="curve" smooth="yes"/>
      <point x="170" y="651"/>
      <point x="213" y="677"/>
      <point x="252" y="677" type="curve" smooth="yes"/>
      <point x="313" y="677"/>
      <point x="344" y="631"/>
      <point x="344" y="582" type="curve" smooth="yes"/>
      <point x="344" y="507"/>
      <point x="288" y="433"/>
      <point x="263" y="419" type="curve"/>
      <point x="225" y="470"/>
      <point x="170" y="533"/>
    </contour>
    <contour>
      <point x="524" y="318" type="line"/>
      <point x="545" y="360"/>
      <point x="570" y="393"/>
      <point x="625" y="393" type="curve" smooth="yes"/>
      <point x="633" y="393" type="line"/>
      <point x="633" y="406" type="line"/>
      <point x="432" y="406" type="line"/>
      <point x="432" y="393" type="line"/>
      <point x="440" y="393" type="line" smooth="yes"/>
      <point x="481" y="393"/>
      <point x="503" y="378"/>
      <point x="503" y="338" type="curve" smooth="yes"/>
      <point x="503" y="321"/>
      <point x="494" y="289"/>
      <point x="483" y="266" type="curve" smooth="yes"/>
      <point x="440" y="181" type="line"/>
      <point x="272" y="409" type="line"/>
      <point x="312" y="434"/>
      <point x="404" y="471"/>
      <point x="404" y="569" type="curve" smooth="yes"/>
      <point x="404" y="664"/>
      <point x="316" y="691"/>
      <point x="252" y="691" type="curve" smooth="yes"/>
      <point x="196" y="691"/>
      <point x="116" y="651"/>
      <point x="116" y="553" type="curve" smooth="yes"/>
      <point x="116" y="499"/>
      <point x="153" y="437"/>
      <point x="196" y="381" type="curve"/>
      <point x="125" y="352"/>
      <point x="30" y="276"/>
      <point x="30" y="167" type="curve" smooth="yes"/>
      <point x="30" y="49"/>
      <point x="103" y="-14"/>
      <point x="214" y="-14" type="curve" smooth="yes"/>
      <point x="305" y="-14"/>
      <point x="351" y="22"/>
      <point x="406" y="92" type="curve"/>
      <point x="440" y="53"/>
      <point x="501" y="-14"/>
      <point x="597" y="-14" type="curve"/>
      <point x="679" y="-14"/>
      <point x="702" y="27"/>
      <point x="702" y="68" type="curve"/>
      <point x="695" y="68" type="line"/>
      <point x="695" y="44"/>
      <point x="662" y="13"/>
      <point x="632" y="13" type="curve"/>
      <point x="563" y="13"/>
      <point x="469" y="129"/>
      <point x="450" y="169" type="curve"/>
    </contour>
  </outline>
</glyph>
<glyph name="quotesingle" format="1">
  <advance width="165"/>
  <unicode hex="0027"/>
  <outline>
    <contour>
      <point x="78" y="685" type="curve" smooth="yes"/>
      <point x="62" y="685"/>
      <point x="39" y="666"/>
      <point x="39" y="652" type="curve" smooth="yes"/>
      <point x="39" y="597"/>
      <point x="60" y="543"/>
      <point x="64" y="482" type="curve" smooth="yes"/>
      <point x="64" y="473"/>
      <point x="70" y="467"/>
      <point x="77" y="467" type="curve" smooth="yes"/>
      <point x="86" y="467"/>
      <point x="88" y="471"/>
      <point x="89" y="482" type="curve" smooth="yes"/>
      <point x="94" y="543"/>
      <point x="118" y="597"/>
      <point x="118" y="652" type="curve" smooth="yes"/>
      <point x="118" y="666"/>
      <point x="99" y="685"/>
    </contour>
  </outline>
</glyph>
<glyph name="parenleft" format="1">
  <advance width="325"/>
  <unicode hex="0028"/>
  <outline>
    <contour>
      <point x="300" y="700" type="curve"/>
      <point x="300" y="684" type="line"/>
      <point x="229" y="650"/>
      <point x="106" y="537"/>
      <point x="106" y="272" type="curve" smooth="yes"/>
      <point x="106" y="46"/>
      <point x="217" y="-90"/>
      <point x="300" y="-140" type="curve"/>
      <point x="300" y="-156" type="line"/>
      <point x="210" y="-105"/>
      <point x="25" y="46"/>
      <point x="25" y="272" type="curve" smooth="yes"/>
      <point x="25" y="537"/>
      <point x="218" y="664"/>
    </contour>
  </outline>
</glyph>
<glyph name="parenright" format="1">
  <advance width="325"/>
  <unicode hex="0029"/>
  <outline>
    <contour>
      <point x="25" y="700" type="line"/>
      <point x="107" y="664"/>
      <point x="300" y="537"/>
      <point x="300" y="272" type="curve" smooth="yes"/>
      <point x="300" y="46"/>
      <point x="115" y="-105"/>
      <point x="25" y="-156" type="curve"/>
      <point x="25" y="-140" type="line"/>
      <point x="108" y="-90"/>
      <point x="219" y="46"/>
      <point x="219" y="272" type="curve" smooth="yes"/>
      <point x="219" y="537"/>
      <point x="96" y="650"/>
      <point x="25" y="684" type="curve"/>
    </contour>
  </outline>
</glyph>
<glyph name="asterisk" format="1">
  <advance width="265"/>
  <unicode hex="002A"/>
  <outline>
    <contour>
      <point x="137" y="618" type="curve"/>
      <point x="108" y="590"/>
      <point x="39" y="571"/>
      <point x="39" y="536" type="curve" smooth="yes"/>
      <point x="39" y="517"/>
      <point x="55" y="503"/>
      <point x="68" y="503" type="curve" smooth="yes"/>
      <point x="122" y="503"/>
      <point x="117" y="582"/>
      <point x="148" y="608" type="curve"/>
      <point x="176" y="582"/>
      <point x="169" y="503"/>
      <point x="221" y="503" type="curve" smooth="yes"/>
      <point x="239" y="503"/>
      <point x="246" y="512"/>
      <point x="246" y="534" type="curve" smooth="yes"/>
      <point x="246" y="580"/>
      <point x="192" y="588"/>
      <point x="157" y="618" type="curve"/>
      <point x="202" y="626"/>
      <point x="284" y="602"/>
      <point x="284" y="651" type="curve" smooth="yes"/>
      <point x="284" y="668"/>
      <point x="278" y="681"/>
      <point x="256" y="681" type="curve" smooth="yes"/>
      <point x="216" y="681"/>
      <point x="201" y="643"/>
      <point x="157" y="634" type="curve"/>
      <point x="157" y="669"/>
      <point x="176" y="691"/>
      <point x="176" y="736" type="curve" smooth="yes"/>
      <point x="176" y="751"/>
      <point x="165" y="763"/>
      <point x="145" y="763" type="curve" smooth="yes"/>
      <point x="125" y="763"/>
      <point x="115" y="753"/>
      <point x="115" y="736" type="curve" smooth="yes"/>
      <point x="115" y="692"/>
      <point x="137" y="669"/>
      <point x="137" y="634" type="curve"/>
      <point x="96" y="643"/>
      <point x="80" y="679"/>
      <point x="37" y="679" type="curve" smooth="yes"/>
      <point x="16" y="679"/>
      <point x="6" y="671"/>
      <point x="6" y="651" type="curve" smooth="yes"/>
      <point x="6" y="603"/>
      <point x="91" y="626"/>
    </contour>
  </outline>
</glyph>
<glyph name="plus" format="1">
  <advance width="504"/>
  <unicode hex="002b"/>
  <outline>
    <contour>
      <point x="232" y="408" type="line" smooth="no"/>
      <point x="232" y="234" type="line" smooth="no"/>
      <point x="64" y="233" type="line" smooth="no"/>
      <point x="65" y="200" type="line" smooth="no"/>
      <point x="232" y="200" type="line" smooth="no"/>
      <point x="232" y="26" type="line" smooth="no"/>
      <point x="270" y="26" type="line" smooth="no"/>
      <point x="270" y="200" type="line" smooth="no"/>
      <point x="436" y="200" type="line" smooth="no"/>
      <point x="436" y="234" type="line" smooth="no"/>
      <point x="270" y="234" type="line" smooth="no"/>
      <point x="270" y="408" type="line" smooth="no"/>
    </contour>
  </outline>
</glyph>
<glyph name="comma" format="1">
  <advance width="244"/>
  <unicode hex="002C"/>
  <outline>
    <contour>
      <point x="105" y="-14" type="curve"/>
      <point x="121" y="-14"/>
      <point x="134" y="-9"/>
      <point x="140" y="0" type="curve"/>
      <point x="140" y="-68"/>
      <point x="85" y="-120"/>
      <point x="46" y="-142" type="curve"/>
      <point x="52" y="-155" type="line"/>
      <point x="117" y="-133"/>
      <point x="178" y="-58"/>
      <point x="178" y="10" type="curve" smooth="yes"/>
      <point x="178" y="65"/>
      <point x="145" y="91"/>
      <point x="108" y="91" type="curve"/>
      <point x="74" y="91"/>
      <point x="51" y="65"/>
      <point x="51" y="35" type="curve" smooth="yes"/>
      <point x="51" y="5"/>
      <point x="75" y="-14"/>
    </contour>
  </outline>
</glyph>
<glyph name="hyphen" format="1">
  <advance width="337"/>
  <unicode hex="002D"/>
  <outline>
    <contour>
      <point x="50" y="236" type="line"/>
      <point x="50" y="194" type="line"/>
      <point x="271" y="194" type="line"/>
      <point x="271" y="236" type="line"/>
    </contour>
  </outline>
</glyph>
<glyph name="period" format="1">
  <advance width="224"/>
  <unicode hex="002E"/>
  <outline>
    <contour>
      <point x="60" y="38" type="curve" smooth="yes"/>
      <point x="60" y="9"/>
      <point x="83" y="-14"/>
      <point x="112" y="-14" type="curve" smooth="yes"/>
      <point x="141" y="-14"/>
      <point x="164" y="9"/>
      <point x="164" y="38" type="curve" smooth="yes"/>
      <point x="164" y="67"/>
      <point x="141" y="91"/>
      <point x="112" y="91" type="curve" smooth="yes"/>
      <point x="83" y="91"/>
      <point x="60" y="67"/>
    </contour>
  </outline>
</glyph>
<glyph name="slash" format="1">
  <advance width="297"/>
  <unicode hex="002F"/>
  <outline>
    <contour>
      <point x="16" y="-40" type="line"/>
      <point x="65" y="-53" type="line"/>
      <point x="284" y="670" type="line"/>
      <point x="235" y="684" type="line"/>
    </contour>
  </outline>
</glyph>
<glyph name="zero" format="1">
  <advance width="504"/>
  <unicode hex="0030"/>
  <outline>
    <contour>
      <point x="252" y="689" type="curve"/>
      <point x="128" y="689"/>
      <point x="32" y="478"/>
      <point x="32" y="329" type="curve"/>
      <point x="32" y="104"/>
      <point x="156" y="-14"/>
      <point x="252" y="-14" type="curve"/>
      <point x="348" y="-14"/>
      <point x="472" y="104"/>
      <point x="472" y="329" type="curve" smooth="yes"/>
      <point x="472" y="478"/>
      <point x="376" y="689"/>
    </contour>
    <contour>
      <point x="252" y="0" type="curve"/>
      <point x="165" y="0"/>
      <point x="108" y="142"/>
      <point x="108" y="329" type="curve"/>
      <point x="108" y="516"/>
      <point x="165" y="674"/>
      <point x="252" y="674" type="curve"/>
      <point x="339" y="674"/>
      <point x="396" y="516"/>
      <point x="396" y="329" type="curve" smooth="yes"/>
      <point x="396" y="142"/>
      <point x="339" y="0"/>
    </contour>
  </outline>
</glyph>
<glyph name="one" format="1">
  <advance width="317"/>
  <unicode hex="0031"/>
  <outline>
    <contour>
      <point x="197" y="676" type="line"/>
      <point x="182" y="676" type="line"/>
      <point x="137" y="621"/>
      <point x="51" y="621"/>
      <point x="21" y="617" type="curve"/>
      <point x="21" y="609" type="line"/>
      <point x="21" y="609"/>
      <point x="43" y="606"/>
      <point x="72" y="606" type="curve" smooth="yes"/>
      <point x="101" y="606"/>
      <point x="124" y="610"/>
      <point x="124" y="610" type="curve"/>
      <point x="124" y="133" type="line"/>
      <point x="124" y="45"/>
      <point x="94" y="13"/>
      <point x="14" y="13" type="curve"/>
      <point x="14" y="0" type="line"/>
      <point x="312" y="0" type="line"/>
      <point x="312" y="13" type="line"/>
      <point x="238" y="13"/>
      <point x="196" y="40"/>
      <point x="196" y="133" type="curve" smooth="yes"/>
    </contour>
  </outline>
</glyph>
<glyph name="two" format="1">
  <advance width="501"/>
  <unicode hex="0032"/>
  <outline>
    <contour>
      <point x="30" y="0" type="line"/>
      <point x="420" y="0" type="line"/>
      <point x="461" y="174" type="line"/>
      <point x="454" y="174" type="line"/>
      <point x="454" y="174"/>
      <point x="428" y="68"/>
      <point x="338" y="68" type="curve"/>
      <point x="112" y="68" type="line"/>
      <point x="128" y="81"/>
      <point x="265" y="184"/>
      <point x="344" y="263" type="curve" smooth="yes"/>
      <point x="422" y="341"/>
      <point x="460" y="443"/>
      <point x="460" y="500" type="curve"/>
      <point x="460" y="555"/>
      <point x="429" y="689"/>
      <point x="254" y="689" type="curve" smooth="yes"/>
      <point x="106" y="689"/>
      <point x="58" y="587"/>
      <point x="58" y="514" type="curve"/>
      <point x="58" y="432"/>
      <point x="121" y="383"/>
      <point x="172" y="383" type="curve"/>
      <point x="202" y="383"/>
      <point x="227" y="386"/>
      <point x="244" y="410" type="curve"/>
      <point x="188" y="410"/>
      <point x="106" y="435"/>
      <point x="106" y="540" type="curve" smooth="yes"/>
      <point x="106" y="645"/>
      <point x="196" y="674"/>
      <point x="239" y="674" type="curve" smooth="yes"/>
      <point x="282" y="674"/>
      <point x="379" y="655"/>
      <point x="379" y="524" type="curve" smooth="yes"/>
      <point x="379" y="419"/>
      <point x="301" y="300"/>
      <point x="207" y="188" type="curve" smooth="yes"/>
      <point x="144" y="113"/>
      <point x="30" y="10"/>
      <point x="30" y="10" type="curve"/>
    </contour>
  </outline>
</glyph>
<glyph name="three" format="1">
  <advance width="493"/>
  <unicode hex="0033"/>
  <outline>
    <contour>
      <point x="201" y="503" type="curve"/>
      <point x="191" y="492"/>
      <point x="174" y="492"/>
      <point x="160" y="492" type="curve" smooth="yes"/>
      <point x="106" y="492"/>
      <point x="81" y="537"/>
      <point x="81" y="570" type="curve" smooth="yes"/>
      <point x="81" y="625"/>
      <point x="138" y="689"/>
      <point x="245" y="689" type="curve" smooth="yes"/>
      <point x="395" y="689"/>
      <point x="439" y="575"/>
      <point x="439" y="520" type="curve" smooth="yes"/>
      <point x="439" y="440"/>
      <point x="387" y="382"/>
      <point x="302" y="362" type="curve"/>
      <point x="406" y="328"/>
      <point x="453" y="269"/>
      <point x="453" y="189" type="curve"/>
      <point x="453" y="78"/>
      <point x="375" y="-14"/>
      <point x="218" y="-14" type="curve" smooth="yes"/>
      <point x="178" y="-14"/>
      <point x="25" y="-2"/>
      <point x="25" y="126" type="curve" smooth="yes"/>
      <point x="25" y="181"/>
      <point x="64" y="225"/>
      <point x="119" y="225" type="curve" smooth="yes"/>
      <point x="125" y="225"/>
      <point x="132" y="224"/>
      <point x="139" y="223" type="curve"/>
      <point x="108" y="202"/>
      <point x="88" y="170"/>
      <point x="88" y="126" type="curve" smooth="yes"/>
      <point x="88" y="55"/>
      <point x="128" y="2"/>
      <point x="218" y="2" type="curve" smooth="yes"/>
      <point x="318" y="2"/>
      <point x="376" y="81"/>
      <point x="376" y="182" type="curve" smooth="yes"/>
      <point x="376" y="283"/>
      <point x="318" y="345"/>
      <point x="270" y="345" type="curve" smooth="yes"/>
      <point x="232" y="345"/>
      <point x="221" y="310"/>
      <point x="189" y="310" type="curve" smooth="yes"/>
      <point x="174" y="310"/>
      <point x="151" y="319"/>
      <point x="151" y="344" type="curve" smooth="yes"/>
      <point x="151" y="366"/>
      <point x="167" y="379"/>
      <point x="193" y="379" type="curve" smooth="yes"/>
      <point x="222" y="379"/>
      <point x="224" y="365"/>
      <point x="253" y="365" type="curve" smooth="yes"/>
      <point x="266" y="365"/>
      <point x="362" y="378"/>
      <point x="362" y="520" type="curve" smooth="yes"/>
      <point x="362" y="610"/>
      <point x="331" y="674"/>
      <point x="235" y="674" type="curve" smooth="yes"/>
      <point x="155" y="674"/>
      <point x="137" y="616"/>
      <point x="137" y="588" type="curve" smooth="yes"/>
      <point x="137" y="544"/>
      <point x="161" y="514"/>
    </contour>
  </outline>
</glyph>
<glyph name="four" format="1">
  <advance width="467"/>
  <unicode hex="0034"/>
  <outline>
    <contour>
      <point x="176" y="13" type="curve"/>
      <point x="176" y="0" type="line"/>
      <point x="423" y="0" type="line"/>
      <point x="423" y="13" type="line"/>
      <point x="342" y="13"/>
      <point x="336" y="40"/>
      <point x="336" y="133" type="curve" smooth="yes"/>
      <point x="336" y="162" type="line"/>
      <point x="352" y="162" type="line" smooth="yes"/>
      <point x="407" y="162"/>
      <point x="424" y="148"/>
      <point x="424" y="89" type="curve" smooth="yes"/>
      <point x="424" y="77" type="line"/>
      <point x="437" y="77" type="line"/>
      <point x="437" y="274" type="line"/>
      <point x="424" y="274" type="line"/>
      <point x="424" y="262" type="line" smooth="yes"/>
      <point x="424" y="202"/>
      <point x="399" y="182"/>
      <point x="344" y="182" type="curve" smooth="yes"/>
      <point x="336" y="182" type="line"/>
      <point x="336" y="691" type="line"/>
      <point x="319" y="691" type="line"/>
      <point x="0" y="173" type="line"/>
      <point x="0" y="162" type="line"/>
      <point x="270" y="162" type="line"/>
      <point x="270" y="133" type="line" smooth="yes"/>
      <point x="270" y="45"/>
      <point x="257" y="13"/>
    </contour>
    <contour>
      <point x="23" y="182" type="line"/>
      <point x="270" y="584" type="line"/>
      <point x="270" y="182" type="line"/>
    </contour>
  </outline>
</glyph>
<glyph name="five" format="1">
  <advance width="438"/>
  <unicode hex="0035"/>
  <outline>
    <contour>
      <point x="101" y="308" type="line"/>
      <point x="124" y="378"/>
      <point x="158" y="405"/>
      <point x="206" y="405" type="curve" smooth="yes"/>
      <point x="290" y="405"/>
      <point x="313" y="306"/>
      <point x="313" y="236" type="curve" smooth="yes"/>
      <point x="313" y="135"/>
      <point x="253" y="2"/>
      <point x="149" y="2" type="curve" smooth="yes"/>
      <point x="83" y="2"/>
      <point x="55" y="39"/>
      <point x="55" y="76" type="curve"/>
      <point x="55" y="143"/>
      <point x="53" y="163"/>
      <point x="14" y="163" type="curve" smooth="yes"/>
      <point x="-17" y="163"/>
      <point x="-27" y="132"/>
      <point x="-27" y="110" type="curve" smooth="yes"/>
      <point x="-27" y="7"/>
      <point x="109" y="-14"/>
      <point x="153" y="-14" type="curve" smooth="yes"/>
      <point x="265" y="-14"/>
      <point x="398" y="88"/>
      <point x="398" y="238" type="curve" smooth="yes"/>
      <point x="398" y="351"/>
      <point x="306" y="421"/>
      <point x="216" y="421" type="curve" smooth="yes"/>
      <point x="161" y="421"/>
      <point x="128" y="395"/>
      <point x="118" y="383" type="curve"/>
      <point x="171" y="618" type="line"/>
      <point x="203" y="607"/>
      <point x="253" y="605"/>
      <point x="281" y="605" type="curve" smooth="yes"/>
      <point x="352" y="605"/>
      <point x="386" y="638"/>
      <point x="386" y="683" type="curve" smooth="yes"/>
      <point x="386" y="688"/>
      <point x="386" y="692"/>
      <point x="385" y="694" type="curve"/>
      <point x="373" y="674"/>
      <point x="322" y="673"/>
      <point x="307" y="673" type="curve" smooth="yes"/>
      <point x="288" y="673"/>
      <point x="199" y="674"/>
      <point x="173" y="688" type="curve"/>
      <point x="84" y="315" type="line"/>
    </contour>
  </outline>
</glyph>
<glyph name="six" format="1">
  <advance width="486"/>
  <unicode hex="0036"/>
  <outline>
    <contour>
      <point x="32" y="287" type="curve" smooth="yes"/>
      <point x="32" y="101"/>
      <point x="111" y="-14"/>
      <point x="242" y="-14" type="curve" smooth="yes"/>
      <point x="358" y="-14"/>
      <point x="456" y="97"/>
      <point x="456" y="220" type="curve" smooth="yes"/>
      <point x="456" y="343"/>
      <point x="357" y="434"/>
      <point x="241" y="434" type="curve" smooth="yes"/>
      <point x="190" y="434"/>
      <point x="146" y="411"/>
      <point x="118" y="373" type="curve"/>
      <point x="118" y="454"/>
      <point x="177" y="671"/>
      <point x="288" y="671" type="curve" smooth="yes"/>
      <point x="388" y="671"/>
      <point x="339" y="584"/>
      <point x="401" y="584" type="curve"/>
      <point x="414" y="584"/>
      <point x="438" y="587"/>
      <point x="438" y="619" type="curve" smooth="yes"/>
      <point x="438" y="663"/>
      <point x="392" y="691"/>
      <point x="320" y="691" type="curve" smooth="yes"/>
      <point x="171" y="691"/>
      <point x="32" y="519"/>
    </contour>
    <contour>
      <point x="113" y="220" type="curve" smooth="yes"/>
      <point x="113" y="325"/>
      <point x="144" y="418"/>
      <point x="245" y="418" type="curve" smooth="yes"/>
      <point x="334" y="418"/>
      <point x="375" y="332"/>
      <point x="375" y="220" type="curve" smooth="yes"/>
      <point x="375" y="94"/>
      <point x="336" y="2"/>
      <point x="241" y="2" type="curve" smooth="yes"/>
      <point x="158" y="2"/>
      <point x="113" y="102"/>
    </contour>
  </outline>
</glyph>
<glyph name="seven" format="1">
  <advance width="421"/>
  <unicode hex="0037"/>
  <outline>
    <contour>
      <point x="116" y="659" type="line"/>
      <point x="70" y="659"/>
      <point x="69" y="694"/>
      <point x="69" y="694" type="curve"/>
      <point x="62" y="694" type="line"/>
      <point x="20" y="492" type="line"/>
      <point x="27" y="492" type="line"/>
      <point x="29" y="519"/>
      <point x="69" y="589"/>
      <point x="146" y="589" type="curve"/>
      <point x="372" y="589" type="line"/>
      <point x="101" y="91" type="line" smooth="yes"/>
      <point x="88" y="66"/>
      <point x="71" y="45"/>
      <point x="71" y="17" type="curve" smooth="yes"/>
      <point x="71" y="-2"/>
      <point x="88" y="-14"/>
      <point x="109" y="-14" type="curve" smooth="yes"/>
      <point x="148" y="-14"/>
      <point x="159" y="4"/>
      <point x="179" y="55" type="curve" smooth="yes"/>
      <point x="416" y="649" type="line"/>
      <point x="416" y="659" type="line"/>
    </contour>
  </outline>
</glyph>
<glyph name="eight" format="1">
  <advance width="498"/>
  <unicode hex="0038"/>
  <outline>
    <contour>
      <point x="458" y="174" type="curve" smooth="yes"/>
      <point x="458" y="28"/>
      <point x="331" y="-14"/>
      <point x="247" y="-14" type="curve" smooth="yes"/>
      <point x="181" y="-14"/>
      <point x="40" y="32"/>
      <point x="40" y="157" type="curve" smooth="yes"/>
      <point x="40" y="280"/>
      <point x="146" y="326"/>
      <point x="192" y="342" type="curve"/>
      <point x="119" y="379"/>
      <point x="53" y="422"/>
      <point x="53" y="516" type="curve" smooth="yes"/>
      <point x="53" y="669"/>
      <point x="186" y="689"/>
      <point x="241" y="689" type="curve" smooth="yes"/>
      <point x="331" y="689"/>
      <point x="424" y="648"/>
      <point x="424" y="541" type="curve" smooth="yes"/>
      <point x="424" y="441"/>
      <point x="342" y="395"/>
      <point x="299" y="375" type="curve"/>
      <point x="381" y="336"/>
      <point x="458" y="289"/>
    </contour>
    <contour>
      <point x="119" y="159" type="curve" smooth="yes"/>
      <point x="119" y="17"/>
      <point x="218" y="2"/>
      <point x="257" y="2" type="curve" smooth="yes"/>
      <point x="296" y="2"/>
      <point x="385" y="24"/>
      <point x="385" y="146" type="curve" smooth="yes"/>
      <point x="385" y="248"/>
      <point x="296" y="295"/>
      <point x="206" y="335" type="curve"/>
      <point x="177" y="314"/>
      <point x="119" y="251"/>
    </contour>
    <contour>
      <point x="352" y="535" type="curve" smooth="yes"/>
      <point x="352" y="645"/>
      <point x="287" y="674"/>
      <point x="229" y="674" type="curve" smooth="yes"/>
      <point x="132" y="674"/>
      <point x="120" y="604"/>
      <point x="120" y="558" type="curve" smooth="yes"/>
      <point x="120" y="454"/>
      <point x="192" y="419"/>
      <point x="282" y="383" type="curve"/>
      <point x="313" y="403"/>
      <point x="352" y="432"/>
    </contour>
  </outline>
</glyph>
<glyph name="nine" format="1">
  <advance width="498"/>
  <unicode hex="0039"/>
  <outline>
    <contour>
      <point x="461" y="388" type="curve" smooth="yes"/>
      <point x="461" y="574"/>
      <point x="382" y="691"/>
      <point x="251" y="691" type="curve" smooth="yes"/>
      <point x="135" y="691"/>
      <point x="37" y="578"/>
      <point x="37" y="455" type="curve" smooth="yes"/>
      <point x="37" y="332"/>
      <point x="136" y="241"/>
      <point x="252" y="241" type="curve" smooth="yes"/>
      <point x="303" y="241"/>
      <point x="347" y="264"/>
      <point x="375" y="302" type="curve"/>
      <point x="375" y="221"/>
      <point x="316" y="6"/>
      <point x="205" y="6" type="curve" smooth="yes"/>
      <point x="105" y="6"/>
      <point x="154" y="91"/>
      <point x="92" y="91" type="curve" smooth="yes"/>
      <point x="80" y="91"/>
      <point x="55" y="88"/>
      <point x="55" y="56" type="curve" smooth="yes"/>
      <point x="55" y="12"/>
      <point x="101" y="-14"/>
      <point x="173" y="-14" type="curve" smooth="yes"/>
      <point x="322" y="-14"/>
      <point x="461" y="156"/>
    </contour>
    <contour>
      <point x="380" y="455" type="curve" smooth="yes"/>
      <point x="380" y="350"/>
      <point x="349" y="257"/>
      <point x="248" y="257" type="curve" smooth="yes"/>
      <point x="159" y="257"/>
      <point x="118" y="343"/>
      <point x="118" y="455" type="curve" smooth="yes"/>
      <point x="118" y="581"/>
      <point x="157" y="675"/>
      <point x="252" y="675" type="curve" smooth="yes"/>
      <point x="335" y="675"/>
      <point x="380" y="573"/>
    </contour>
  </outline>
</glyph>
<glyph name="semicolon" format="1">
  <advance width="223"/>
  <unicode hex="003B"/>
  <outline>
    <contour>
      <point x="58" y="381" type="curve" smooth="yes"/>
      <point x="58" y="352"/>
      <point x="81" y="329"/>
      <point x="110" y="329" type="curve" smooth="yes"/>
      <point x="139" y="329"/>
      <point x="162" y="352"/>
      <point x="162" y="381" type="curve" smooth="yes"/>
      <point x="162" y="410"/>
      <point x="139" y="433"/>
      <point x="110" y="433" type="curve" smooth="yes"/>
      <point x="81" y="433"/>
      <point x="58" y="410"/>
    </contour>
    <contour>
      <point x="107" y="-15" type="curve" smooth="yes"/>
      <point x="123" y="-15"/>
      <point x="136" y="-10"/>
      <point x="142" y="-1" type="curve"/>
      <point x="142" y="-71"/>
      <point x="90" y="-113"/>
      <point x="51" y="-133" type="curve"/>
      <point x="57" y="-146" type="line"/>
      <point x="122" y="-124"/>
      <point x="180" y="-56"/>
      <point x="180" y="9" type="curve" smooth="yes"/>
      <point x="180" y="64"/>
      <point x="147" y="90"/>
      <point x="110" y="90" type="curve" smooth="yes"/>
      <point x="76" y="90"/>
      <point x="53" y="64"/>
      <point x="53" y="34" type="curve" smooth="yes"/>
      <point x="53" y="4"/>
      <point x="77" y="-15"/>
    </contour>
  </outline>
</glyph>
<glyph name="less" format="1">
  <advance width="533"/>
  <unicode hex="003C"/>
  <outline>
    <contour>
      <point x="500" y="505" type="line"/>
      <point x="500" y="560" type="line"/>
      <point x="36" y="319" type="line"/>
      <point x="36" y="268" type="line"/>
      <point x="505" y="0" type="line"/>
      <point x="505" y="59" type="line"/>
      <point x="95" y="292" type="line"/>
    </contour>
  </outline>
</glyph>
<glyph name="equal" format="1">
  <advance width="506"/>
  <unicode hex="003d"/>
  <outline>
    <contour>
      <point x="80" y="147" type="line" smooth="no"/>
      <point x="422" y="147" type="line" smooth="no"/>
      <point x="422" y="180" type="line" smooth="no"/>
      <point x="79" y="179" type="line" smooth="no"/>
    </contour>
    <contour>
      <point x="80" y="247" type="line" smooth="no"/>
      <point x="422" y="247" type="line" smooth="no"/>
      <point x="422" y="280" type="line" smooth="no"/>
      <point x="79" y="279" type="line" smooth="no"/>
    </contour>
  </outline>
</glyph>
<glyph name="greater" format="1">
  <advance width="533"/>
  <unicode hex="003E"/>
  <outline>
    <contour>
      <point x="85" y="454" type="line"/>
      <point x="85" y="504" type="line"/>
      <point x="503" y="287" type="line"/>
      <point x="503" y="241" type="line"/>
      <point x="81" y="0" type="line"/>
      <point x="81" y="53" type="line"/>
      <point x="450" y="263" type="line"/>
    </contour>
  </outline>
</glyph>
<glyph name="question" format="1">
  <advance width="473"/>
  <unicode hex="003F"/>
  <outline>
    <contour>
      <point x="136" y="301" type="line"/>
      <point x="161" y="276"/>
      <point x="180" y="269"/>
      <point x="229" y="269" type="curve" smooth="yes"/>
      <point x="320" y="269"/>
      <point x="408" y="335"/>
      <point x="408" y="462" type="curve" smooth="yes"/>
      <point x="408" y="612"/>
      <point x="285" y="694"/>
      <point x="199" y="694" type="curve" smooth="yes"/>
      <point x="139" y="694"/>
      <point x="65" y="647"/>
      <point x="65" y="608" type="curve" smooth="yes"/>
      <point x="65" y="595"/>
      <point x="73" y="585"/>
      <point x="83" y="585" type="curve" smooth="yes"/>
      <point x="106" y="585"/>
      <point x="117" y="597"/>
      <point x="125" y="625" type="curve" smooth="yes"/>
      <point x="134" y="656"/>
      <point x="157" y="674"/>
      <point x="192" y="674" type="curve" smooth="yes"/>
      <point x="262" y="674"/>
      <point x="336" y="595"/>
      <point x="336" y="461" type="curve" smooth="yes"/>
      <point x="336" y="372"/>
      <point x="308" y="289"/>
      <point x="228" y="289" type="curve" smooth="yes"/>
      <point x="167" y="289"/>
      <point x="126" y="324"/>
      <point x="126" y="417" type="curve"/>
      <point x="105" y="417" type="line"/>
      <point x="105" y="132" type="line"/>
      <point x="136" y="132" type="line"/>
    </contour>
    <component base="period" xOffset="7"/>
  </outline>
</glyph>
<glyph name="at" format="1">
  <advance width="768"/>
  <unicode hex="0040"/>
  <outline>
    <contour>
      <point x="207" y="95" type="curve" smooth="yes"/>
      <point x="207" y="60"/>
      <point x="226" y="-10"/>
      <point x="333" y="-10" type="curve" smooth="yes"/>
      <point x="410" y="-10"/>
      <point x="422" y="5"/>
      <point x="445" y="40" type="curve"/>
      <point x="457" y="25"/>
      <point x="485" y="-8"/>
      <point x="542" y="-8" type="curve" smooth="yes"/>
      <point x="607" y="-8"/>
      <point x="614" y="18"/>
      <point x="632" y="36" type="curve"/>
      <point x="622" y="42" type="line"/>
      <point x="613" y="26"/>
      <point x="599" y="13"/>
      <point x="569" y="13" type="curve" smooth="yes"/>
      <point x="530" y="13"/>
      <point x="528" y="49"/>
      <point x="528" y="101" type="curve" smooth="yes"/>
      <point x="528" y="314" type="line" smooth="yes"/>
      <point x="528" y="408"/>
      <point x="452" y="431"/>
      <point x="369" y="431" type="curve" smooth="yes"/>
      <point x="315" y="431"/>
      <point x="229" y="406"/>
      <point x="229" y="356" type="curve" smooth="yes"/>
      <point x="229" y="334"/>
      <point x="244" y="317"/>
      <point x="266" y="317" type="curve" smooth="yes"/>
      <point x="288" y="317"/>
      <point x="302" y="334"/>
      <point x="305" y="354" type="curve" smooth="yes"/>
      <point x="313" y="406"/>
      <point x="335" y="415"/>
      <point x="367" y="415" type="curve" smooth="yes"/>
      <point x="448" y="415"/>
      <point x="450" y="357"/>
      <point x="450" y="296" type="curve" smooth="yes"/>
      <point x="450" y="255"/>
      <point x="413" y="222"/>
      <point x="368" y="216" type="curve" smooth="yes"/>
      <point x="257" y="202"/>
      <point x="207" y="177"/>
    </contour>
    <contour>
      <point x="356" y="6" type="curve" smooth="yes"/>
      <point x="290" y="6"/>
      <point x="285" y="51"/>
      <point x="285" y="91" type="curve" smooth="yes"/>
      <point x="285" y="166"/>
      <point x="389" y="198"/>
      <point x="450" y="236" type="curve"/>
      <point x="450" y="145" type="line" smooth="yes"/>
      <point x="450" y="68"/>
      <point x="438" y="6"/>
    </contour>
    <contour>
      <point x="569" y="13" type="curve" smooth="yes"/>
      <point x="553" y="14"/>
      <point x="561" y="-11"/>
      <point x="584" y="-3" type="curve" smooth="yes"/>
      <point x="692" y="34"/>
      <point x="734" y="152"/>
      <point x="734" y="268" type="curve" smooth="yes"/>
      <point x="734" y="466"/>
      <point x="584" y="565"/>
      <point x="393" y="565" type="curve" smooth="yes"/>
      <point x="163" y="565"/>
      <point x="30" y="383"/>
      <point x="30" y="238" type="curve" smooth="yes"/>
      <point x="30" y="14"/>
      <point x="180" y="-128"/>
      <point x="395" y="-128" type="curve" smooth="yes"/>
      <point x="535" y="-128"/>
      <point x="610" y="-79"/>
      <point x="610" y="-66" type="curve" smooth="yes"/>
      <point x="610" y="-61"/>
      <point x="608" y="-57"/>
      <point x="601" y="-57" type="curve" smooth="yes"/>
      <point x="572" y="-57"/>
      <point x="565" y="-110"/>
      <point x="395" y="-110" type="curve" smooth="yes"/>
      <point x="203" y="-110"/>
      <point x="115" y="60"/>
      <point x="115" y="240" type="curve" smooth="yes"/>
      <point x="115" y="429"/>
      <point x="246" y="545"/>
      <point x="395" y="545" type="curve" smooth="yes"/>
      <point x="522" y="545"/>
      <point x="665" y="436"/>
      <point x="665" y="263" type="curve" smooth="yes"/>
      <point x="665" y="109"/>
      <point x="626" y="11"/>
    </contour>
  </outline>
</glyph>
<glyph name="A" format="1">
  <advance width="720"/>
  <unicode hex="0041"/>
  <outline>
    <contour>
      <point x="383" y="229" type="move" name="top"/>
    </contour>
    <contour>
      <point x="715" y="0" type="line"/>
      <point x="715" y="13" type="line"/>
      <point x="703" y="13" type="line" smooth="yes"/>
      <point x="645" y="13"/>
      <point x="609" y="67"/>
      <point x="588" y="121" type="curve" smooth="yes"/>
      <point x="369" y="677" type="line"/>
      <point x="366" y="677" type="line"/>
      <point x="128" y="150" type="line" smooth="yes"/>
      <point x="110" y="111"/>
      <point x="69" y="13"/>
      <point x="13" y="13" type="curve" smooth="yes"/>
      <point x="5" y="13" type="line"/>
      <point x="5" y="0" type="line"/>
      <point x="226" y="0" type="line"/>
      <point x="226" y="13" type="line"/>
      <point x="218" y="13" type="line" smooth="yes"/>
      <point x="159" y="13"/>
      <point x="141" y="56"/>
      <point x="141" y="100" type="curve" smooth="yes"/>
      <point x="141" y="127"/>
      <point x="149" y="154"/>
      <point x="157" y="173" type="curve" smooth="yes"/>
      <point x="197" y="263" type="line"/>
      <point x="430" y="263" type="line"/>
      <point x="442" y="233" type="line" smooth="yes"/>
      <point x="469" y="164"/>
      <point x="488" y="111"/>
      <point x="488" y="74" type="curve" smooth="yes"/>
      <point x="488" y="34"/>
      <point x="465" y="13"/>
      <point x="407" y="13" type="curve" smooth="yes"/>
      <point x="395" y="13" type="line"/>
      <point x="395" y="0" type="line"/>
    </contour>
    <contour>
      <point x="322" y="538" type="line"/>
      <point x="422" y="283" type="line"/>
      <point x="206" y="283" type="line"/>
    </contour>
  </outline>
</glyph>
<glyph name="B" format="1">
  <advance width="667"/>
  <unicode hex="0042"/>
  <outline>
    <contour>
      <point x="331" y="352" type="line"/>
      <point x="452" y="352"/>
      <point x="527" y="327"/>
      <point x="527" y="189" type="curve" smooth="yes"/>
      <point x="527" y="72"/>
      <point x="460" y="13"/>
      <point x="360" y="13" type="curve" smooth="yes"/>
      <point x="292" y="13"/>
      <point x="253" y="37"/>
      <point x="253" y="133" type="curve" smooth="yes"/>
      <point x="253" y="352" type="line"/>
    </contour>
    <contour>
      <point x="254" y="664" type="line"/>
      <point x="312" y="664" type="line" smooth="yes"/>
      <point x="410" y="664"/>
      <point x="478" y="625"/>
      <point x="478" y="510" type="curve" smooth="yes"/>
      <point x="478" y="410"/>
      <point x="434" y="364"/>
      <point x="321" y="364" type="curve" smooth="yes"/>
      <point x="253" y="364" type="line"/>
    </contour>
    <contour>
      <point x="41" y="676" type="line"/>
      <point x="41" y="663" type="line"/>
      <point x="53" y="663" type="line" smooth="yes"/>
      <point x="107" y="663"/>
      <point x="152" y="638"/>
      <point x="152" y="549" type="curve" smooth="yes"/>
      <point x="152" y="133" type="line" smooth="yes"/>
      <point x="152" y="51"/>
      <point x="103" y="13"/>
      <point x="46" y="13" type="curve" smooth="yes"/>
      <point x="35" y="13" type="line"/>
      <point x="35" y="0" type="line"/>
      <point x="409" y="0" type="line"/>
      <point x="501" y="0"/>
      <point x="525" y="5"/>
      <point x="566" y="30" type="curve" smooth="yes"/>
      <point x="610" y="57"/>
      <point x="650" y="126"/>
      <point x="650" y="182" type="curve" smooth="yes"/>
      <point x="650" y="327"/>
      <point x="482" y="363"/>
      <point x="434" y="363" type="curve"/>
      <point x="479" y="374"/>
      <point x="585" y="408"/>
      <point x="585" y="522" type="curve" smooth="yes"/>
      <point x="585" y="637"/>
      <point x="477" y="676"/>
      <point x="369" y="676" type="curve" smooth="yes"/>
    </contour>
  </outline>
</glyph>
<glyph name="C" format="1">
  <advance width="668"/>
  <unicode hex="0043"/>
  <outline>
    <contour>
      <point x="630" y="465" type="line"/>
      <point x="588" y="632"/>
      <point x="508" y="678"/>
      <point x="396" y="678" type="curve" smooth="yes"/>
      <point x="262" y="678"/>
      <point x="159" y="525"/>
      <point x="159" y="338" type="curve" smooth="yes"/>
      <point x="159" y="152"/>
      <point x="261" y="12"/>
      <point x="412" y="12" type="curve" smooth="yes"/>
      <point x="553" y="12"/>
      <point x="638" y="95"/>
      <point x="638" y="193" type="curve"/>
      <point x="651" y="193" type="line"/>
      <point x="651" y="39"/>
      <point x="499" y="-15"/>
      <point x="396" y="-15" type="curve" smooth="yes"/>
      <point x="183" y="-15"/>
      <point x="43" y="113"/>
      <point x="43" y="338" type="curve" smooth="yes"/>
      <point x="43" y="521"/>
      <point x="188" y="691"/>
      <point x="384" y="691" type="curve" smooth="yes"/>
      <point x="502" y="691"/>
      <point x="568" y="648"/>
      <point x="596" y="648" type="curve" smooth="yes"/>
      <point x="610" y="648"/>
      <point x="621" y="665"/>
      <point x="623" y="675" type="curve"/>
      <point x="634" y="675" type="line"/>
      <point x="634" y="675"/>
      <point x="639" y="465"/>
      <point x="639" y="465" type="curve"/>
    </contour>
  </outline>
</glyph>
<glyph name="E" format="1">
  <advance width="660"/>
  <unicode hex="0045"/>
  <outline>
    <contour>
      <point x="378" y="229" type="move" name="top"/>
    </contour>
    <contour>
      <point x="152" y="133" type="line"/>
      <point x="152" y="51"/>
      <point x="103" y="13"/>
      <point x="46" y="13" type="curve" smooth="yes"/>
      <point x="35" y="13" type="line"/>
      <point x="35" y="0" type="line"/>
      <point x="636" y="0" type="line"/>
      <point x="643" y="196" type="line"/>
      <point x="632" y="196" type="line"/>
      <point x="620" y="77"/>
      <point x="553" y="12"/>
      <point x="414" y="12" type="curve" smooth="yes"/>
      <point x="301" y="12"/>
      <point x="252" y="51"/>
      <point x="252" y="133" type="curve" smooth="yes"/>
      <point x="252" y="352" type="line"/>
      <point x="307" y="352" type="line" smooth="yes"/>
      <point x="376" y="352"/>
      <point x="420" y="306"/>
      <point x="420" y="234" type="curve" smooth="yes"/>
      <point x="420" y="223" type="line"/>
      <point x="431" y="223" type="line"/>
      <point x="431" y="488" type="line"/>
      <point x="420" y="488" type="line"/>
      <point x="420" y="477" type="line" smooth="yes"/>
      <point x="420" y="420"/>
      <point x="398" y="365"/>
      <point x="316" y="365" type="curve" smooth="yes"/>
      <point x="252" y="365" type="line"/>
      <point x="252" y="663" type="line"/>
      <point x="371" y="663" type="line" smooth="yes"/>
      <point x="502" y="663"/>
      <point x="563" y="607"/>
      <point x="570" y="518" type="curve"/>
      <point x="584" y="518" type="line"/>
      <point x="573" y="676" type="line"/>
      <point x="41" y="676" type="line"/>
      <point x="41" y="663" type="line"/>
      <point x="53" y="663" type="line" smooth="yes"/>
      <point x="107" y="663"/>
      <point x="151" y="638"/>
      <point x="151" y="549" type="curve" smooth="yes"/>
    </contour>
  </outline>
</glyph>
<glyph name="F" format="1">
  <advance width="602"/>
  <unicode hex="0046"/>
  <outline>
    <contour>
      <point x="253" y="352" type="line"/>
      <point x="308" y="352" type="line" smooth="yes"/>
      <point x="377" y="352"/>
      <point x="421" y="306"/>
      <point x="421" y="234" type="curve" smooth="yes"/>
      <point x="421" y="223" type="line"/>
      <point x="432" y="223" type="line"/>
      <point x="432" y="488" type="line"/>
      <point x="421" y="488" type="line"/>
      <point x="421" y="477" type="line" smooth="yes"/>
      <point x="421" y="420"/>
      <point x="399" y="365"/>
      <point x="317" y="365" type="curve" smooth="yes"/>
      <point x="253" y="365" type="line"/>
      <point x="253" y="663" type="line"/>
      <point x="372" y="663" type="line" smooth="yes"/>
      <point x="503" y="663"/>
      <point x="564" y="607"/>
      <point x="571" y="518" type="curve"/>
      <point x="585" y="518" type="line"/>
      <point x="574" y="676" type="line"/>
      <point x="43" y="676" type="line"/>
      <point x="43" y="663" type="line"/>
      <point x="55" y="663" type="line" smooth="yes"/>
      <point x="109" y="663"/>
      <point x="152" y="638"/>
      <point x="152" y="549" type="curve" smooth="yes"/>
      <point x="152" y="133" type="line"/>
      <point x="151" y="51"/>
      <point x="103" y="13"/>
      <point x="46" y="13" type="curve" smooth="yes"/>
      <point x="35" y="13" type="line"/>
      <point x="35" y="0" type="line"/>
      <point x="369" y="0" type="line"/>
      <point x="369" y="13" type="line"/>
      <point x="358" y="13" type="line" smooth="yes"/>
      <point x="301" y="13"/>
      <point x="253" y="52"/>
      <point x="253" y="133" type="curve"/>
    </contour>
  </outline>
</glyph>
<glyph name="G" format="1">
  <advance width="784"/>
  <unicode hex="0047"/>
  <outline>
    <contour>
      <point x="43" y="338" type="curve"/>
      <point x="43" y="107"/>
      <point x="174" y="-15"/>
      <point x="401" y="-15" type="curve"/>
      <point x="507" y="-15"/>
      <point x="582" y="27"/>
      <point x="621" y="60" type="curve"/>
      <point x="658" y="53" type="line"/>
      <point x="658" y="167" type="line"/>
      <point x="658" y="235"/>
      <point x="707" y="238"/>
      <point x="742" y="238" type="curve"/>
      <point x="754" y="238" type="line"/>
      <point x="754" y="259" type="line"/>
      <point x="433" y="259" type="line"/>
      <point x="433" y="238" type="line"/>
      <point x="445" y="238" type="line"/>
      <point x="479" y="238"/>
      <point x="551" y="235"/>
      <point x="551" y="149" type="curve"/>
      <point x="551" y="114"/>
      <point x="526" y="1"/>
      <point x="401" y="1" type="curve"/>
      <point x="267" y="1"/>
      <point x="164" y="152"/>
      <point x="164" y="338" type="curve"/>
      <point x="164" y="525"/>
      <point x="267" y="676"/>
      <point x="401" y="676" type="curve"/>
      <point x="508" y="676"/>
      <point x="586" y="628"/>
      <point x="627" y="465" type="curve"/>
      <point x="636" y="465" type="line"/>
      <point x="636" y="465"/>
      <point x="631" y="675"/>
      <point x="631" y="675" type="curve"/>
      <point x="620" y="675" type="line"/>
      <point x="618" y="665"/>
      <point x="607" y="648"/>
      <point x="593" y="648" type="curve"/>
      <point x="567" y="648"/>
      <point x="505" y="691"/>
      <point x="401" y="691" type="curve"/>
      <point x="194" y="691"/>
      <point x="43" y="539"/>
    </contour>
  </outline>
</glyph>
<glyph name="H" format="1">
  <advance width="873"/>
  <unicode hex="0048"/>
  <outline>
    <contour>
      <point x="620" y="358" type="line"/>
      <point x="253" y="358" type="line"/>
      <point x="253" y="549" type="line"/>
      <point x="253" y="638"/>
      <point x="296" y="663"/>
      <point x="350" y="663" type="curve" smooth="yes"/>
      <point x="362" y="663" type="line"/>
      <point x="362" y="676" type="line"/>
      <point x="42" y="676" type="line"/>
      <point x="42" y="663" type="line"/>
      <point x="54" y="663" type="line" smooth="yes"/>
      <point x="108" y="663"/>
      <point x="152" y="638"/>
      <point x="152" y="549" type="curve"/>
      <point x="152" y="133" type="line"/>
      <point x="152" y="51"/>
      <point x="103" y="13"/>
      <point x="46" y="13" type="curve" smooth="yes"/>
      <point x="35" y="13" type="line"/>
      <point x="35" y="0" type="line"/>
      <point x="369" y="0" type="line"/>
      <point x="369" y="13" type="line"/>
      <point x="358" y="13" type="line" smooth="yes"/>
      <point x="301" y="13"/>
      <point x="253" y="51"/>
      <point x="253" y="133" type="curve"/>
      <point x="253" y="338" type="line"/>
      <point x="620" y="338" type="line"/>
      <point x="620" y="133" type="line"/>
      <point x="620" y="51"/>
      <point x="572" y="13"/>
      <point x="515" y="13" type="curve" smooth="yes"/>
      <point x="504" y="13" type="line"/>
      <point x="504" y="0" type="line"/>
      <point x="838" y="0" type="line"/>
      <point x="838" y="13" type="line"/>
      <point x="827" y="13" type="line" smooth="yes"/>
      <point x="770" y="13"/>
      <point x="721" y="51"/>
      <point x="721" y="133" type="curve"/>
      <point x="721" y="549" type="line"/>
      <point x="721" y="638"/>
      <point x="765" y="663"/>
      <point x="819" y="663" type="curve" smooth="yes"/>
      <point x="831" y="663" type="line"/>
      <point x="831" y="676" type="line"/>
      <point x="511" y="676" type="line"/>
      <point x="511" y="663" type="line"/>
      <point x="523" y="663" type="line" smooth="yes"/>
      <point x="577" y="663"/>
      <point x="620" y="638"/>
      <point x="620" y="549" type="curve"/>
    </contour>
  </outline>
</glyph>
<glyph name="I" format="1">
  <advance width="404"/>
  <unicode hex="0049"/>
  <outline>
    <contour>
      <point x="202" y="229" type="move" smooth="yes"/>
    </contour>
    <contour>
      <point x="42" y="676" type="line" smooth="no"/>
      <point x="42" y="663" type="line" smooth="no"/>
      <point x="54" y="663" type="line" smooth="yes"/>
      <point x="108" y="663"/>
      <point x="152" y="638"/>
      <point x="152" y="549" type="curve" smooth="yes"/>
      <point x="152" y="133" type="line" smooth="yes"/>
      <point x="152" y="51"/>
      <point x="103" y="13"/>
      <point x="46" y="13" type="curve" smooth="yes"/>
      <point x="35" y="13" type="line" smooth="no"/>
      <point x="35" y="0" type="line" smooth="no"/>
      <point x="370" y="0" type="line" smooth="no"/>
      <point x="370" y="13" type="line" smooth="no"/>
      <point x="359" y="13" type="line" smooth="yes"/>
      <point x="302" y="13"/>
      <point x="253" y="51"/>
      <point x="253" y="133" type="curve" smooth="yes"/>
      <point x="253" y="549" type="line" smooth="yes"/>
      <point x="253" y="638"/>
      <point x="297" y="663"/>
      <point x="351" y="663" type="curve" smooth="yes"/>
      <point x="363" y="663" type="line" smooth="no"/>
      <point x="363" y="676" type="line" smooth="no"/>
    </contour>
  </outline>
</glyph>
<glyph name="J" format="1">
  <advance width="464"/>
  <unicode hex="004A"/>
  <outline>
    <contour>
      <point x="219" y="-19" type="line"/>
      <point x="219" y="-80"/>
      <point x="209" y="-157"/>
      <point x="132" y="-157" type="curve" smooth="yes"/>
      <point x="82" y="-157"/>
      <point x="74" y="-110"/>
      <point x="65" y="-83" type="curve" smooth="yes"/>
      <point x="55" y="-54"/>
      <point x="41" y="-39"/>
      <point x="19" y="-39" type="curve" smooth="yes"/>
      <point x="1" y="-39"/>
      <point x="-25" y="-50"/>
      <point x="-25" y="-87" type="curve" smooth="yes"/>
      <point x="-25" y="-142"/>
      <point x="61" y="-168"/>
      <point x="121" y="-168" type="curve" smooth="yes"/>
      <point x="255" y="-168"/>
      <point x="319" y="-107"/>
      <point x="319" y="-19" type="curve"/>
      <point x="319" y="549" type="line"/>
      <point x="319" y="638"/>
      <point x="363" y="663"/>
      <point x="417" y="663" type="curve" smooth="yes"/>
      <point x="429" y="663" type="line"/>
      <point x="429" y="676" type="line"/>
      <point x="109" y="676" type="line"/>
      <point x="109" y="663" type="line"/>
      <point x="121" y="663" type="line" smooth="yes"/>
      <point x="175" y="663"/>
      <point x="218" y="638"/>
      <point x="218" y="549" type="curve"/>
    </contour>
  </outline>
</glyph>
<glyph name="K" format="1">
  <advance width="747"/>
  <unicode hex="004B"/>
  <outline>
    <contour>
      <point x="42" y="676" type="line"/>
      <point x="42" y="663" type="line"/>
      <point x="54" y="663" type="line" smooth="yes"/>
      <point x="108" y="663"/>
      <point x="152" y="638"/>
      <point x="152" y="549" type="curve" smooth="yes"/>
      <point x="152" y="133" type="line" smooth="yes"/>
      <point x="152" y="51"/>
      <point x="103" y="13"/>
      <point x="46" y="13" type="curve" smooth="yes"/>
      <point x="35" y="13" type="line"/>
      <point x="35" y="0" type="line"/>
      <point x="369" y="0" type="line"/>
      <point x="369" y="13" type="line"/>
      <point x="358" y="13" type="line" smooth="yes"/>
      <point x="301" y="13"/>
      <point x="252" y="51"/>
      <point x="252" y="133" type="curve" smooth="yes"/>
      <point x="252" y="305" type="line"/>
      <point x="307" y="357" type="line"/>
      <point x="494" y="112" type="line" smooth="yes"/>
      <point x="513" y="87"/>
      <point x="520" y="73"/>
      <point x="520" y="58" type="curve" smooth="yes"/>
      <point x="520" y="30"/>
      <point x="492" y="13"/>
      <point x="455" y="13" type="curve" smooth="yes"/>
      <point x="444" y="13" type="line"/>
      <point x="444" y="0" type="line"/>
      <point x="752" y="0" type="line"/>
      <point x="752" y="13" type="line"/>
      <point x="741" y="13" type="line" smooth="yes"/>
      <point x="708" y="13"/>
      <point x="668" y="50"/>
      <point x="648" y="76" type="curve" smooth="yes"/>
      <point x="380" y="425" type="line"/>
      <point x="479" y="518" type="line" smooth="yes"/>
      <point x="507" y="545"/>
      <point x="630" y="663"/>
      <point x="670" y="663" type="curve" smooth="yes"/>
      <point x="677" y="663" type="line"/>
      <point x="677" y="676" type="line"/>
      <point x="472" y="676" type="line"/>
      <point x="472" y="663" type="line"/>
      <point x="480" y="663" type="line" smooth="yes"/>
      <point x="506" y="663"/>
      <point x="534" y="651"/>
      <point x="534" y="623" type="curve" smooth="yes"/>
      <point x="534" y="587"/>
      <point x="472" y="536"/>
      <point x="419" y="486" type="curve" smooth="yes"/>
      <point x="252" y="329" type="line"/>
      <point x="252" y="549" type="line" smooth="yes"/>
      <point x="252" y="638"/>
      <point x="296" y="663"/>
      <point x="350" y="663" type="curve" smooth="yes"/>
      <point x="362" y="663" type="line"/>
      <point x="362" y="676" type="line"/>
    </contour>
  </outline>
</glyph>
<glyph name="L" format="1">
  <advance width="648"/>
  <unicode hex="004C"/>
  <outline>
    <contour>
      <point x="152" y="133" type="line"/>
      <point x="152" y="51"/>
      <point x="103" y="13"/>
      <point x="46" y="13" type="curve" smooth="yes"/>
      <point x="35" y="13" type="line"/>
      <point x="35" y="0" type="line"/>
      <point x="636" y="0" type="line"/>
      <point x="643" y="196" type="line"/>
      <point x="632" y="196" type="line"/>
      <point x="620" y="77"/>
      <point x="553" y="12"/>
      <point x="414" y="12" type="curve"/>
      <point x="301" y="12"/>
      <point x="252" y="51"/>
      <point x="252" y="133" type="curve" smooth="yes"/>
      <point x="252" y="549" type="line"/>
      <point x="252" y="638"/>
      <point x="296" y="663"/>
      <point x="350" y="663" type="curve" smooth="yes"/>
      <point x="362" y="663" type="line"/>
      <point x="362" y="676" type="line"/>
      <point x="42" y="676" type="line"/>
      <point x="42" y="663" type="line"/>
      <point x="54" y="663" type="line" smooth="yes"/>
      <point x="108" y="663"/>
      <point x="151" y="638"/>
      <point x="151" y="549" type="curve"/>
    </contour>
  </outline>
</glyph>
<glyph name="M" format="1">
  <advance width="944"/>
  <unicode hex="004d"/>
  <outline>
    <contour>
      <point x="469" y="137" type="line" smooth="no"/>
      <point x="243" y="676" type="line" smooth="no"/>
      <point x="37" y="676" type="line" smooth="no"/>
      <point x="37" y="663" type="line" smooth="no"/>
      <point x="49" y="663" type="line" smooth="yes"/>
      <point x="96" y="663"/>
      <point x="120" y="658"/>
      <point x="131" y="623" type="curve" smooth="yes"/>
      <point x="141" y="591"/>
      <point x="142" y="539"/>
      <point x="142" y="444" type="curve" smooth="yes"/>
      <point x="142" y="388"/>
      <point x="139" y="133"/>
      <point x="139" y="133" type="curve" smooth="yes"/>
      <point x="139" y="51"/>
      <point x="98" y="13"/>
      <point x="41" y="13" type="curve" smooth="yes"/>
      <point x="30" y="13" type="line" smooth="no"/>
      <point x="30" y="0" type="line" smooth="no"/>
      <point x="268" y="0" type="line" smooth="no"/>
      <point x="268" y="13" type="line" smooth="no"/>
      <point x="257" y="13" type="line" smooth="yes"/>
      <point x="200" y="13"/>
      <point x="159" y="51"/>
      <point x="159" y="133" type="curve" smooth="yes"/>
      <point x="159" y="634" type="line" smooth="no"/>
      <point x="423" y="-2" type="line" smooth="no"/>
      <point x="429" y="-2" type="line" smooth="no"/>
      <point x="692" y="634" type="line" smooth="no"/>
      <point x="692" y="133" type="line" smooth="yes"/>
      <point x="692" y="51"/>
      <point x="643" y="13"/>
      <point x="586" y="13" type="curve" smooth="yes"/>
      <point x="575" y="13" type="line" smooth="no"/>
      <point x="575" y="0" type="line" smooth="no"/>
      <point x="909" y="0" type="line" smooth="no"/>
      <point x="909" y="13" type="line" smooth="no"/>
      <point x="898" y="13" type="line" smooth="yes"/>
      <point x="841" y="13"/>
      <point x="792" y="51"/>
      <point x="792" y="133" type="curve" smooth="yes"/>
      <point x="792" y="133"/>
      <point x="789" y="388"/>
      <point x="789" y="444" type="curve" smooth="yes"/>
      <point x="789" y="551"/>
      <point x="789" y="595"/>
      <point x="800" y="620" type="curve" smooth="yes"/>
      <point x="812" y="648"/>
      <point x="841" y="663"/>
      <point x="877" y="663" type="curve" smooth="yes"/>
      <point x="889" y="663" type="line" smooth="no"/>
      <point x="889" y="676" type="line" smooth="no"/>
      <point x="691" y="676" type="line" smooth="no"/>
    </contour>
  </outline>
</glyph>
<glyph name="N" format="1">
  <advance width="785"/>
  <unicode hex="004E"/>
  <outline>
    <contour>
      <point x="217" y="676" type="line"/>
      <point x="33" y="676" type="line"/>
      <point x="33" y="663" type="line"/>
      <point x="45" y="663" type="line" smooth="yes"/>
      <point x="98" y="663"/>
      <point x="141" y="639"/>
      <point x="141" y="552" type="curve" smooth="yes"/>
      <point x="141" y="133" type="line" smooth="yes"/>
      <point x="141" y="51"/>
      <point x="98" y="13"/>
      <point x="41" y="13" type="curve" smooth="yes"/>
      <point x="30" y="13" type="line"/>
      <point x="30" y="0" type="line"/>
      <point x="268" y="0" type="line"/>
      <point x="268" y="13" type="line"/>
      <point x="257" y="13" type="line" smooth="yes"/>
      <point x="200" y="13"/>
      <point x="159" y="51"/>
      <point x="159" y="133" type="curve" smooth="yes"/>
      <point x="159" y="598" type="line"/>
      <point x="642" y="-6" type="line"/>
      <point x="654" y="-6" type="line"/>
      <point x="654" y="444" type="line" smooth="yes"/>
      <point x="654" y="617"/>
      <point x="678" y="663"/>
      <point x="745" y="663" type="curve" smooth="yes"/>
      <point x="753" y="663" type="line"/>
      <point x="753" y="676" type="line"/>
      <point x="532" y="676" type="line"/>
      <point x="532" y="663" type="line"/>
      <point x="540" y="663" type="line" smooth="yes"/>
      <point x="608" y="663"/>
      <point x="627" y="617"/>
      <point x="627" y="444" type="curve" smooth="yes"/>
      <point x="627" y="165" type="line"/>
    </contour>
  </outline>
</glyph>
<glyph name="O" format="1">
  <advance width="802"/>
  <unicode hex="004F"/>
  <outline>
    <contour>
      <point x="43" y="338" type="curve" smooth="yes"/>
      <point x="43" y="147"/>
      <point x="204" y="-15"/>
      <point x="401" y="-15" type="curve" smooth="yes"/>
      <point x="597" y="-15"/>
      <point x="759" y="147"/>
      <point x="759" y="338" type="curve" smooth="yes"/>
      <point x="759" y="529"/>
      <point x="597" y="691"/>
      <point x="401" y="691" type="curve" smooth="yes"/>
      <point x="204" y="691"/>
      <point x="43" y="529"/>
    </contour>
    <contour>
      <point x="164" y="338" type="curve" smooth="yes"/>
      <point x="164" y="525"/>
      <point x="267" y="676"/>
      <point x="401" y="676" type="curve" smooth="yes"/>
      <point x="536" y="676"/>
      <point x="640" y="525"/>
      <point x="640" y="338" type="curve" smooth="yes"/>
      <point x="640" y="152"/>
      <point x="536" y="1"/>
      <point x="401" y="1" type="curve" smooth="yes"/>
      <point x="267" y="1"/>
      <point x="164" y="152"/>
    </contour>
  </outline>
</glyph>
<glyph name="P" format="1">
  <advance width="624"/>
  <unicode hex="0050"/>
  <outline>
    <contour>
      <point x="581" y="501" type="curve"/>
      <point x="579" y="602"/>
      <point x="523" y="676"/>
      <point x="398" y="676" type="curve" smooth="yes"/>
      <point x="43" y="676" type="line"/>
      <point x="43" y="663" type="line"/>
      <point x="55" y="663" type="line" smooth="yes"/>
      <point x="109" y="663"/>
      <point x="152" y="638"/>
      <point x="152" y="549" type="curve" smooth="yes"/>
      <point x="152" y="133" type="line" smooth="yes"/>
      <point x="152" y="51"/>
      <point x="103" y="13"/>
      <point x="46" y="13" type="curve" smooth="yes"/>
      <point x="35" y="13" type="line"/>
      <point x="35" y="0" type="line"/>
      <point x="369" y="0" type="line"/>
      <point x="369" y="13" type="line"/>
      <point x="358" y="13" type="line" smooth="yes"/>
      <point x="301" y="13"/>
      <point x="253" y="52"/>
      <point x="253" y="133" type="curve" smooth="yes"/>
      <point x="253" y="331" type="line"/>
      <point x="285" y="329"/>
      <point x="319" y="327"/>
      <point x="351" y="327" type="curve" smooth="yes"/>
      <point x="474" y="327"/>
      <point x="581" y="353"/>
    </contour>
    <contour>
      <point x="253" y="663" type="line"/>
      <point x="379" y="663"/>
      <point x="477" y="657"/>
      <point x="477" y="503" type="curve" smooth="yes"/>
      <point x="477" y="360"/>
      <point x="378" y="341"/>
      <point x="284" y="341" type="curve" smooth="yes"/>
      <point x="274" y="341"/>
      <point x="263" y="342"/>
      <point x="253" y="342" type="curve"/>
    </contour>
  </outline>
</glyph>
<glyph name="Q" format="1">
  <advance width="817"/>
  <unicode hex="0051"/>
  <outline>
    <contour>
      <point x="43" y="338" type="curve" smooth="yes"/>
      <point x="43" y="143"/>
      <point x="197" y="-15"/>
      <point x="420" y="-15" type="curve"/>
      <point x="467" y="-78"/>
      <point x="521" y="-152"/>
      <point x="640" y="-152" type="curve" smooth="yes"/>
      <point x="828" y="-152"/>
      <point x="831" y="18"/>
      <point x="831" y="64" type="curve"/>
      <point x="822" y="64" type="line"/>
      <point x="822" y="11"/>
      <point x="783" y="-67"/>
      <point x="666" y="-67" type="curve" smooth="yes"/>
      <point x="593" y="-67"/>
      <point x="553" y="-32"/>
      <point x="515" y="4" type="curve"/>
      <point x="656" y="52"/>
      <point x="759" y="186"/>
      <point x="759" y="338" type="curve" smooth="yes"/>
      <point x="759" y="529"/>
      <point x="597" y="691"/>
      <point x="401" y="691" type="curve" smooth="yes"/>
      <point x="204" y="691"/>
      <point x="43" y="529"/>
    </contour>
    <contour>
      <point x="164" y="338" type="curve" smooth="yes"/>
      <point x="164" y="525"/>
      <point x="267" y="676"/>
      <point x="401" y="676" type="curve" smooth="yes"/>
      <point x="536" y="676"/>
      <point x="640" y="525"/>
      <point x="640" y="338" type="curve" smooth="yes"/>
      <point x="640" y="197"/>
      <point x="580" y="76"/>
      <point x="492" y="26" type="curve"/>
      <point x="457" y="58"/>
      <point x="418" y="87"/>
      <point x="350" y="87" type="curve" smooth="yes"/>
      <point x="291" y="87"/>
      <point x="267" y="71"/>
      <point x="260" y="64" type="curve"/>
      <point x="201" y="125"/>
      <point x="164" y="225"/>
    </contour>
    <contour>
      <point x="268" y="57" type="curve"/>
      <point x="274" y="62"/>
      <point x="287" y="68"/>
      <point x="311" y="68" type="curve" smooth="yes"/>
      <point x="350" y="68"/>
      <point x="378" y="37"/>
      <point x="407" y="1" type="curve"/>
      <point x="348" y="1"/>
      <point x="306" y="21"/>
    </contour>
  </outline>
</glyph>
<glyph name="R" format="1">
  <advance width="750"/>
  <unicode hex="0052"/>
  <outline>
    <contour>
      <point x="253" y="663" type="line"/>
      <point x="379" y="663"/>
      <point x="477" y="657"/>
      <point x="477" y="503" type="curve" smooth="yes"/>
      <point x="477" y="360"/>
      <point x="378" y="341"/>
      <point x="284" y="341" type="curve" smooth="yes"/>
      <point x="274" y="341"/>
      <point x="263" y="342"/>
      <point x="253" y="342" type="curve"/>
    </contour>
    <contour>
      <point x="253" y="331" type="line"/>
      <point x="392" y="331"/>
      <point x="403" y="314"/>
      <point x="486" y="163" type="curve" smooth="yes"/>
      <point x="575" y="0" type="line"/>
      <point x="767" y="0" type="line"/>
      <point x="767" y="13" type="line"/>
      <point x="693" y="14"/>
      <point x="673" y="28"/>
      <point x="580" y="179" type="curve" smooth="yes"/>
      <point x="513" y="287"/>
      <point x="515" y="324"/>
      <point x="431" y="337" type="curve"/>
      <point x="521" y="358"/>
      <point x="581" y="388"/>
      <point x="581" y="501" type="curve" smooth="yes"/>
      <point x="581" y="602"/>
      <point x="523" y="676"/>
      <point x="398" y="676" type="curve" smooth="yes"/>
      <point x="43" y="676" type="line"/>
      <point x="43" y="663" type="line"/>
      <point x="55" y="663" type="line" smooth="yes"/>
      <point x="109" y="663"/>
      <point x="152" y="638"/>
      <point x="152" y="549" type="curve" smooth="yes"/>
      <point x="152" y="133" type="line"/>
      <point x="152" y="51"/>
      <point x="103" y="13"/>
      <point x="46" y="13" type="curve" smooth="yes"/>
      <point x="35" y="13" type="line"/>
      <point x="35" y="0" type="line"/>
      <point x="369" y="0" type="line"/>
      <point x="369" y="13" type="line"/>
      <point x="358" y="13" type="line" smooth="yes"/>
      <point x="301" y="13"/>
      <point x="253" y="52"/>
      <point x="253" y="133" type="curve" smooth="yes"/>
    </contour>
  </outline>
</glyph>
<glyph name="S" format="1">
  <advance width="510"/>
  <unicode hex="0053"/>
  <outline>
    <contour>
      <point x="263" y="229" type="move" name="top"/>
    </contour>
    <contour>
      <point x="381" y="143" type="curve" smooth="yes"/>
      <point x="381" y="52"/>
      <point x="329" y="2"/>
      <point x="262" y="2" type="curve" smooth="yes"/>
      <point x="100" y="2"/>
      <point x="57" y="172"/>
      <point x="56" y="198" type="curve"/>
      <point x="45" y="198" type="line"/>
      <point x="45" y="198"/>
      <point x="51" y="-10"/>
      <point x="51" y="-10" type="curve"/>
      <point x="51" y="-10"/>
      <point x="63" y="-10"/>
      <point x="63" y="-10" type="curve"/>
      <point x="63" y="-6"/>
      <point x="64" y="21"/>
      <point x="93" y="21" type="curve" smooth="yes"/>
      <point x="128" y="21"/>
      <point x="173" y="-14"/>
      <point x="265" y="-14" type="curve" smooth="yes"/>
      <point x="410" y="-14"/>
      <point x="480" y="83"/>
      <point x="480" y="192" type="curve" smooth="yes"/>
      <point x="481" y="427"/>
      <point x="137" y="357"/>
      <point x="137" y="552" type="curve" smooth="yes"/>
      <point x="137" y="654"/>
      <point x="218" y="674"/>
      <point x="253" y="674" type="curve" smooth="yes"/>
      <point x="362" y="674"/>
      <point x="424" y="526"/>
      <point x="424" y="489" type="curve"/>
      <point x="435" y="489" type="line"/>
      <point x="435" y="489"/>
      <point x="429" y="678"/>
      <point x="429" y="678" type="curve"/>
      <point x="429" y="678"/>
      <point x="419" y="678"/>
      <point x="419" y="678" type="curve"/>
      <point x="419" y="665"/>
      <point x="413" y="645"/>
      <point x="385" y="645" type="curve" smooth="yes"/>
      <point x="352" y="645"/>
      <point x="313" y="691"/>
      <point x="250" y="691" type="curve" smooth="yes"/>
      <point x="154" y="691"/>
      <point x="64" y="614"/>
      <point x="64" y="506" type="curve" smooth="yes"/>
      <point x="64" y="270"/>
      <point x="381" y="353"/>
    </contour>
  </outline>
</glyph>
<glyph name="T" format="1">
  <advance width="702"/>
  <unicode hex="0054"/>
  <outline>
    <contour>
      <point x="683" y="676" type="line"/>
      <point x="19" y="676" type="line"/>
      <point x="5" y="500" type="line"/>
      <point x="19" y="500" type="line"/>
      <point x="26" y="589"/>
      <point x="92" y="656"/>
      <point x="223" y="656" type="curve" smooth="yes"/>
      <point x="300" y="656" type="line"/>
      <point x="300" y="133" type="line" smooth="yes"/>
      <point x="300" y="51"/>
      <point x="251" y="13"/>
      <point x="194" y="13" type="curve" smooth="yes"/>
      <point x="170" y="13" type="line"/>
      <point x="170" y="0" type="line"/>
      <point x="532" y="0" type="line"/>
      <point x="532" y="13" type="line"/>
      <point x="508" y="13" type="line" smooth="yes"/>
      <point x="451" y="13"/>
      <point x="402" y="51"/>
      <point x="402" y="133" type="curve" smooth="yes"/>
      <point x="402" y="656" type="line"/>
      <point x="479" y="656" type="line" smooth="yes"/>
      <point x="610" y="656"/>
      <point x="676" y="589"/>
      <point x="683" y="500" type="curve"/>
      <point x="697" y="500" type="line"/>
    </contour>
  </outline>
</glyph>
<glyph name="U" format="1">
  <advance width="794"/>
  <unicode hex="0055"/>
  <outline>
    <contour>
      <point x="435" y="229" type="move" name="top"/>
    </contour>
    <contour>
      <point x="639" y="226" type="line"/>
      <point x="639" y="93"/>
      <point x="595" y="11"/>
      <point x="446" y="11" type="curve" smooth="yes"/>
      <point x="290" y="11"/>
      <point x="245" y="98"/>
      <point x="245" y="203" type="curve" smooth="yes"/>
      <point x="245" y="549" type="line"/>
      <point x="245" y="638"/>
      <point x="289" y="663"/>
      <point x="343" y="663" type="curve" smooth="yes"/>
      <point x="355" y="663" type="line"/>
      <point x="355" y="676" type="line"/>
      <point x="35" y="676" type="line"/>
      <point x="35" y="663" type="line"/>
      <point x="47" y="663" type="line" smooth="yes"/>
      <point x="101" y="663"/>
      <point x="145" y="638"/>
      <point x="145" y="549" type="curve"/>
      <point x="145" y="179" type="line" smooth="yes"/>
      <point x="145" y="27"/>
      <point x="232" y="-17"/>
      <point x="421" y="-17" type="curve"/>
      <point x="588" y="-17"/>
      <point x="665" y="50"/>
      <point x="665" y="203" type="curve" smooth="yes"/>
      <point x="665" y="444" type="line"/>
      <point x="665" y="617"/>
      <point x="689" y="663"/>
      <point x="756" y="663" type="curve" smooth="yes"/>
      <point x="764" y="663" type="line"/>
      <point x="764" y="676" type="line"/>
      <point x="543" y="676" type="line"/>
      <point x="543" y="663" type="line"/>
      <point x="551" y="663" type="line" smooth="yes"/>
      <point x="619" y="663"/>
      <point x="637" y="617"/>
      <point x="638" y="444" type="curve"/>
    </contour>
  </outline>
</glyph>
<glyph name="V" format="1">
  <advance width="686"/>
  <unicode hex="0056"/>
  <outline>
    <contour>
      <point x="-5" y="676" type="line"/>
      <point x="-5" y="663" type="line"/>
      <point x="7" y="663" type="line" smooth="yes"/>
      <point x="90" y="663"/>
      <point x="100" y="609"/>
      <point x="121" y="555" type="curve" smooth="yes"/>
      <point x="228" y="280"/>
      <point x="344" y="-3"/>
      <point x="344" y="-3" type="curve"/>
      <point x="355" y="-3" type="line"/>
      <point x="572" y="556" type="line" smooth="yes"/>
      <point x="586" y="592"/>
      <point x="618" y="663"/>
      <point x="687" y="663" type="curve" smooth="yes"/>
      <point x="695" y="663" type="line"/>
      <point x="695" y="676" type="line"/>
      <point x="474" y="676" type="line"/>
      <point x="474" y="663" type="line"/>
      <point x="482" y="663" type="line"/>
      <point x="535" y="663"/>
      <point x="552" y="634"/>
      <point x="552" y="594" type="curve" smooth="yes"/>
      <point x="552" y="558"/>
      <point x="530" y="494"/>
      <point x="512" y="448" type="curve" smooth="yes"/>
      <point x="390" y="136" type="line"/>
      <point x="268" y="443" type="line" smooth="yes"/>
      <point x="241" y="512"/>
      <point x="222" y="565"/>
      <point x="222" y="602" type="curve" smooth="yes"/>
      <point x="222" y="642"/>
      <point x="244" y="663"/>
      <point x="303" y="663" type="curve"/>
      <point x="315" y="663" type="line"/>
      <point x="315" y="676" type="line"/>
    </contour>
  </outline>
</glyph>
<glyph name="W" format="1">
  <advance width="1089"/>
  <unicode hex="0057"/>
  <outline>
    <contour>
      <point x="550" y="539" type="line"/>
      <point x="367" y="0" type="line"/>
      <point x="356" y="0" type="line"/>
      <point x="136" y="523" type="line" smooth="yes"/>
      <point x="113" y="577"/>
      <point x="78" y="663"/>
      <point x="7" y="663" type="curve" smooth="yes"/>
      <point x="-5" y="663" type="line"/>
      <point x="-5" y="676" type="line"/>
      <point x="310" y="676" type="line"/>
      <point x="310" y="663" type="line"/>
      <point x="298" y="663" type="line" smooth="yes"/>
      <point x="236" y="663"/>
      <point x="216" y="643"/>
      <point x="216" y="610" type="curve" smooth="yes"/>
      <point x="216" y="580"/>
      <point x="236" y="534"/>
      <point x="255" y="486" type="curve" smooth="yes"/>
      <point x="396" y="137" type="line"/>
      <point x="515" y="486" type="line"/>
      <point x="524" y="511"/>
      <point x="531" y="542"/>
      <point x="531" y="565" type="curve" smooth="yes"/>
      <point x="531" y="618"/>
      <point x="507" y="663"/>
      <point x="438" y="663" type="curve" smooth="yes"/>
      <point x="426" y="663" type="line"/>
      <point x="426" y="676" type="line"/>
      <point x="740" y="676" type="line"/>
      <point x="740" y="663" type="line"/>
      <point x="728" y="663" type="line" smooth="yes"/>
      <point x="659" y="663"/>
      <point x="641" y="631"/>
      <point x="641" y="594" type="curve" smooth="yes"/>
      <point x="641" y="570"/>
      <point x="648" y="545"/>
      <point x="655" y="523" type="curve" smooth="yes"/>
      <point x="782" y="137" type="line"/>
      <point x="925" y="486" type="line" smooth="yes"/>
      <point x="942" y="528"/>
      <point x="954" y="566"/>
      <point x="954" y="596" type="curve" smooth="yes"/>
      <point x="954" y="637"/>
      <point x="933" y="663"/>
      <point x="880" y="663" type="curve" smooth="yes"/>
      <point x="872" y="663" type="line"/>
      <point x="872" y="676" type="line"/>
      <point x="1098" y="676" type="line"/>
      <point x="1098" y="663" type="line"/>
      <point x="1090" y="663" type="line" smooth="yes"/>
      <point x="1013" y="663"/>
      <point x="996" y="614"/>
      <point x="959" y="523" type="curve" smooth="yes"/>
      <point x="745" y="0" type="line"/>
      <point x="734" y="0" type="line"/>
    </contour>
  </outline>
</glyph>
<glyph name="X" format="1">
  <advance width="701"/>
  <unicode hex="0058"/>
  <outline>
    <contour>
      <point x="168" y="150" type="line"/>
      <point x="152" y="130"/>
      <point x="76" y="13"/>
      <point x="-2" y="13" type="curve" smooth="yes"/>
      <point x="-10" y="13" type="line"/>
      <point x="-10" y="0" type="line"/>
      <point x="230" y="0" type="line"/>
      <point x="230" y="13" type="line"/>
      <point x="222" y="13" type="line" smooth="yes"/>
      <point x="170" y="13"/>
      <point x="153" y="32"/>
      <point x="153" y="58" type="curve" smooth="yes"/>
      <point x="153" y="99"/>
      <point x="196" y="157"/>
      <point x="215" y="181" type="curve" smooth="yes"/>
      <point x="318" y="314" type="line"/>
      <point x="402" y="193" type="line" smooth="yes"/>
      <point x="436" y="144"/>
      <point x="468" y="94"/>
      <point x="468" y="59" type="curve" smooth="yes"/>
      <point x="468" y="31"/>
      <point x="448" y="13"/>
      <point x="393" y="13" type="curve" smooth="yes"/>
      <point x="381" y="13" type="line"/>
      <point x="381" y="0" type="line"/>
      <point x="731" y="0" type="line"/>
      <point x="731" y="13" type="line"/>
      <point x="719" y="13" type="line" smooth="yes"/>
      <point x="649" y="13"/>
      <point x="588" y="93"/>
      <point x="551" y="146" type="curve" smooth="yes"/>
      <point x="380" y="391" type="line"/>
      <point x="496" y="535" type="line" smooth="yes"/>
      <point x="525" y="571"/>
      <point x="589" y="663"/>
      <point x="664" y="663" type="curve" smooth="yes"/>
      <point x="672" y="663" type="line"/>
      <point x="672" y="676" type="line"/>
      <point x="447" y="676" type="line"/>
      <point x="447" y="663" type="line"/>
      <point x="455" y="663" type="line" smooth="yes"/>
      <point x="501" y="663"/>
      <point x="518" y="647"/>
      <point x="518" y="625" type="curve" smooth="yes"/>
      <point x="518" y="594"/>
      <point x="481" y="545"/>
      <point x="452" y="509" type="curve" smooth="yes"/>
      <point x="369" y="405" type="line"/>
      <point x="316" y="483" type="line" smooth="yes"/>
      <point x="282" y="532"/>
      <point x="250" y="586"/>
      <point x="250" y="622" type="curve" smooth="yes"/>
      <point x="250" y="647"/>
      <point x="266" y="663"/>
      <point x="308" y="663" type="curve" smooth="yes"/>
      <point x="320" y="663" type="line"/>
      <point x="320" y="676" type="line"/>
      <point x="0" y="676" type="line"/>
      <point x="0" y="663" type="line"/>
      <point x="12" y="663" type="line" smooth="yes"/>
      <point x="90" y="663"/>
      <point x="130" y="583"/>
      <point x="167" y="530" type="curve" smooth="yes"/>
      <point x="308" y="327" type="line"/>
    </contour>
  </outline>
</glyph>
<glyph name="Y" format="1">
  <advance width="650"/>
  <unicode hex="0059"/>
  <outline>
    <contour>
      <point x="510" y="505" type="line"/>
      <point x="543" y="561"/>
      <point x="612" y="663"/>
      <point x="669" y="663" type="curve" smooth="yes"/>
      <point x="677" y="663" type="line"/>
      <point x="677" y="676" type="line"/>
      <point x="456" y="676" type="line"/>
      <point x="456" y="663" type="line"/>
      <point x="464" y="663" type="line" smooth="yes"/>
      <point x="511" y="663"/>
      <point x="527" y="640"/>
      <point x="527" y="610" type="curve" smooth="yes"/>
      <point x="527" y="573"/>
      <point x="493" y="511"/>
      <point x="475" y="480" type="curve" smooth="yes"/>
      <point x="397" y="345" type="line" smooth="yes"/>
      <point x="387" y="327"/>
      <point x="375" y="311"/>
      <point x="375" y="311" type="curve"/>
      <point x="375" y="311"/>
      <point x="366" y="326"/>
      <point x="358" y="340" type="curve" smooth="yes"/>
      <point x="259" y="509" type="line" smooth="yes"/>
      <point x="240" y="541"/>
      <point x="214" y="584"/>
      <point x="214" y="615" type="curve" smooth="yes"/>
      <point x="214" y="643"/>
      <point x="233" y="663"/>
      <point x="290" y="663" type="curve" smooth="yes"/>
      <point x="302" y="663" type="line"/>
      <point x="302" y="676" type="line"/>
      <point x="-18" y="676" type="line"/>
      <point x="-18" y="663" type="line"/>
      <point x="-6" y="663" type="line" smooth="yes"/>
      <point x="62" y="663"/>
      <point x="100" y="596"/>
      <point x="129" y="546" type="curve" smooth="yes"/>
      <point x="242" y="355" type="line" smooth="yes"/>
      <point x="270" y="308"/>
      <point x="281" y="282"/>
      <point x="281" y="224" type="curve" smooth="yes"/>
      <point x="281" y="133" type="line" smooth="yes"/>
      <point x="281" y="51"/>
      <point x="233" y="13"/>
      <point x="176" y="13" type="curve" smooth="yes"/>
      <point x="165" y="13" type="line"/>
      <point x="165" y="0" type="line"/>
      <point x="499" y="0" type="line"/>
      <point x="499" y="13" type="line"/>
      <point x="488" y="13" type="line" smooth="yes"/>
      <point x="432" y="13"/>
      <point x="383" y="51"/>
      <point x="383" y="133" type="curve" smooth="yes"/>
      <point x="383" y="224" type="line" smooth="yes"/>
      <point x="383" y="279"/>
      <point x="394" y="308"/>
      <point x="421" y="354" type="curve" smooth="yes"/>
    </contour>
  </outline>
</glyph>
<glyph name="Z" format="1">
  <advance width="704"/>
  <unicode hex="005A"/>
  <outline>
    <contour>
      <point x="346" y="229" type="move" name="top"/>
    </contour>
    <contour>
      <point x="45" y="7" type="line"/>
      <point x="45" y="0" type="line"/>
      <point x="644" y="0" type="line"/>
      <point x="654" y="211" type="line"/>
      <point x="643" y="211" type="line"/>
      <point x="621" y="103"/>
      <point x="536" y="20"/>
      <point x="423" y="20" type="curve" smooth="yes"/>
      <point x="175" y="20" type="line"/>
      <point x="607" y="665" type="line"/>
      <point x="607" y="676" type="line"/>
      <point x="77" y="676" type="line"/>
      <point x="60" y="499" type="line"/>
      <point x="73" y="499" type="line"/>
      <point x="97" y="584"/>
      <point x="150" y="656"/>
      <point x="277" y="656" type="curve" smooth="yes"/>
      <point x="487" y="656" type="line"/>
    </contour>
  </outline>
</glyph>
<glyph name="bracketleft" format="1">
  <advance width="272"/>
  <unicode hex="005B"/>
  <outline>
    <contour>
      <point x="212.0" y="670.0" type="line"/>
      <point x="212.0" y="642.0" type="line"/>
      <point x="123.0" y="642.0" type="line"/>
      <point x="123.0" y="-101.0" type="line"/>
      <point x="222.0" y="-101.0" type="line"/>
      <point x="222.0" y="-130.0" type="line"/>
      <point x="58.0" y="-130.0" type="line"/>
      <point x="58.0" y="670.0" type="line"/>
    </contour>
  </outline>
</glyph>
<glyph name="bracketright" format="1">
  <advance width="272"/>
  <unicode hex="005D"/>
  <outline>
    <contour>
      <point x="33" y="670" type="line"/>
      <point x="33" y="642" type="line"/>
      <point x="122" y="642" type="line"/>
      <point x="122" y="-101" type="line"/>
      <point x="22" y="-101" type="line"/>
      <point x="22" y="-130" type="line"/>
      <point x="187" y="-130" type="line"/>
      <point x="187" y="670" type="line"/>
    </contour>
  </outline>
</glyph>
<glyph name="underscore" format="1">
  <advance width="450"/>
  <unicode hex="005F"/>
  <outline>
    <contour>
      <point x="0.0" y="-70.0" type="line"/>
      <point x="0.0" y="-112.0" type="line"/>
      <point x="450.0" y="-112.0" type="line"/>
      <point x="450.0" y="-70.0" type="line"/>
    </contour>
  </outline>
</glyph>
<glyph name="grave" format="1">
  <advance width="344"/>
  <unicode hex="0060"/>
  <outline>
    <contour>
      <point x="205" y="0" type="move" name="_top"/>
    </contour>
    <contour>
      <point x="250" y="495" type="line"/>
      <point x="287" y="495" type="line"/>
      <point x="130" y="648" type="line" smooth="yes"/>
      <point x="123" y="655"/>
      <point x="113" y="661"/>
      <point x="102" y="661" type="curve" smooth="yes"/>
      <point x="81" y="661"/>
      <point x="66" y="645"/>
      <point x="66" y="624" type="curve" smooth="yes"/>
      <point x="66" y="607"/>
      <point x="77" y="597"/>
      <point x="90" y="589" type="curve" smooth="yes"/>
    </contour>
  </outline>
</glyph>
<glyph name="a" format="1">
  <advance width="447"/>
  <unicode hex="0061"/>
  <outline>
    <contour>
      <point x="213" y="0" type="move" name="top"/>
    </contour>
    <contour>
      <point x="39" y="95" type="curve" smooth="yes"/>
      <point x="39" y="60"/>
      <point x="58" y="-10"/>
      <point x="165" y="-10" type="curve" smooth="yes"/>
      <point x="242" y="-10"/>
      <point x="254" y="5"/>
      <point x="277" y="40" type="curve"/>
      <point x="289" y="25"/>
      <point x="317" y="-8"/>
      <point x="374" y="-8" type="curve" smooth="yes"/>
      <point x="439" y="-8"/>
      <point x="449" y="19"/>
      <point x="456" y="38" type="curve"/>
      <point x="448" y="42" type="line"/>
      <point x="439" y="26"/>
      <point x="431" y="13"/>
      <point x="401" y="13" type="curve"/>
      <point x="362" y="13"/>
      <point x="360" y="49"/>
      <point x="360" y="101" type="curve" smooth="yes"/>
      <point x="360" y="314" type="line" smooth="yes"/>
      <point x="360" y="408"/>
      <point x="284" y="431"/>
      <point x="201" y="431" type="curve" smooth="yes"/>
      <point x="147" y="431"/>
      <point x="61" y="406"/>
      <point x="61" y="356" type="curve" smooth="yes"/>
      <point x="61" y="334"/>
      <point x="76" y="317"/>
      <point x="98" y="317" type="curve" smooth="yes"/>
      <point x="120" y="317"/>
      <point x="134" y="334"/>
      <point x="137" y="354" type="curve" smooth="yes"/>
      <point x="145" y="406"/>
      <point x="167" y="415"/>
      <point x="199" y="415" type="curve" smooth="yes"/>
      <point x="280" y="415"/>
      <point x="282" y="357"/>
      <point x="282" y="296" type="curve" smooth="yes"/>
      <point x="282" y="255"/>
      <point x="245" y="222"/>
      <point x="200" y="216" type="curve" smooth="yes"/>
      <point x="89" y="202"/>
      <point x="39" y="177"/>
    </contour>
    <contour>
      <point x="188" y="6" type="curve" smooth="yes"/>
      <point x="122" y="6"/>
      <point x="117" y="51"/>
      <point x="117" y="91" type="curve" smooth="yes"/>
      <point x="117" y="166"/>
      <point x="221" y="198"/>
      <point x="282" y="236" type="curve"/>
      <point x="282" y="145" type="line" smooth="yes"/>
      <point x="282" y="68"/>
      <point x="270" y="6"/>
    </contour>
  </outline>
</glyph>
<glyph name="b" format="1">
  <advance width="519"/>
  <unicode hex="0062"/>
  <outline>
    <contour>
      <point x="127" y="14" type="curve" smooth="yes"/>
      <point x="146" y="14"/>
      <point x="204" y="-14"/>
      <point x="270" y="-14" type="curve" smooth="yes"/>
      <point x="414" y="-14"/>
      <point x="484" y="89"/>
      <point x="484" y="210" type="curve" smooth="yes"/>
      <point x="484" y="331"/>
      <point x="394" y="434"/>
      <point x="270" y="434" type="curve" smooth="yes"/>
      <point x="206" y="434"/>
      <point x="159" y="397"/>
      <point x="154" y="392" type="curve"/>
      <point x="154" y="691" type="line"/>
      <point x="145" y="691" type="line"/>
      <point x="145" y="691"/>
      <point x="40" y="674"/>
      <point x="15" y="672" type="curve"/>
      <point x="15" y="662" type="line"/>
      <point x="86" y="660"/>
      <point x="88" y="644"/>
      <point x="88" y="552" type="curve" smooth="yes"/>
      <point x="88" y="-12" type="line"/>
      <point x="101" y="-12" type="line"/>
      <point x="105" y="2"/>
      <point x="109" y="14"/>
    </contour>
    <contour>
      <point x="152" y="210" type="curve" smooth="yes"/>
      <point x="152" y="345"/>
      <point x="162" y="418"/>
      <point x="257" y="418" type="curve" smooth="yes"/>
      <point x="357" y="418"/>
      <point x="404" y="325"/>
      <point x="404" y="210" type="curve" smooth="yes"/>
      <point x="404" y="106"/>
      <point x="362" y="2"/>
      <point x="257" y="2" type="curve" smooth="yes"/>
      <point x="155" y="2"/>
      <point x="152" y="75"/>
    </contour>
  </outline>
</glyph>
<glyph name="c" format="1">
  <advance width="417"/>
  <unicode hex="0063"/>
  <outline>
    <contour>
      <point x="245" y="434" type="curve" smooth="yes"/>
      <point x="120" y="434"/>
      <point x="35" y="331"/>
      <point x="35" y="210" type="curve" smooth="yes"/>
      <point x="35" y="79"/>
      <point x="109" y="-14"/>
      <point x="254" y="-14" type="curve" smooth="yes"/>
      <point x="365" y="-14"/>
      <point x="403" y="37"/>
      <point x="412" y="100" type="curve"/>
      <point x="401" y="100" type="line"/>
      <point x="388" y="51"/>
      <point x="365" y="13"/>
      <point x="277" y="13" type="curve" smooth="yes"/>
      <point x="156" y="13"/>
      <point x="115" y="95"/>
      <point x="115" y="210" type="curve" smooth="yes"/>
      <point x="115" y="325"/>
      <point x="163" y="418"/>
      <point x="245" y="418" type="curve" smooth="yes"/>
      <point x="301" y="418"/>
      <point x="310" y="405"/>
      <point x="320" y="354" type="curve" smooth="yes"/>
      <point x="324" y="334"/>
      <point x="340" y="320"/>
      <point x="362" y="320" type="curve" smooth="yes"/>
      <point x="384" y="320"/>
      <point x="398" y="335"/>
      <point x="398" y="357" type="curve" smooth="yes"/>
      <point x="398" y="414"/>
      <point x="302" y="434"/>
    </contour>
  </outline>
</glyph>
<glyph name="d" format="1">
  <advance width="535"/>
  <unicode hex="0064"/>
  <outline>
    <contour>
      <point x="377" y="379" type="line"/>
      <point x="362" y="398"/>
      <point x="330" y="434"/>
      <point x="249" y="434" type="curve" smooth="yes"/>
      <point x="125" y="434"/>
      <point x="35" y="331"/>
      <point x="35" y="210" type="curve" smooth="yes"/>
      <point x="35" y="89"/>
      <point x="105" y="-14"/>
      <point x="249" y="-14" type="curve" smooth="yes"/>
      <point x="315" y="-14"/>
      <point x="347" y="9"/>
      <point x="372" y="42" type="curve"/>
      <point x="378" y="-15" type="line"/>
      <point x="386" y="-15" type="line"/>
      <point x="453" y="3"/>
      <point x="513" y="4"/>
      <point x="513" y="4" type="curve"/>
      <point x="513" y="17" type="line"/>
      <point x="453" y="17"/>
      <point x="443" y="33"/>
      <point x="443" y="102" type="curve" smooth="yes"/>
      <point x="443" y="691" type="line"/>
      <point x="433" y="691" type="line"/>
      <point x="433" y="691"/>
      <point x="329" y="674"/>
      <point x="304" y="672" type="curve"/>
      <point x="304" y="662" type="line"/>
      <point x="375" y="660"/>
      <point x="377" y="644"/>
      <point x="377" y="552" type="curve" smooth="yes"/>
    </contour>
    <contour>
      <point x="381" y="210" type="curve" smooth="yes"/>
      <point x="381" y="75"/>
      <point x="353" y="2"/>
      <point x="251" y="2" type="curve" smooth="yes"/>
      <point x="146" y="2"/>
      <point x="115" y="106"/>
      <point x="115" y="210" type="curve" smooth="yes"/>
      <point x="115" y="325"/>
      <point x="151" y="418"/>
      <point x="251" y="418" type="curve" smooth="yes"/>
      <point x="350" y="418"/>
      <point x="381" y="345"/>
    </contour>
  </outline>
</glyph>
<glyph name="e" format="1">
  <advance width="441"/>
  <unicode hex="0065"/>
  <outline>
    <contour>
      <point x="234" y="0" type="move" name="top"/>
    </contour>
    <contour>
      <point x="416" y="284" type="line"/>
      <point x="416" y="394"/>
      <point x="306" y="434"/>
      <point x="236" y="434" type="curve" smooth="yes"/>
      <point x="111" y="434"/>
      <point x="30" y="331"/>
      <point x="30" y="210" type="curve" smooth="yes"/>
      <point x="30" y="79"/>
      <point x="104" y="-14"/>
      <point x="249" y="-14" type="curve" smooth="yes"/>
      <point x="357" y="-14"/>
      <point x="408" y="37"/>
      <point x="422" y="100" type="curve"/>
      <point x="411" y="100" type="line"/>
      <point x="390" y="50"/>
      <point x="359" y="13"/>
      <point x="272" y="13" type="curve" smooth="yes"/>
      <point x="151" y="13"/>
      <point x="110" y="94"/>
      <point x="110" y="209" type="curve" smooth="yes"/>
      <point x="110" y="235"/>
      <point x="111" y="261"/>
      <point x="113" y="284" type="curve"/>
    </contour>
    <contour>
      <point x="236" y="418" type="curve" smooth="yes"/>
      <point x="308" y="418"/>
      <point x="340" y="380"/>
      <point x="340" y="300" type="curve"/>
      <point x="115" y="300" type="line"/>
      <point x="125" y="371"/>
      <point x="156" y="418"/>
    </contour>
  </outline>
</glyph>
<glyph name="f" format="1">
  <advance width="284"/>
  <unicode hex="0066"/>
  <outline>
    <contour>
      <point x="30" y="401" type="line"/>
      <point x="109" y="401" type="line"/>
      <point x="109" y="133" type="line" smooth="yes"/>
      <point x="109" y="45"/>
      <point x="105" y="13"/>
      <point x="41" y="13" type="curve"/>
      <point x="41" y="0" type="line"/>
      <point x="241" y="0" type="line"/>
      <point x="241" y="13" type="line"/>
      <point x="177" y="13"/>
      <point x="175" y="40"/>
      <point x="175" y="133" type="curve" smooth="yes"/>
      <point x="175" y="401" type="line"/>
      <point x="288" y="401" type="line"/>
      <point x="288" y="421" type="line"/>
      <point x="175" y="421" type="line"/>
      <point x="175" y="549" type="line" smooth="yes"/>
      <point x="175" y="682"/>
      <point x="221" y="686"/>
      <point x="240" y="686" type="curve" smooth="yes"/>
      <point x="259" y="686"/>
      <point x="270" y="685"/>
      <point x="292" y="639" type="curve" smooth="yes"/>
      <point x="302" y="618"/>
      <point x="306" y="602"/>
      <point x="328" y="602" type="curve" smooth="yes"/>
      <point x="349" y="602"/>
      <point x="359" y="616"/>
      <point x="359" y="633" type="curve" smooth="yes"/>
      <point x="359" y="682"/>
      <point x="272" y="694"/>
      <point x="240" y="694" type="curve" smooth="yes"/>
      <point x="109" y="694"/>
      <point x="109" y="597"/>
      <point x="109" y="549" type="curve" smooth="yes"/>
      <point x="109" y="421" type="line"/>
      <point x="30" y="421" type="line"/>
    </contour>
  </outline>
</glyph>
<glyph name="g" format="1">
  <advance width="431"/>
  <unicode hex="0067"/>
  <outline>
    <contour>
      <point x="358.0" y="410.0" type="curve" smooth="yes"/>
      <point x="369.0" y="410.0"/>
      <point x="377.0" y="408.0"/>
      <point x="386.0" y="393.0" type="curve" smooth="yes"/>
      <point x="394.0" y="380.0"/>
      <point x="406.0" y="369.0"/>
      <point x="422.0" y="369.0" type="curve" smooth="yes"/>
      <point x="439.0" y="369.0"/>
      <point x="448.0" y="380.0"/>
      <point x="448.0" y="395.0" type="curve" smooth="yes"/>
      <point x="448.0" y="420.0"/>
      <point x="423.0" y="434.0"/>
      <point x="390.0" y="434.0" type="curve" smooth="yes"/>
      <point x="358.0" y="434.0"/>
      <point x="333.0" y="423.0"/>
      <point x="302.0" y="397.0" type="curve"/>
      <point x="274.0" y="420.0"/>
      <point x="241.0" y="434.0"/>
      <point x="205.0" y="434.0" type="curve" smooth="yes"/>
      <point x="126.0" y="434.0"/>
      <point x="53.0" y="365.0"/>
      <point x="53.0" y="286.0" type="curve" smooth="yes"/>
      <point x="53.0" y="227.0"/>
      <point x="94.0" y="179.0"/>
      <point x="143.0" y="161.0" type="curve"/>
      <point x="67.0" y="149.0"/>
      <point x="54.0" y="105.0"/>
      <point x="54.0" y="82.0" type="curve" smooth="yes"/>
      <point x="54.0" y="41.0"/>
      <point x="95.0" y="7.0"/>
      <point x="156.0" y="7.0" type="curve" smooth="yes"/>
      <point x="229.0" y="7.0" type="line" smooth="yes"/>
      <point x="352.0" y="7.0"/>
      <point x="352.0" y="-60.0"/>
      <point x="352.0" y="-77.0" type="curve" smooth="yes"/>
      <point x="352.0" y="-86.0"/>
      <point x="343.0" y="-186.0"/>
      <point x="206.0" y="-186.0" type="curve" smooth="yes"/>
      <point x="85.0" y="-186.0"/>
      <point x="54.0" y="-125.0"/>
      <point x="54.0" y="-80.0" type="curve" smooth="yes"/>
      <point x="54.0" y="-43.0"/>
      <point x="76.0" y="-30.0"/>
      <point x="94.0" y="-30.0" type="curve" smooth="yes"/>
      <point x="122.0" y="-30.0"/>
      <point x="133.0" y="-45.0"/>
      <point x="133.0" y="-55.0" type="curve"/>
      <point x="139.0" y="-52.0"/>
      <point x="144.0" y="-49.0"/>
      <point x="144.0" y="-35.0" type="curve" smooth="yes"/>
      <point x="144.0" y="-19.0"/>
      <point x="125.0" y="-3.0"/>
      <point x="91.0" y="-3.0" type="curve" smooth="yes"/>
      <point x="71.0" y="-3.0"/>
      <point x="25.0" y="-17.0"/>
      <point x="25.0" y="-84.0" type="curve" smooth="yes"/>
      <point x="25.0" y="-165.0"/>
      <point x="114" y="-200"/>
      <point x="206.0" y="-200.0" type="curve" smooth="yes"/>
      <point x="260" y="-200"/>
      <point x="416.0" y="-177.0"/>
      <point x="416.0" y="-54.0" type="curve" smooth="yes"/>
      <point x="416.0" y="21.0"/>
      <point x="353.0" y="70.0"/>
      <point x="265.0" y="70.0" type="curve" smooth="yes"/>
      <point x="173.0" y="70.0" type="line" smooth="yes"/>
      <point x="140.0" y="70.0"/>
      <point x="90.0" y="72.0"/>
      <point x="90.0" y="107.0" type="curve" smooth="yes"/>
      <point x="90.0" y="139.0"/>
      <point x="156.0" y="154.0"/>
      <point x="175.0" y="151.0" type="curve"/>
      <point x="181.0" y="150.0"/>
      <point x="193.0" y="149.0"/>
      <point x="205.0" y="149.0" type="curve" smooth="yes"/>
      <point x="284.0" y="149.0"/>
      <point x="358.0" y="207.0"/>
      <point x="358.0" y="286.0" type="curve" smooth="yes"/>
      <point x="358.0" y="326.0"/>
      <point x="340.0" y="361.0"/>
      <point x="312.0" y="389.0" type="curve"/>
      <point x="322.0" y="400.0"/>
      <point x="346.0" y="410.0"/>
    </contour>
    <contour>
      <point x="128.0" y="291.0" type="curve" smooth="yes"/>
      <point x="128.0" y="366.0"/>
      <point x="147.0" y="418.0"/>
      <point x="206.0" y="418.0" type="curve" smooth="yes"/>
      <point x="265.0" y="418.0"/>
      <point x="288.0" y="366.0"/>
      <point x="288.0" y="291.0" type="curve" smooth="yes"/>
      <point x="288.0" y="216.0"/>
      <point x="265.0" y="165.0"/>
      <point x="206.0" y="165.0" type="curve" smooth="yes"/>
      <point x="147.0" y="165.0"/>
      <point x="128.0" y="216.0"/>
    </contour>
  </outline>
</glyph>
<glyph name="h" format="1">
  <advance width="551"/>
  <unicode hex="0068"/>
  <outline>
    <contour>
      <point x="104" y="133" type="line"/>
      <point x="104" y="45"/>
      <point x="100" y="13"/>
      <point x="36" y="13" type="curve"/>
      <point x="36" y="0" type="line"/>
      <point x="236" y="0" type="line"/>
      <point x="236" y="13" type="line"/>
      <point x="172" y="13"/>
      <point x="170" y="40"/>
      <point x="170" y="133" type="curve" smooth="yes"/>
      <point x="170" y="254" type="line" smooth="yes"/>
      <point x="170" y="304"/>
      <point x="173" y="338"/>
      <point x="187" y="360" type="curve" smooth="yes"/>
      <point x="206" y="389"/>
      <point x="244" y="418"/>
      <point x="290" y="418" type="curve" smooth="yes"/>
      <point x="351" y="418"/>
      <point x="389" y="389"/>
      <point x="389" y="304" type="curve" smooth="yes"/>
      <point x="389" y="133" type="line" smooth="yes"/>
      <point x="389" y="45"/>
      <point x="385" y="13"/>
      <point x="321" y="13" type="curve"/>
      <point x="321" y="0" type="line"/>
      <point x="521" y="0" type="line"/>
      <point x="521" y="13" type="line"/>
      <point x="457" y="13"/>
      <point x="455" y="40"/>
      <point x="455" y="133" type="curve" smooth="yes"/>
      <point x="455" y="304" type="line" smooth="yes"/>
      <point x="455" y="419"/>
      <point x="397" y="434"/>
      <point x="322" y="434" type="curve" smooth="yes"/>
      <point x="244" y="434"/>
      <point x="198" y="407"/>
      <point x="170" y="368" type="curve"/>
      <point x="170" y="691" type="line"/>
      <point x="161" y="691" type="line"/>
      <point x="161" y="691"/>
      <point x="55" y="674"/>
      <point x="30" y="672" type="curve"/>
      <point x="30" y="662" type="line"/>
      <point x="96" y="660"/>
      <point x="104" y="648"/>
      <point x="104" y="565" type="curve" smooth="yes"/>
    </contour>
  </outline>
</glyph>
<glyph name="i" format="1">
  <advance width="275"/>
  <unicode hex="0069"/>
  <outline>
    <contour>
      <point x="109" y="133" type="line"/>
      <point x="109" y="45"/>
      <point x="107" y="13"/>
      <point x="43" y="13" type="curve"/>
      <point x="43" y="0" type="line"/>
      <point x="240" y="0" type="line"/>
      <point x="240" y="13" type="line"/>
      <point x="176" y="13"/>
      <point x="175" y="40"/>
      <point x="175" y="133" type="curve" smooth="yes"/>
      <point x="175" y="437" type="line"/>
      <point x="165" y="437" type="line"/>
      <point x="165" y="437"/>
      <point x="62" y="420"/>
      <point x="37" y="418" type="curve"/>
      <point x="37" y="408" type="line"/>
      <point x="103" y="406"/>
      <point x="109" y="394"/>
      <point x="109" y="311" type="curve" smooth="yes"/>
    </contour>
    <contour>
      <point x="94" y="647" type="curve" smooth="yes"/>
      <point x="94" y="623"/>
      <point x="112" y="605"/>
      <point x="136" y="605" type="curve" smooth="yes"/>
      <point x="160" y="605"/>
      <point x="179" y="623"/>
      <point x="179" y="647" type="curve" smooth="yes"/>
      <point x="179" y="671"/>
      <point x="160" y="690"/>
      <point x="136" y="690" type="curve" smooth="yes"/>
      <point x="112" y="690"/>
      <point x="94" y="671"/>
    </contour>
  </outline>
</glyph>
<glyph name="j" format="1">
  <advance width="246"/>
  <unicode hex="006A"/>
  <outline>
    <contour>
      <point x="91" y="647" type="curve" smooth="yes"/>
      <point x="91" y="623"/>
      <point x="109" y="605"/>
      <point x="133" y="605" type="curve" smooth="yes"/>
      <point x="157" y="605"/>
      <point x="176" y="623"/>
      <point x="176" y="647" type="curve" smooth="yes"/>
      <point x="176" y="671"/>
      <point x="157" y="690"/>
      <point x="133" y="690" type="curve" smooth="yes"/>
      <point x="109" y="690"/>
      <point x="91" y="671"/>
    </contour>
    <contour>
      <point x="104" y="-33" type="line"/>
      <point x="104" y="-137"/>
      <point x="97" y="-179"/>
      <point x="35" y="-179" type="curve" smooth="yes"/>
      <point x="-36" y="-179"/>
      <point x="-1" y="-92"/>
      <point x="-53" y="-92" type="curve" smooth="yes"/>
      <point x="-68" y="-92"/>
      <point x="-80" y="-101"/>
      <point x="-80" y="-123" type="curve" smooth="yes"/>
      <point x="-80" y="-172"/>
      <point x="-6" y="-190"/>
      <point x="26" y="-190" type="curve" smooth="yes"/>
      <point x="96" y="-190"/>
      <point x="170" y="-157"/>
      <point x="170" y="2" type="curve"/>
      <point x="170" y="437" type="line"/>
      <point x="160" y="437" type="line"/>
      <point x="160" y="437"/>
      <point x="60" y="420"/>
      <point x="35" y="418" type="curve"/>
      <point x="35" y="408" type="line"/>
      <point x="101" y="406"/>
      <point x="104" y="386"/>
      <point x="104" y="311" type="curve" smooth="yes"/>
    </contour>
  </outline>
</glyph>
<glyph name="k" format="1">
  <advance width="477"/>
  <unicode hex="006B"/>
  <outline>
    <contour>
      <point x="95" y="133" type="line"/>
      <point x="95" y="45"/>
      <point x="91" y="13"/>
      <point x="27" y="13" type="curve"/>
      <point x="27" y="0" type="line"/>
      <point x="227" y="0" type="line"/>
      <point x="227" y="13" type="line"/>
      <point x="163" y="13"/>
      <point x="161" y="40"/>
      <point x="161" y="133" type="curve" smooth="yes"/>
      <point x="161" y="186" type="line"/>
      <point x="195" y="218" type="line"/>
      <point x="269" y="139" type="line" smooth="yes"/>
      <point x="317" y="87"/>
      <point x="340" y="69"/>
      <point x="340" y="42" type="curve" smooth="yes"/>
      <point x="340" y="15"/>
      <point x="323" y="13"/>
      <point x="292" y="13" type="curve" smooth="yes"/>
      <point x="284" y="13" type="line"/>
      <point x="284" y="0" type="line"/>
      <point x="542" y="0" type="line"/>
      <point x="542" y="13" type="line"/>
      <point x="516" y="13" type="line" smooth="yes"/>
      <point x="477" y="13"/>
      <point x="431" y="58"/>
      <point x="409" y="82" type="curve" smooth="yes"/>
      <point x="239" y="260" type="line"/>
      <point x="318" y="335" type="line" smooth="yes"/>
      <point x="351" y="366"/>
      <point x="402" y="408"/>
      <point x="440" y="408" type="curve" smooth="yes"/>
      <point x="448" y="408" type="line"/>
      <point x="448" y="421" type="line"/>
      <point x="253" y="421" type="line"/>
      <point x="253" y="408" type="line"/>
      <point x="261" y="408" type="line" smooth="yes"/>
      <point x="295" y="408"/>
      <point x="309" y="389"/>
      <point x="309" y="371" type="curve" smooth="yes"/>
      <point x="309" y="355"/>
      <point x="296" y="334"/>
      <point x="270" y="310" type="curve" smooth="yes"/>
      <point x="161" y="206" type="line"/>
      <point x="161" y="691" type="line"/>
      <point x="152" y="691" type="line"/>
      <point x="152" y="691"/>
      <point x="47" y="674"/>
      <point x="22" y="672" type="curve"/>
      <point x="22" y="662" type="line"/>
      <point x="88" y="662"/>
      <point x="95" y="646"/>
      <point x="95" y="566" type="curve" smooth="yes"/>
    </contour>
  </outline>
</glyph>
<glyph name="l" format="1">
  <advance width="257"/>
  <unicode hex="006c"/>
  <outline>
    <contour>
      <point x="94" y="133" type="line" smooth="yes"/>
      <point x="94" y="45"/>
      <point x="90" y="13"/>
      <point x="26" y="13" type="curve" smooth="no"/>
      <point x="26" y="0" type="line" smooth="no"/>
      <point x="226" y="0" type="line" smooth="no"/>
      <point x="226" y="13" type="line" smooth="no"/>
      <point x="162" y="13"/>
      <point x="160" y="40"/>
      <point x="160" y="133" type="curve" smooth="yes"/>
      <point x="160" y="691" type="line" smooth="no"/>
      <point x="151" y="691" type="line" smooth="no"/>
      <point x="151" y="691"/>
      <point x="46" y="674"/>
      <point x="21" y="672" type="curve" smooth="no"/>
      <point x="21" y="662" type="line" smooth="no"/>
      <point x="87" y="660"/>
      <point x="94" y="648"/>
      <point x="94" y="565" type="curve" smooth="yes"/>
    </contour>
  </outline>
</glyph>
<glyph name="m" format="1">
  <advance width="839"/>
  <unicode hex="006D"/>
  <outline>
    <contour>
      <point x="108" y="133" type="line"/>
      <point x="108" y="45"/>
      <point x="104" y="13"/>
      <point x="40" y="13" type="curve"/>
      <point x="40" y="0" type="line"/>
      <point x="240" y="0" type="line"/>
      <point x="240" y="13" type="line"/>
      <point x="176" y="13"/>
      <point x="174" y="40"/>
      <point x="174" y="133" type="curve" smooth="yes"/>
      <point x="174" y="254" type="line"/>
      <point x="174" y="304"/>
      <point x="176" y="337"/>
      <point x="191" y="360" type="curve" smooth="yes"/>
      <point x="210" y="389"/>
      <point x="248" y="418"/>
      <point x="294" y="418" type="curve" smooth="yes"/>
      <point x="355" y="418"/>
      <point x="393" y="389"/>
      <point x="393" y="304" type="curve" smooth="yes"/>
      <point x="393" y="133" type="line" smooth="yes"/>
      <point x="393" y="45"/>
      <point x="389" y="13"/>
      <point x="325" y="13" type="curve"/>
      <point x="325" y="0" type="line"/>
      <point x="524" y="0" type="line"/>
      <point x="524" y="13" type="line"/>
      <point x="460" y="13"/>
      <point x="459" y="40"/>
      <point x="459" y="133" type="curve" smooth="yes"/>
      <point x="459" y="254" type="line"/>
      <point x="459" y="304"/>
      <point x="460" y="333"/>
      <point x="473" y="356" type="curve" smooth="yes"/>
      <point x="490" y="386"/>
      <point x="532" y="418"/>
      <point x="578" y="418" type="curve" smooth="yes"/>
      <point x="639" y="418"/>
      <point x="677" y="389"/>
      <point x="677" y="304" type="curve" smooth="yes"/>
      <point x="677" y="133" type="line" smooth="yes"/>
      <point x="677" y="45"/>
      <point x="673" y="13"/>
      <point x="609" y="13" type="curve"/>
      <point x="609" y="0" type="line"/>
      <point x="809" y="0" type="line"/>
      <point x="809" y="13" type="line"/>
      <point x="745" y="13"/>
      <point x="743" y="40"/>
      <point x="743" y="133" type="curve" smooth="yes"/>
      <point x="743" y="304" type="line" smooth="yes"/>
      <point x="743" y="420"/>
      <point x="683" y="434"/>
      <point x="605" y="434" type="curve" smooth="yes"/>
      <point x="515" y="434"/>
      <point x="478" y="395"/>
      <point x="452" y="359" type="curve"/>
      <point x="438" y="425"/>
      <point x="385" y="434"/>
      <point x="324" y="434" type="curve" smooth="yes"/>
      <point x="246" y="434"/>
      <point x="202" y="406"/>
      <point x="174" y="368" type="curve"/>
      <point x="169" y="434" type="line"/>
      <point x="162" y="437" type="line"/>
      <point x="162" y="437"/>
      <point x="97" y="425"/>
      <point x="35" y="418" type="curve"/>
      <point x="35" y="408" type="line"/>
      <point x="105" y="405"/>
      <point x="108" y="397"/>
      <point x="108" y="306" type="curve" smooth="yes"/>
    </contour>
  </outline>
</glyph>
<glyph name="n" format="1">
  <advance width="555"/>
  <unicode hex="006E"/>
  <outline>
    <contour>
      <point x="108" y="133" type="line"/>
      <point x="108" y="45"/>
      <point x="104" y="13"/>
      <point x="40" y="13" type="curve"/>
      <point x="40" y="0" type="line"/>
      <point x="240" y="0" type="line"/>
      <point x="240" y="13" type="line"/>
      <point x="176" y="13"/>
      <point x="174" y="40"/>
      <point x="174" y="133" type="curve" smooth="yes"/>
      <point x="174" y="257" type="line" smooth="yes"/>
      <point x="174" y="307"/>
      <point x="176" y="337"/>
      <point x="191" y="360" type="curve" smooth="yes"/>
      <point x="210" y="389"/>
      <point x="248" y="418"/>
      <point x="294" y="418" type="curve" smooth="yes"/>
      <point x="355" y="418"/>
      <point x="393" y="389"/>
      <point x="393" y="304" type="curve" smooth="yes"/>
      <point x="393" y="133" type="line" smooth="yes"/>
      <point x="393" y="45"/>
      <point x="389" y="13"/>
      <point x="325" y="13" type="curve"/>
      <point x="325" y="0" type="line"/>
      <point x="525" y="0" type="line"/>
      <point x="525" y="13" type="line"/>
      <point x="461" y="13"/>
      <point x="459" y="40"/>
      <point x="459" y="133" type="curve" smooth="yes"/>
      <point x="459" y="304" type="line" smooth="yes"/>
      <point x="459" y="420"/>
      <point x="401" y="434"/>
      <point x="326" y="434" type="curve" smooth="yes"/>
      <point x="243" y="434"/>
      <point x="202" y="405"/>
      <point x="174" y="368" type="curve"/>
      <point x="169" y="434" type="line"/>
      <point x="162" y="437" type="line"/>
      <point x="162" y="437"/>
      <point x="97" y="425"/>
      <point x="35" y="418" type="curve"/>
      <point x="35" y="408" type="line"/>
      <point x="105" y="405"/>
      <point x="108" y="395"/>
      <point x="108" y="307" type="curve" smooth="yes"/>
    </contour>
  </outline>
</glyph>
<glyph name="o" format="1">
  <advance width="524"/>
  <unicode hex="006F"/>
  <outline>
    <contour>
      <point x="262" y="0" type="move" name="top"/>
    </contour>
    <contour>
      <point x="35" y="210" type="curve" smooth="yes"/>
      <point x="35" y="89"/>
      <point x="137" y="-14"/>
      <point x="262" y="-14" type="curve" smooth="yes"/>
      <point x="386" y="-14"/>
      <point x="489" y="89"/>
      <point x="489" y="210" type="curve" smooth="yes"/>
      <point x="489" y="331"/>
      <point x="386" y="434"/>
      <point x="262" y="434" type="curve" smooth="yes"/>
      <point x="137" y="434"/>
      <point x="35" y="331"/>
    </contour>
    <contour>
      <point x="115" y="210" type="curve" smooth="yes"/>
      <point x="115" y="325"/>
      <point x="180" y="418"/>
      <point x="262" y="418" type="curve" smooth="yes"/>
      <point x="345" y="418"/>
      <point x="409" y="325"/>
      <point x="409" y="210" type="curve" smooth="yes"/>
      <point x="409" y="95"/>
      <point x="345" y="2"/>
      <point x="262" y="2" type="curve" smooth="yes"/>
      <point x="180" y="2"/>
      <point x="115" y="95"/>
    </contour>
  </outline>
</glyph>
<glyph name="p" format="1">
  <advance width="549"/>
  <unicode hex="0070"/>
  <outline>
    <contour>
      <point x="159" y="210" type="curve"/>
      <point x="159" y="335"/>
      <point x="195" y="418"/>
      <point x="275" y="418" type="curve" smooth="yes"/>
      <point x="375" y="418"/>
      <point x="422" y="325"/>
      <point x="422" y="210" type="curve" smooth="yes"/>
      <point x="422" y="106"/>
      <point x="380" y="2"/>
      <point x="275" y="2" type="curve" smooth="yes"/>
      <point x="178" y="2"/>
      <point x="159" y="75"/>
    </contour>
    <contour>
      <point x="163" y="437" type="line"/>
      <point x="153" y="437" type="line"/>
      <point x="153" y="437"/>
      <point x="50" y="420"/>
      <point x="25" y="418" type="curve"/>
      <point x="25" y="408" type="line"/>
      <point x="91" y="406"/>
      <point x="97" y="394"/>
      <point x="97" y="311" type="curve"/>
      <point x="97" y="-71" type="line" smooth="yes"/>
      <point x="97" y="-159"/>
      <point x="94" y="-191"/>
      <point x="23" y="-191" type="curve"/>
      <point x="23" y="-204" type="line"/>
      <point x="232" y="-204" type="line"/>
      <point x="232" y="-191" type="line"/>
      <point x="166" y="-191"/>
      <point x="163" y="-155"/>
      <point x="163" y="39" type="curve"/>
      <point x="193" y="8"/>
      <point x="221" y="-14"/>
      <point x="288" y="-14" type="curve" smooth="yes"/>
      <point x="432" y="-14"/>
      <point x="502" y="89"/>
      <point x="502" y="210" type="curve" smooth="yes"/>
      <point x="502" y="331"/>
      <point x="412" y="434"/>
      <point x="288" y="434" type="curve" smooth="yes"/>
      <point x="211" y="434"/>
      <point x="181" y="397"/>
      <point x="165" y="377" type="curve"/>
    </contour>
  </outline>
</glyph>
<glyph name="q" format="1">
  <advance width="520"/>
  <unicode hex="0071"/>
  <outline>
    <contour>
      <point x="379" y="396" type="curve" smooth="yes"/>
      <point x="351" y="396"/>
      <point x="334" y="434"/>
      <point x="243" y="434" type="curve" smooth="yes"/>
      <point x="119" y="434"/>
      <point x="29" y="331"/>
      <point x="29" y="210" type="curve" smooth="yes"/>
      <point x="29" y="89"/>
      <point x="114" y="-22"/>
      <point x="252" y="-22" type="curve" smooth="yes"/>
      <point x="311" y="-22"/>
      <point x="349" y="7"/>
      <point x="368" y="28" type="curve"/>
      <point x="368" y="-164"/>
      <point x="365" y="-191"/>
      <point x="299" y="-191" type="curve"/>
      <point x="299" y="-204" type="line"/>
      <point x="508" y="-204" type="line"/>
      <point x="508" y="-191" type="line"/>
      <point x="437" y="-191"/>
      <point x="434" y="-159"/>
      <point x="434" y="-71" type="curve"/>
      <point x="434" y="437" type="line"/>
      <point x="420" y="437" type="line"/>
      <point x="417" y="423"/>
      <point x="409" y="396"/>
    </contour>
    <contour>
      <point x="372" y="210" type="curve" smooth="yes"/>
      <point x="372" y="75"/>
      <point x="359" y="-6"/>
      <point x="256" y="-6" type="curve" smooth="yes"/>
      <point x="151" y="-6"/>
      <point x="109" y="106"/>
      <point x="109" y="210" type="curve" smooth="yes"/>
      <point x="109" y="325"/>
      <point x="156" y="418"/>
      <point x="256" y="418" type="curve" smooth="yes"/>
      <point x="355" y="418"/>
      <point x="372" y="335"/>
    </contour>
  </outline>
</glyph>
<glyph name="r" format="1">
  <advance width="364"/>
  <unicode hex="0072"/>
  <outline>
    <contour>
      <point x="169" y="434" type="line"/>
      <point x="162" y="437" type="line"/>
      <point x="162" y="437"/>
      <point x="97" y="425"/>
      <point x="35" y="418" type="curve"/>
      <point x="35" y="408" type="line"/>
      <point x="105" y="405"/>
      <point x="108" y="395"/>
      <point x="108" y="307" type="curve" smooth="yes"/>
      <point x="108" y="133" type="line" smooth="yes"/>
      <point x="108" y="45"/>
      <point x="104" y="13"/>
      <point x="40" y="13" type="curve"/>
      <point x="40" y="0" type="line"/>
      <point x="240" y="0" type="line"/>
      <point x="240" y="13" type="line"/>
      <point x="176" y="13"/>
      <point x="174" y="40"/>
      <point x="174" y="133" type="curve" smooth="yes"/>
      <point x="174" y="279" type="line" smooth="yes"/>
      <point x="174" y="306"/>
      <point x="176" y="336"/>
      <point x="188" y="356" type="curve" smooth="yes"/>
      <point x="205" y="385"/>
      <point x="231" y="401"/>
      <point x="252" y="401" type="curve"/>
      <point x="305" y="401"/>
      <point x="294" y="346"/>
      <point x="332" y="346" type="curve" smooth="yes"/>
      <point x="352" y="346"/>
      <point x="364" y="365"/>
      <point x="364" y="382" type="curve" smooth="yes"/>
      <point x="364" y="406"/>
      <point x="340" y="429"/>
      <point x="297" y="429" type="curve"/>
      <point x="234" y="429"/>
      <point x="199" y="401"/>
      <point x="174" y="368" type="curve"/>
    </contour>
  </outline>
</glyph>
<glyph name="s" format="1">
  <advance width="371"/>
  <unicode hex="0073"/>
  <outline>
    <contour>
      <point x="184" y="0" type="move" name="top"/>
    </contour>
    <contour>
      <point x="259" y="73" type="curve" smooth="yes"/>
      <point x="259" y="25"/>
      <point x="224" y="2"/>
      <point x="185" y="2" type="curve" smooth="yes"/>
      <point x="82" y="2"/>
      <point x="55" y="116"/>
      <point x="54" y="132" type="curve"/>
      <point x="47" y="132" type="line"/>
      <point x="47" y="132"/>
      <point x="55" y="-7"/>
      <point x="55" y="-7" type="curve"/>
      <point x="55" y="-7"/>
      <point x="68" y="-7"/>
      <point x="68" y="-7" type="curve"/>
      <point x="68" y="1"/>
      <point x="78" y="9"/>
      <point x="94" y="9" type="curve" smooth="yes"/>
      <point x="124" y="9"/>
      <point x="133" y="-14"/>
      <point x="190" y="-14" type="curve" smooth="yes"/>
      <point x="284" y="-14"/>
      <point x="327" y="57"/>
      <point x="327" y="108" type="curve" smooth="yes"/>
      <point x="327" y="267"/>
      <point x="109" y="232"/>
      <point x="109" y="353" type="curve" smooth="yes"/>
      <point x="109" y="415"/>
      <point x="161" y="419"/>
      <point x="175" y="419" type="curve" smooth="yes"/>
      <point x="243" y="419"/>
      <point x="278" y="330"/>
      <point x="278" y="307" type="curve"/>
      <point x="285" y="307" type="line"/>
      <point x="285" y="307"/>
      <point x="277" y="432"/>
      <point x="277" y="432" type="curve"/>
      <point x="277" y="432"/>
      <point x="271" y="432"/>
      <point x="271" y="432" type="curve"/>
      <point x="271" y="423"/>
      <point x="270" y="411"/>
      <point x="254" y="411" type="curve" smooth="yes"/>
      <point x="237" y="411"/>
      <point x="210" y="434"/>
      <point x="173" y="434" type="curve" smooth="yes"/>
      <point x="131" y="434"/>
      <point x="62" y="401"/>
      <point x="62" y="319" type="curve" smooth="yes"/>
      <point x="62" y="167"/>
      <point x="259" y="203"/>
    </contour>
  </outline>
</glyph>
<glyph name="t" format="1">
  <advance width="297"/>
  <unicode hex="0074"/>
  <outline>
    <contour>
      <point x="93" y="88" type="line" smooth="yes"/>
      <point x="91" y="17"/>
      <point x="132" y="-14"/>
      <point x="197" y="-14" type="curve" smooth="yes"/>
      <point x="289" y="-14"/>
      <point x="299" y="31"/>
      <point x="307" y="42" type="curve"/>
      <point x="299" y="47" type="line"/>
      <point x="292" y="35"/>
      <point x="276" y="7"/>
      <point x="228" y="7" type="curve" smooth="yes"/>
      <point x="181" y="7"/>
      <point x="168" y="41"/>
      <point x="168" y="134" type="curve" smooth="yes"/>
      <point x="168" y="405" type="line"/>
      <point x="285" y="405" type="line"/>
      <point x="285" y="421" type="line"/>
      <point x="168" y="421" type="line"/>
      <point x="168" y="549" type="line"/>
      <point x="158" y="549" type="line"/>
      <point x="147" y="490"/>
      <point x="126" y="431"/>
      <point x="41" y="419" type="curve"/>
      <point x="41" y="405" type="line"/>
      <point x="101" y="405" type="line"/>
    </contour>
  </outline>
</glyph>
<glyph name="u" format="1">
  <advance width="552"/>
  <unicode hex="0075"/>
  <outline>
    <contour>
      <point x="277" y="0" type="move" name="top"/>
    </contour>
    <contour>
      <point x="165" y="421" type="line"/>
      <point x="28" y="421" type="line"/>
      <point x="28" y="408" type="line"/>
      <point x="94" y="408"/>
      <point x="99" y="381"/>
      <point x="99" y="288" type="curve" smooth="yes"/>
      <point x="99" y="119" type="line" smooth="yes"/>
      <point x="99" y="-4"/>
      <point x="174" y="-14"/>
      <point x="249" y="-14" type="curve" smooth="yes"/>
      <point x="312" y="-14"/>
      <point x="359" y="6"/>
      <point x="384" y="42" type="curve"/>
      <point x="388" y="-10" type="line"/>
      <point x="395" y="-13" type="line"/>
      <point x="395" y="-13"/>
      <point x="460" y="-8"/>
      <point x="522" y="-1" type="curve"/>
      <point x="522" y="9" type="line"/>
      <point x="452" y="12"/>
      <point x="450" y="21"/>
      <point x="450" y="109" type="curve"/>
      <point x="450" y="421" type="line"/>
      <point x="319" y="421" type="line"/>
      <point x="319" y="408" type="line"/>
      <point x="383" y="408"/>
      <point x="384" y="381"/>
      <point x="384" y="288" type="curve" smooth="yes"/>
      <point x="384" y="155" type="line" smooth="yes"/>
      <point x="384" y="105"/>
      <point x="384" y="69"/>
      <point x="367" y="47" type="curve" smooth="yes"/>
      <point x="344" y="17"/>
      <point x="304" y="2"/>
      <point x="258" y="2" type="curve" smooth="yes"/>
      <point x="207" y="2"/>
      <point x="165" y="34"/>
      <point x="165" y="119" type="curve" smooth="yes"/>
    </contour>
  </outline>
</glyph>
<glyph name="v" format="1">
  <advance width="448"/>
  <unicode hex="0076"/>
  <outline>
    <contour>
      <point x="-10" y="421" type="line"/>
      <point x="-10" y="413" type="line"/>
      <point x="-2" y="413" type="line" smooth="yes"/>
      <point x="46" y="413"/>
      <point x="58" y="381"/>
      <point x="73" y="345" type="curve" smooth="yes"/>
      <point x="215" y="-3" type="line"/>
      <point x="223" y="-3" type="line"/>
      <point x="342" y="273" type="line" smooth="yes"/>
      <point x="360" y="314"/>
      <point x="394" y="413"/>
      <point x="445" y="413" type="curve" smooth="yes"/>
      <point x="450" y="413" type="line"/>
      <point x="450" y="421" type="line"/>
      <point x="297" y="421" type="line"/>
      <point x="297" y="413" type="line"/>
      <point x="302" y="413" type="line" smooth="yes"/>
      <point x="331" y="413"/>
      <point x="353" y="392"/>
      <point x="353" y="358" type="curve" smooth="yes"/>
      <point x="353" y="338"/>
      <point x="337" y="298"/>
      <point x="326" y="273" type="curve" smooth="yes"/>
      <point x="250" y="95" type="line"/>
      <point x="177" y="275" type="line" smooth="yes"/>
      <point x="168" y="297"/>
      <point x="149" y="345"/>
      <point x="149" y="368" type="curve" smooth="yes"/>
      <point x="149" y="393"/>
      <point x="175" y="413"/>
      <point x="206" y="413" type="curve" smooth="yes"/>
      <point x="213" y="413" type="line"/>
      <point x="213" y="421" type="line"/>
    </contour>
  </outline>
</glyph>
<glyph name="w" format="1">
  <advance width="658"/>
  <unicode hex="0077"/>
  <outline>
    <contour>
      <point x="369" y="426" type="line"/>
      <point x="356" y="426" type="line"/>
      <point x="253" y="112" type="line"/>
      <point x="187" y="275" type="line" smooth="yes"/>
      <point x="178" y="297"/>
      <point x="159" y="345"/>
      <point x="159" y="368" type="curve" smooth="yes"/>
      <point x="159" y="393"/>
      <point x="185" y="413"/>
      <point x="216" y="413" type="curve" smooth="yes"/>
      <point x="223" y="413" type="line"/>
      <point x="223" y="421" type="line"/>
      <point x="0" y="421" type="line"/>
      <point x="0" y="413" type="line"/>
      <point x="8" y="413" type="line" smooth="yes"/>
      <point x="56" y="413"/>
      <point x="69" y="381"/>
      <point x="83" y="345" type="curve" smooth="yes"/>
      <point x="223" y="-3" type="line"/>
      <point x="230" y="-3" type="line"/>
      <point x="334" y="310" type="line"/>
      <point x="438" y="-3" type="line"/>
      <point x="445" y="-3" type="line"/>
      <point x="551" y="273" type="line" smooth="yes"/>
      <point x="567" y="315"/>
      <point x="604" y="413"/>
      <point x="653" y="413" type="curve" smooth="yes"/>
      <point x="658" y="413" type="line"/>
      <point x="658" y="421" type="line"/>
      <point x="505" y="421" type="line"/>
      <point x="505" y="413" type="line"/>
      <point x="510" y="413" type="line" smooth="yes"/>
      <point x="537" y="413"/>
      <point x="561" y="392"/>
      <point x="561" y="361" type="curve" smooth="yes"/>
      <point x="561" y="341"/>
      <point x="545" y="298"/>
      <point x="535" y="273" type="curve" smooth="yes"/>
      <point x="473" y="112" type="line"/>
    </contour>
  </outline>
</glyph>
<glyph name="x" format="1">
  <advance width="448"/>
  <unicode hex="0078"/>
  <outline>
    <contour>
      <point x="127" y="60" type="curve" smooth="yes"/>
      <point x="127" y="78"/>
      <point x="136" y="99"/>
      <point x="156" y="128" type="curve" smooth="yes"/>
      <point x="201" y="192" type="line"/>
      <point x="264" y="105" type="line" smooth="yes"/>
      <point x="273" y="92"/>
      <point x="292" y="70"/>
      <point x="292" y="45" type="curve" smooth="yes"/>
      <point x="292" y="18"/>
      <point x="274" y="13"/>
      <point x="250" y="13" type="curve" smooth="yes"/>
      <point x="242" y="13" type="line"/>
      <point x="242" y="0" type="line"/>
      <point x="467" y="0" type="line"/>
      <point x="467" y="13" type="line"/>
      <point x="461" y="13" type="line" smooth="yes"/>
      <point x="409" y="13"/>
      <point x="386" y="57"/>
      <point x="367" y="83" type="curve" smooth="yes"/>
      <point x="243" y="249" type="line"/>
      <point x="309" y="329" type="line" smooth="yes"/>
      <point x="338" y="364"/>
      <point x="385" y="408"/>
      <point x="423" y="408" type="curve" smooth="yes"/>
      <point x="431" y="408" type="line"/>
      <point x="431" y="421" type="line"/>
      <point x="256" y="421" type="line"/>
      <point x="256" y="408" type="line"/>
      <point x="264" y="408" type="line" smooth="yes"/>
      <point x="298" y="408"/>
      <point x="314" y="389"/>
      <point x="314" y="371" type="curve" smooth="yes"/>
      <point x="314" y="355"/>
      <point x="301" y="334"/>
      <point x="278" y="307" type="curve" smooth="yes"/>
      <point x="237" y="258" type="line"/>
      <point x="180" y="334" type="line" smooth="yes"/>
      <point x="172" y="344"/>
      <point x="156" y="366"/>
      <point x="156" y="379" type="curve" smooth="yes"/>
      <point x="156" y="395"/>
      <point x="178" y="408"/>
      <point x="199" y="408" type="curve" smooth="yes"/>
      <point x="207" y="408" type="line"/>
      <point x="207" y="421" type="line"/>
      <point x="3" y="421" type="line"/>
      <point x="3" y="408" type="line"/>
      <point x="12" y="408" type="line" smooth="yes"/>
      <point x="59" y="408"/>
      <point x="82" y="358"/>
      <point x="101" y="332" type="curve" smooth="yes"/>
      <point x="195" y="200" type="line"/>
      <point x="115" y="92" type="line" smooth="yes"/>
      <point x="88" y="56"/>
      <point x="46" y="13"/>
      <point x="4" y="13" type="curve" smooth="yes"/>
      <point x="-4" y="13" type="line"/>
      <point x="-4" y="0" type="line"/>
      <point x="193" y="0" type="line"/>
      <point x="193" y="13" type="line"/>
      <point x="185" y="13" type="line" smooth="yes"/>
      <point x="140" y="13"/>
      <point x="127" y="27"/>
    </contour>
  </outline>
</glyph>
<glyph name="y" format="1">
  <advance width="467"/>
  <unicode hex="0079"/>
  <outline>
    <contour>
      <point x="264" y="0" type="move" name="top"/>
    </contour>
    <contour>
      <point x="267" y="74" type="line"/>
      <point x="182" y="275" type="line" smooth="yes"/>
      <point x="173" y="297"/>
      <point x="154" y="345"/>
      <point x="154" y="368" type="curve" smooth="yes"/>
      <point x="154" y="393"/>
      <point x="180" y="413"/>
      <point x="211" y="413" type="curve" smooth="yes"/>
      <point x="218" y="413" type="line"/>
      <point x="218" y="421" type="line"/>
      <point x="-5" y="421" type="line"/>
      <point x="-5" y="413" type="line"/>
      <point x="3" y="413" type="line" smooth="yes"/>
      <point x="50" y="413"/>
      <point x="63" y="381"/>
      <point x="78" y="345" type="curve" smooth="yes"/>
      <point x="221" y="1" type="line"/>
      <point x="221" y="-43"/>
      <point x="210" y="-65"/>
      <point x="195" y="-96" type="curve" smooth="yes"/>
      <point x="185" y="-117"/>
      <point x="157" y="-144"/>
      <point x="130" y="-144" type="curve" smooth="yes"/>
      <point x="115" y="-144"/>
      <point x="109" y="-136"/>
      <point x="90" y="-136" type="curve" smooth="yes"/>
      <point x="76" y="-136"/>
      <point x="55" y="-141"/>
      <point x="55" y="-164" type="curve" smooth="yes"/>
      <point x="55" y="-180"/>
      <point x="71" y="-200"/>
      <point x="101" y="-200" type="curve" smooth="yes"/>
      <point x="159" y="-200"/>
      <point x="196" y="-130"/>
      <point x="213" y="-89" type="curve" smooth="yes"/>
      <point x="364" y="273" type="line" smooth="yes"/>
      <point x="382" y="316"/>
      <point x="423" y="413"/>
      <point x="467" y="413" type="curve" smooth="yes"/>
      <point x="472" y="413" type="line"/>
      <point x="472" y="421" type="line"/>
      <point x="319" y="421" type="line"/>
      <point x="319" y="413" type="line"/>
      <point x="324" y="413" type="line" smooth="yes"/>
      <point x="353" y="413"/>
      <point x="375" y="392"/>
      <point x="375" y="358" type="curve" smooth="yes"/>
      <point x="375" y="338"/>
      <point x="359" y="298"/>
      <point x="349" y="273" type="curve" smooth="yes"/>
    </contour>
  </outline>
</glyph>
<glyph name="z" format="1">
  <advance width="468"/>
  <unicode hex="007a"/>
  <outline>
    <contour>
      <point x="245" y="0" type="move" smooth="yes"/>
    </contour>
    <contour>
      <point x="123" y="12" type="line" smooth="no"/>
      <point x="407" y="411" type="line" smooth="no"/>
      <point x="407" y="421" type="line" smooth="no"/>
      <point x="72" y="421" type="line" smooth="no"/>
      <point x="59" y="299" type="line" smooth="no"/>
      <point x="70" y="299" type="line" smooth="no"/>
      <point x="91" y="380"/>
      <point x="117" y="409"/>
      <point x="206" y="409" type="curve" smooth="yes"/>
      <point x="315" y="409" type="line" smooth="no"/>
      <point x="30" y="10" type="line" smooth="no"/>
      <point x="30" y="0" type="line" smooth="no"/>
      <point x="422" y="0" type="line" smooth="no"/>
      <point x="436" y="142" type="line" smooth="no"/>
      <point x="425" y="142" type="line" smooth="no"/>
      <point x="404" y="40"/>
      <point x="376" y="12"/>
      <point x="200" y="12" type="curve" smooth="yes"/>
    </contour>
  </outline>
</glyph>
<glyph name="braceleft" format="1">
  <advance width="300"/>
  <unicode hex="007B"/>
  <outline>
    <contour>
      <point x="254" y="668" type="curve"/>
      <point x="254" y="668" type="line"/>
      <point x="259" y="668"/>
      <point x="261" y="661"/>
      <point x="261" y="655" type="curve" smooth="yes"/>
      <point x="261" y="647"/>
      <point x="259" y="642"/>
      <point x="254" y="642" type="curve" smooth="yes"/>
      <point x="248" y="642"/>
      <point x="234" y="644"/>
      <point x="225" y="643" type="curve"/>
      <point x="188" y="643"/>
      <point x="150" y="618"/>
      <point x="152" y="585" type="curve" smooth="yes"/>
      <point x="156" y="509"/>
      <point x="172" y="461"/>
      <point x="177" y="405" type="curve" smooth="yes"/>
      <point x="185" y="324"/>
      <point x="132" y="247"/>
      <point x="83" y="246" type="curve" smooth="yes"/>
      <point x="81" y="246"/>
      <point x="80" y="245"/>
      <point x="80" y="243" type="curve" smooth="yes"/>
      <point x="80" y="241"/>
      <point x="80" y="240"/>
      <point x="83" y="240" type="curve" smooth="yes"/>
      <point x="132" y="238"/>
      <point x="176" y="177"/>
      <point x="172" y="101" type="curve" smooth="yes"/>
      <point x="168" y="35"/>
      <point x="157" y="-28"/>
      <point x="154" y="-94" type="curve" smooth="yes"/>
      <point x="152" y="-132"/>
      <point x="179" y="-161"/>
      <point x="216" y="-165" type="curve" smooth="yes"/>
      <point x="231" y="-166"/>
      <point x="244" y="-164"/>
      <point x="250" y="-164" type="curve" smooth="yes"/>
      <point x="253" y="-164"/>
      <point x="256" y="-167"/>
      <point x="256" y="-175" type="curve" smooth="yes"/>
      <point x="256" y="-181"/>
      <point x="254" y="-187"/>
      <point x="248" y="-187" type="curve" smooth="yes"/>
      <point x="242" y="-187"/>
      <point x="214" y="-187"/>
      <point x="196" y="-186" type="curve" smooth="yes"/>
      <point x="127" y="-182"/>
      <point x="89" y="-124"/>
      <point x="91" y="-59" type="curve" smooth="yes"/>
      <point x="93" y="28"/>
      <point x="108" y="80"/>
      <point x="114" y="142" type="curve" smooth="yes"/>
      <point x="120" y="196"/>
      <point x="105" y="231"/>
      <point x="43" y="231" type="curve" smooth="yes"/>
      <point x="38" y="231"/>
      <point x="31" y="229"/>
      <point x="25" y="229" type="curve" smooth="yes"/>
      <point x="19" y="229"/>
      <point x="14" y="235"/>
      <point x="14" y="244" type="curve" smooth="yes"/>
      <point x="14" y="252"/>
      <point x="18" y="258"/>
      <point x="25" y="258" type="curve" smooth="yes"/>
      <point x="31" y="258"/>
      <point x="38" y="256"/>
      <point x="43" y="256" type="curve" smooth="yes"/>
      <point x="107" y="256"/>
      <point x="119" y="297"/>
      <point x="118" y="335" type="curve" smooth="yes"/>
      <point x="116" y="382"/>
      <point x="94" y="472"/>
      <point x="93" y="526" type="curve"/>
      <point x="90" y="603"/>
      <point x="141" y="663"/>
      <point x="212" y="667" type="curve" smooth="yes"/>
      <point x="227" y="668"/>
      <point x="247" y="668"/>
    </contour>
  </outline>
</glyph>
<glyph name="bar" format="1">
  <advance width="225"/>
  <unicode hex="007C"/>
  <outline>
    <contour>
      <point x="88.0" y="704.0" type="line"/>
      <point x="88.0" y="-177.0" type="line"/>
      <point x="137.0" y="-177.0" type="line"/>
      <point x="137.0" y="704.0" type="line"/>
    </contour>
  </outline>
</glyph>
<glyph name="braceright" format="1">
  <advance width="300"/>
  <unicode hex="007D"/>
  <outline>
    <contour>
      <point x="22.0" y="668.0" type="curve" smooth="yes"/>
      <point x="16.0" y="668.0"/>
      <point x="14.0" y="661.0"/>
      <point x="14.0" y="655.0" type="curve" smooth="yes"/>
      <point x="14.0" y="647.0"/>
      <point x="16.0" y="642.0"/>
      <point x="22.0" y="642.0" type="curve" smooth="yes"/>
      <point x="27.0" y="642.0"/>
      <point x="41.0" y="644.0"/>
      <point x="50.0" y="644.0" type="curve" smooth="yes"/>
      <point x="87.0" y="643.0"/>
      <point x="125.0" y="618.0"/>
      <point x="123.0" y="585.0" type="curve" smooth="yes"/>
      <point x="119.0" y="509.0"/>
      <point x="104.0" y="461.0"/>
      <point x="98.0" y="405.0" type="curve" smooth="yes"/>
      <point x="90.0" y="324.0"/>
      <point x="143.0" y="248.0"/>
      <point x="192.0" y="246.0" type="curve" smooth="yes"/>
      <point x="194.0" y="246.0"/>
      <point x="196.0" y="245.0"/>
      <point x="196.0" y="243.0" type="curve" smooth="yes"/>
      <point x="196.0" y="241.0"/>
      <point x="195.0" y="240.0"/>
      <point x="193.0" y="240.0" type="curve" smooth="yes"/>
      <point x="143.0" y="238.0"/>
      <point x="99.0" y="177.0"/>
      <point x="104.0" y="101.0" type="curve" smooth="yes"/>
      <point x="107.0" y="35.0"/>
      <point x="118.0" y="-28.0"/>
      <point x="122.0" y="-94.0" type="curve" smooth="yes"/>
      <point x="123.0" y="-132.0"/>
      <point x="96.0" y="-161.0"/>
      <point x="60.0" y="-165.0" type="curve" smooth="yes"/>
      <point x="45.0" y="-166.0"/>
      <point x="31.0" y="-164.0"/>
      <point x="26.0" y="-164.0" type="curve" smooth="yes"/>
      <point x="22.0" y="-164.0"/>
      <point x="19.0" y="-167.0"/>
      <point x="19.0" y="-175.0" type="curve" smooth="yes"/>
      <point x="19.0" y="-181.0"/>
      <point x="22.0" y="-187.0"/>
      <point x="27.0" y="-187.0" type="curve" smooth="yes"/>
      <point x="33.0" y="-187.0"/>
      <point x="61.0" y="-187.0"/>
      <point x="79.0" y="-186.0" type="curve" smooth="yes"/>
      <point x="148.0" y="-182.0"/>
      <point x="186.0" y="-124.0"/>
      <point x="184.0" y="-59.0" type="curve" smooth="yes"/>
      <point x="182.0" y="28.0"/>
      <point x="167.0" y="80.0"/>
      <point x="161.0" y="142.0" type="curve" smooth="yes"/>
      <point x="156.0" y="196.0"/>
      <point x="170.0" y="231.0"/>
      <point x="232.0" y="231.0" type="curve" smooth="yes"/>
      <point x="238.0" y="231.0"/>
      <point x="244.0" y="229.0"/>
      <point x="250.0" y="229.0" type="curve" smooth="yes"/>
      <point x="256.0" y="229.0"/>
      <point x="261.0" y="235.0"/>
      <point x="261.0" y="244.0" type="curve" smooth="yes"/>
      <point x="261.0" y="252.0"/>
      <point x="257.0" y="258.0"/>
      <point x="250.0" y="258.0" type="curve" smooth="yes"/>
      <point x="244.0" y="258.0"/>
      <point x="237.0" y="256.0"/>
      <point x="232.0" y="256.0" type="curve" smooth="yes"/>
      <point x="168.0" y="256.0"/>
      <point x="156.0" y="297.0"/>
      <point x="158.0" y="335.0" type="curve" smooth="yes"/>
      <point x="159.0" y="382.0"/>
      <point x="181.0" y="472.0"/>
      <point x="183.0" y="526.0" type="curve" smooth="yes"/>
      <point x="185.0" y="603.0"/>
      <point x="134.0" y="663.0"/>
      <point x="63.0" y="667.0" type="curve" smooth="yes"/>
      <point x="49.0" y="668.0"/>
      <point x="29.0" y="668.0"/>
    </contour>
  </outline>
</glyph>
<glyph name="asciitilde" format="1">
  <advance width="348"/>
  <unicode hex="007E"/>
  <outline>
    <contour>
      <point x="310" y="207" type="line"/>
      <point x="310" y="207"/>
      <point x="278" y="168"/>
      <point x="232" y="168" type="curve"/>
      <point x="174" y="168"/>
      <point x="149" y="208"/>
      <point x="95" y="208" type="curve"/>
      <point x="60" y="208"/>
      <point x="38" y="173"/>
      <point x="38" y="173" type="curve"/>
      <point x="38" y="173"/>
      <point x="39" y="209"/>
      <point x="38" y="226" type="curve"/>
      <point x="38" y="226"/>
      <point x="66" y="257"/>
      <point x="100" y="257" type="curve"/>
      <point x="155" y="257"/>
      <point x="194" y="218"/>
      <point x="234" y="218" type="curve"/>
      <point x="279" y="218"/>
      <point x="302" y="247"/>
      <point x="312" y="264" type="curve"/>
    </contour>
  </outline>
</glyph>
<glyph name="sterling" format="1">
  <advance width="791"/>
  <unicode hex="00A3"/>
  <outline>
    <contour>
      <point x="591" y="671" type="curve" smooth="yes"/>
      <point x="498" y="671"/>
      <point x="434" y="558"/>
      <point x="434" y="374" type="curve" smooth="yes"/>
      <point x="434" y="241"/>
      <point x="397" y="169"/>
      <point x="345" y="98" type="curve"/>
      <point x="423" y="75"/>
      <point x="504" y="50"/>
      <point x="552" y="50" type="curve" smooth="yes"/>
      <point x="623" y="50"/>
      <point x="677" y="79"/>
      <point x="694" y="137" type="curve"/>
      <point x="709" y="137" type="line"/>
      <point x="709" y="69"/>
      <point x="644" y="-6"/>
      <point x="554" y="-6" type="curve" smooth="yes"/>
      <point x="490" y="-6"/>
      <point x="400" y="32"/>
      <point x="322" y="70" type="curve"/>
      <point x="278" y="22"/>
      <point x="221" y="-7"/>
      <point x="157" y="-7" type="curve" smooth="yes"/>
      <point x="92" y="-7"/>
      <point x="28" y="16"/>
      <point x="28" y="63" type="curve" smooth="yes"/>
      <point x="28" y="105"/>
      <point x="83" y="134"/>
      <point x="179" y="134" type="curve" smooth="yes"/>
      <point x="209" y="134"/>
      <point x="252" y="124"/>
      <point x="299" y="111" type="curve"/>
      <point x="335" y="175"/>
      <point x="345" y="218"/>
      <point x="345" y="334" type="curve" smooth="yes"/>
      <point x="345" y="519"/>
      <point x="443" y="686"/>
      <point x="591" y="686" type="curve" smooth="yes"/>
      <point x="696" y="686"/>
      <point x="751" y="642"/>
      <point x="751" y="564" type="curve" smooth="yes"/>
      <point x="751" y="485"/>
      <point x="687" y="432"/>
      <point x="620" y="432" type="curve" smooth="yes"/>
      <point x="575" y="432"/>
      <point x="551" y="448"/>
      <point x="551" y="457" type="curve" smooth="yes"/>
      <point x="551" y="466"/>
      <point x="555" y="465"/>
      <point x="561" y="465" type="curve" smooth="yes"/>
      <point x="573" y="465"/>
      <point x="573" y="456"/>
      <point x="615" y="456" type="curve" smooth="yes"/>
      <point x="664" y="456"/>
      <point x="691" y="518"/>
      <point x="691" y="566" type="curve" smooth="yes"/>
      <point x="691" y="618"/>
      <point x="653" y="671"/>
    </contour>
    <contour>
      <point x="181" y="119" type="curve" smooth="yes"/>
      <point x="125" y="119"/>
      <point x="86" y="87"/>
      <point x="86" y="63" type="curve" smooth="yes"/>
      <point x="86" y="39"/>
      <point x="115" y="10"/>
      <point x="157" y="10" type="curve" smooth="yes"/>
      <point x="206" y="10"/>
      <point x="249" y="40"/>
      <point x="283" y="88" type="curve"/>
      <point x="245" y="105"/>
      <point x="210" y="119"/>
    </contour>
    <contour>
      <point x="236" y="299" type="curve" smooth="yes"/>
      <point x="235" y="298"/>
      <point x="354" y="299"/>
      <point x="354" y="299" type="curve"/>
      <point x="354" y="299"/>
      <point x="351" y="280"/>
      <point x="351" y="280" type="curve"/>
      <point x="351" y="280"/>
      <point x="233" y="280"/>
      <point x="233" y="280" type="curve"/>
      <point x="233" y="280"/>
      <point x="237" y="300"/>
    </contour>
    <contour>
      <point x="425" y="299" type="curve"/>
      <point x="424" y="298"/>
      <point x="544" y="299"/>
      <point x="544" y="299" type="curve"/>
      <point x="544" y="299"/>
      <point x="543" y="280"/>
      <point x="543" y="280" type="curve"/>
      <point x="543" y="280"/>
      <point x="422" y="280"/>
      <point x="422" y="280" type="curve"/>
      <point x="422" y="280"/>
      <point x="426" y="300"/>
    </contour>
    <contour>
      <point x="224" y="231" type="curve" smooth="yes"/>
      <point x="223" y="230"/>
      <point x="345" y="231"/>
      <point x="345" y="231" type="curve"/>
      <point x="345" y="231"/>
      <point x="342" y="212"/>
      <point x="342" y="212" type="curve"/>
      <point x="342" y="212"/>
      <point x="221" y="212"/>
      <point x="221" y="212" type="curve"/>
      <point x="221" y="212"/>
      <point x="225" y="232"/>
    </contour>
    <contour>
      <point x="409" y="231" type="curve" smooth="yes"/>
      <point x="408" y="230"/>
      <point x="532" y="231"/>
      <point x="532" y="231" type="curve"/>
      <point x="532" y="231"/>
      <point x="531" y="212"/>
      <point x="531" y="212" type="curve"/>
      <point x="531" y="212"/>
      <point x="403" y="212"/>
      <point x="403" y="212" type="curve"/>
      <point x="403" y="212"/>
      <point x="410" y="232"/>
    </contour>
  </outline>
</glyph>
<glyph name="currency" format="1">
  <advance width="495"/>
  <unicode hex="00A4"/>
  <outline>
    <contour>
      <point x="437" y="199" type="line"/>
      <point x="356" y="280" type="line"/>
      <point x="328" y="252" type="line"/>
      <point x="409" y="171" type="line"/>
    </contour>
    <contour>
      <point x="58" y="199" type="line"/>
      <point x="86" y="171" type="line"/>
      <point x="167" y="252" type="line"/>
      <point x="139" y="280" type="line"/>
    </contour>
    <contour>
      <point x="437" y="522" type="line"/>
      <point x="409" y="550" type="line"/>
      <point x="328" y="469" type="line"/>
      <point x="356" y="441" type="line"/>
    </contour>
    <contour>
      <point x="58" y="522" type="line"/>
      <point x="139" y="441" type="line"/>
      <point x="167" y="469" type="line"/>
      <point x="86" y="550" type="line"/>
    </contour>
    <contour>
      <point x="249" y="482" type="curve" smooth="yes"/>
      <point x="316" y="482"/>
      <point x="372" y="427"/>
      <point x="372" y="360" type="curve" smooth="yes"/>
      <point x="372" y="293"/>
      <point x="316" y="237"/>
      <point x="249" y="237" type="curve" smooth="yes"/>
      <point x="182" y="237"/>
      <point x="127" y="293"/>
      <point x="127" y="360" type="curve" smooth="yes"/>
      <point x="127" y="427"/>
      <point x="182" y="482"/>
    </contour>
    <contour>
      <point x="249" y="522" type="curve" smooth="yes"/>
      <point x="160" y="522"/>
      <point x="87" y="449"/>
      <point x="87" y="360" type="curve" smooth="yes"/>
      <point x="87" y="271"/>
      <point x="160" y="198"/>
      <point x="249" y="198" type="curve" smooth="yes"/>
      <point x="338" y="198"/>
      <point x="411" y="271"/>
      <point x="411" y="360" type="curve" smooth="yes"/>
      <point x="411" y="449"/>
      <point x="338" y="522"/>
    </contour>
  </outline>
</glyph>
<glyph name="brokenbar" format="1">
  <advance width="450"/>
  <unicode hex="00A6"/>
  <outline>
    <contour>
      <point x="201.0" y="236.0" type="line"/>
      <point x="201.0" y="-168.0" type="line"/>
      <point x="249.0" y="-168.0" type="line"/>
      <point x="249.0" y="236.0" type="line"/>
    </contour>
    <contour>
      <point x="201.0" y="704.0" type="line"/>
      <point x="201.0" y="318.0" type="line"/>
      <point x="249.0" y="318.0" type="line"/>
      <point x="249.0" y="704.0" type="line"/>
    </contour>
  </outline>
</glyph>
<glyph name="section" format="1">
  <advance width="477"/>
  <unicode hex="00A7"/>
  <outline>
    <contour>
      <point x="222.0" y="381.0" type="curve"/>
      <point x="243.0" y="365.0"/>
      <point x="285.0" y="339.0"/>
      <point x="310.0" y="320.0" type="curve" smooth="yes"/>
      <point x="336.0" y="300.0"/>
      <point x="382.0" y="270.0"/>
      <point x="382.0" y="222.0" type="curve" smooth="yes"/>
      <point x="382.0" y="162.0"/>
      <point x="321.0" y="143.0"/>
      <point x="262.0" y="148.0" type="curve"/>
      <point x="240.0" y="163.0"/>
      <point x="159.0" y="216.0"/>
      <point x="138.0" y="238.0" type="curve" smooth="yes"/>
      <point x="116.0" y="261.0"/>
      <point x="102.0" y="282.0"/>
      <point x="102.0" y="313.0" type="curve" smooth="yes"/>
      <point x="102.0" y="363.0"/>
      <point x="172.0" y="392.0"/>
    </contour>
    <contour>
      <point x="238.0" y="669.0" type="curve" smooth="yes"/>
      <point x="162.0" y="669.0"/>
      <point x="96.0" y="619.0"/>
      <point x="96.0" y="536.0" type="curve" smooth="yes"/>
      <point x="96.0" y="477.0"/>
      <point x="147.0" y="436.0"/>
      <point x="193.0" y="400.0" type="curve"/>
      <point x="152.0" y="401.0"/>
      <point x="63.0" y="374.0"/>
      <point x="63.0" y="292.0" type="curve" smooth="yes"/>
      <point x="63.0" y="228.0"/>
      <point x="99.0" y="180.0"/>
      <point x="130.0" y="155.0" type="curve" smooth="yes"/>
      <point x="174.0" y="118.0"/>
      <point x="220.0" y="89.0"/>
      <point x="272.0" y="58.0" type="curve" smooth="yes"/>
      <point x="326.0" y="26.0"/>
      <point x="355.0" y="-12.0"/>
      <point x="355.0" y="-51.0" type="curve" smooth="yes"/>
      <point x="355.0" y="-103.0"/>
      <point x="298.0" y="-140.0"/>
      <point x="238.0" y="-140.0" type="curve" smooth="yes"/>
      <point x="190.0" y="-140.0"/>
      <point x="159.0" y="-119.0"/>
      <point x="159.0" y="-91.0" type="curve" smooth="yes"/>
      <point x="159.0" y="-76.0"/>
      <point x="193.0" y="-59.0"/>
      <point x="193.0" y="-31.0" type="curve" smooth="yes"/>
      <point x="193.0" y="-9.0"/>
      <point x="169.0" y="9.0"/>
      <point x="143.0" y="9.0" type="curve" smooth="yes"/>
      <point x="125.0" y="9.0"/>
      <point x="93.0" y="-9.0"/>
      <point x="93.0" y="-49.0" type="curve" smooth="yes"/>
      <point x="93.0" y="-94.0"/>
      <point x="133.0" y="-163.0"/>
      <point x="254.0" y="-163.0" type="curve" smooth="yes"/>
      <point x="317.0" y="-163.0"/>
      <point x="394.0" y="-112.0"/>
      <point x="394.0" y="-37.0" type="curve" smooth="yes"/>
      <point x="394.0" y="21.0"/>
      <point x="363.0" y="85.0"/>
      <point x="284.0" y="130.0" type="curve"/>
      <point x="310.0" y="130.0" type="line" smooth="yes"/>
      <point x="346.0" y="130.0"/>
      <point x="421.0" y="162.0"/>
      <point x="421.0" y="247.0" type="curve" smooth="yes"/>
      <point x="421.0" y="278.0"/>
      <point x="406.0" y="323.0"/>
      <point x="356.0" y="372.0" type="curve" smooth="yes"/>
      <point x="323.0" y="403.0"/>
      <point x="268.0" y="433.0"/>
      <point x="220.0" y="462.0" type="curve" smooth="yes"/>
      <point x="185.0" y="483.0"/>
      <point x="137.0" y="508.0"/>
      <point x="137.0" y="567.0" type="curve" smooth="yes"/>
      <point x="137.0" y="610.0"/>
      <point x="188.0" y="646.0"/>
      <point x="241.0" y="646.0" type="curve" smooth="yes"/>
      <point x="285.0" y="646.0"/>
      <point x="320.0" y="631.0"/>
      <point x="320.0" y="600.0" type="curve" smooth="yes"/>
      <point x="320.0" y="584.0"/>
      <point x="290.0" y="577.0"/>
      <point x="290.0" y="542.0" type="curve" smooth="yes"/>
      <point x="290.0" y="519.0"/>
      <point x="314.0" y="504.0"/>
      <point x="337.0" y="504.0" type="curve" smooth="yes"/>
      <point x="358.0" y="504.0"/>
      <point x="383.0" y="517.0"/>
      <point x="383.0" y="563.0" type="curve" smooth="yes"/>
      <point x="383.0" y="625.0"/>
      <point x="315.0" y="669.0"/>
    </contour>
  </outline>
</glyph>
<glyph name="dieresis" format="1">
  <advance width="345"/>
  <unicode hex="00A8"/>
  <outline>
    <contour>
      <point x="172" y="0" type="move" name="_top"/>
    </contour>
    <contour>
      <point x="46" y="618" type="curve" smooth="yes"/>
      <point x="46" y="594"/>
      <point x="64" y="576"/>
      <point x="88" y="576" type="curve" smooth="yes"/>
      <point x="112" y="576"/>
      <point x="131" y="594"/>
      <point x="131" y="618" type="curve" smooth="yes"/>
      <point x="131" y="642"/>
      <point x="112" y="661"/>
      <point x="88" y="661" type="curve" smooth="yes"/>
      <point x="64" y="661"/>
      <point x="46" y="642"/>
    </contour>
    <contour>
      <point x="214" y="618" type="curve" smooth="yes"/>
      <point x="214" y="594"/>
      <point x="232" y="576"/>
      <point x="256" y="576" type="curve" smooth="yes"/>
      <point x="280" y="576"/>
      <point x="299" y="594"/>
      <point x="299" y="618" type="curve" smooth="yes"/>
      <point x="299" y="642"/>
      <point x="280" y="661"/>
      <point x="256" y="661" type="curve" smooth="yes"/>
      <point x="232" y="661"/>
      <point x="214" y="642"/>
    </contour>
  </outline>
</glyph>
<glyph name="copyright" format="1">
  <advance width="585"/>
  <unicode hex="00A9"/>
  <outline>
    <contour>
      <point x="288" y="379" type="curve" smooth="yes"/>
      <point x="198" y="379"/>
      <point x="137" y="304"/>
      <point x="137" y="217" type="curve" smooth="yes"/>
      <point x="137" y="122"/>
      <point x="190" y="54"/>
      <point x="295" y="54" type="curve" smooth="yes"/>
      <point x="376" y="54"/>
      <point x="403" y="91"/>
      <point x="409" y="136" type="curve"/>
      <point x="397" y="136" type="line"/>
      <point x="387" y="101"/>
      <point x="363" y="77"/>
      <point x="308" y="77" type="curve" smooth="yes"/>
      <point x="229" y="77"/>
      <point x="194" y="134"/>
      <point x="194" y="217" type="curve" smooth="yes"/>
      <point x="194" y="299"/>
      <point x="229" y="358"/>
      <point x="288" y="358" type="curve" smooth="yes"/>
      <point x="330" y="358"/>
      <point x="336" y="351"/>
      <point x="343" y="321" type="curve" smooth="yes"/>
      <point x="347" y="305"/>
      <point x="356" y="297"/>
      <point x="374" y="297" type="curve" smooth="yes"/>
      <point x="390" y="297"/>
      <point x="399" y="307"/>
      <point x="399" y="322" type="curve" smooth="yes"/>
      <point x="399" y="364"/>
      <point x="330" y="379"/>
    </contour>
    <contour>
      <point x="42" y="213" type="curve" smooth="yes"/>
      <point x="42" y="77"/>
      <point x="151" y="-32"/>
      <point x="287" y="-32" type="curve" smooth="yes"/>
      <point x="423" y="-32"/>
      <point x="534" y="77"/>
      <point x="534" y="213" type="curve" smooth="yes"/>
      <point x="534" y="350"/>
      <point x="423" y="460"/>
      <point x="287" y="460" type="curve" smooth="yes"/>
      <point x="151" y="460"/>
      <point x="42" y="350"/>
    </contour>
    <contour>
      <point x="70" y="216" type="curve" smooth="yes"/>
      <point x="70" y="337"/>
      <point x="167" y="437"/>
      <point x="288" y="437" type="curve" smooth="yes"/>
      <point x="409" y="437"/>
      <point x="507" y="337"/>
      <point x="507" y="216" type="curve" smooth="yes"/>
      <point x="507" y="95"/>
      <point x="409" y="-5"/>
      <point x="288" y="-5" type="curve" smooth="yes"/>
      <point x="167" y="-5"/>
      <point x="70" y="95"/>
    </contour>
  </outline>
</glyph>
<glyph name="ordfeminine" format="1">
  <advance width="232"/>
  <unicode hex="00AA"/>
  <outline>
    <contour>
      <point x="9" y="475" type="curve" smooth="yes"/>
      <point x="9" y="452"/>
      <point x="25" y="405"/>
      <point x="93" y="405" type="curve" smooth="yes"/>
      <point x="123" y="405"/>
      <point x="151" y="418"/>
      <point x="165" y="438" type="curve"/>
      <point x="171" y="429"/>
      <point x="183" y="408"/>
      <point x="218" y="408" type="curve" smooth="yes"/>
      <point x="254" y="408"/>
      <point x="270" y="432"/>
      <point x="270" y="449" type="curve"/>
      <point x="261" y="451" type="line"/>
      <point x="259" y="443"/>
      <point x="252" y="432"/>
      <point x="239" y="432" type="curve"/>
      <point x="217" y="432"/>
      <point x="215" y="457"/>
      <point x="215" y="479" type="curve" smooth="yes"/>
      <point x="215" y="616" type="line" smooth="yes"/>
      <point x="215" y="671"/>
      <point x="167" y="687"/>
      <point x="113" y="687" type="curve" smooth="yes"/>
      <point x="78" y="687"/>
      <point x="22" y="673"/>
      <point x="22" y="642" type="curve" smooth="yes"/>
      <point x="22" y="627"/>
      <point x="32" y="616"/>
      <point x="48" y="616" type="curve" smooth="yes"/>
      <point x="60" y="616"/>
      <point x="73" y="627"/>
      <point x="75" y="641" type="curve" smooth="yes"/>
      <point x="81" y="659"/>
      <point x="93" y="670"/>
      <point x="111" y="670" type="curve" smooth="yes"/>
      <point x="154" y="670"/>
      <point x="165" y="642"/>
      <point x="165" y="604" type="curve" smooth="yes"/>
      <point x="165" y="577"/>
      <point x="147" y="564"/>
      <point x="113" y="559" type="curve" smooth="yes"/>
      <point x="52" y="552"/>
      <point x="9" y="523"/>
    </contour>
    <contour>
      <point x="105" y="423" type="curve" smooth="yes"/>
      <point x="73" y="423"/>
      <point x="64" y="441"/>
      <point x="64" y="472" type="curve" smooth="yes"/>
      <point x="64" y="529"/>
      <point x="104" y="530"/>
      <point x="165" y="561" type="curve"/>
      <point x="165" y="505" type="line" smooth="yes"/>
      <point x="165" y="458"/>
      <point x="151" y="423"/>
    </contour>
  </outline>
</glyph>
<glyph name="logicalnot" format="1">
  <advance width="532"/>
  <unicode hex="00AC"/>
  <outline>
    <contour>
      <point x="55.0" y="403.0" type="line"/>
      <point x="55.0" y="357.0" type="line"/>
      <point x="434.0" y="357.0" type="line"/>
      <point x="434.0" y="204.0" type="line"/>
      <point x="483.0" y="204.0" type="line"/>
      <point x="483.0" y="403.0" type="line"/>
    </contour>
  </outline>
</glyph>
<glyph name="macron" format="1">
  <advance width="552"/>
  <unicode hex="00AF"/>
  <outline>
    <contour>
      <point x="150" y="627" type="line"/>
      <point x="150" y="585" type="line"/>
      <point x="402" y="585" type="line"/>
      <point x="402" y="627" type="line"/>
    </contour>
  </outline>
</glyph>
<glyph name="degree" format="1">
  <advance width="298"/>
  <unicode hex="00B0"/>
  <outline>
    <contour>
      <point x="149" y="594" type="curve" smooth="yes"/>
      <point x="191" y="594"/>
      <point x="226" y="560"/>
      <point x="226" y="518" type="curve" smooth="yes"/>
      <point x="226" y="475"/>
      <point x="191" y="441"/>
      <point x="149" y="441" type="curve" smooth="yes"/>
      <point x="107" y="441"/>
      <point x="73" y="475"/>
      <point x="73" y="518" type="curve" smooth="yes"/>
      <point x="73" y="560"/>
      <point x="107" y="594"/>
    </contour>
    <contour>
      <point x="149" y="631" type="curve" smooth="yes"/>
      <point x="87" y="631"/>
      <point x="36" y="580"/>
      <point x="36" y="518" type="curve" smooth="yes"/>
      <point x="36" y="455"/>
      <point x="87" y="404"/>
      <point x="149" y="404" type="curve" smooth="yes"/>
      <point x="212" y="404"/>
      <point x="263" y="455"/>
      <point x="263" y="518" type="curve" smooth="yes"/>
      <point x="263" y="580"/>
      <point x="212" y="631"/>
    </contour>
  </outline>
</glyph>
<glyph name="acute" format="1">
  <advance width="345"/>
  <unicode hex="00B4"/>
  <outline>
    <contour>
      <point x="138" y="0" type="move" name="_top"/>
    </contour>
    <contour>
      <point x="255" y="589" type="line"/>
      <point x="268" y="597"/>
      <point x="279" y="607"/>
      <point x="279" y="624" type="curve" smooth="yes"/>
      <point x="279" y="645"/>
      <point x="264" y="661"/>
      <point x="243" y="661" type="curve" smooth="yes"/>
      <point x="232" y="661"/>
      <point x="222" y="655"/>
      <point x="215" y="648" type="curve" smooth="yes"/>
      <point x="58" y="495" type="line"/>
      <point x="95" y="495" type="line"/>
    </contour>
  </outline>
</glyph>
<glyph name="paragraph" format="1">
  <advance width="482"/>
  <unicode hex="00B6"/>
  <outline>
    <contour>
      <point x="457" y="689" type="curve" smooth="yes"/>
      <point x="449" y="689"/>
      <point x="270" y="688"/>
      <point x="232" y="687" type="curve" smooth="yes"/>
      <point x="115" y="683"/>
      <point x="28" y="632"/>
      <point x="28" y="506" type="curve" smooth="yes"/>
      <point x="28" y="402"/>
      <point x="113" y="345"/>
      <point x="201" y="345" type="curve" smooth="yes"/>
      <point x="248" y="345" type="line"/>
      <point x="248" y="160"/>
      <point x="247" y="-119"/>
      <point x="247" y="-130" type="curve" smooth="yes"/>
      <point x="247" y="-141"/>
      <point x="248" y="-142"/>
      <point x="256" y="-142" type="curve" smooth="yes"/>
      <point x="276" y="-142" type="line" smooth="yes"/>
      <point x="284" y="-142"/>
      <point x="285" y="-140"/>
      <point x="285" y="-129" type="curve" smooth="yes"/>
      <point x="285" y="-120"/>
      <point x="284" y="657"/>
      <point x="284" y="657" type="curve"/>
      <point x="368" y="657" type="line"/>
      <point x="368" y="-129" type="line" smooth="yes"/>
      <point x="368" y="-139"/>
      <point x="370" y="-141"/>
      <point x="375" y="-141" type="curve" smooth="yes"/>
      <point x="398" y="-141" type="line" smooth="yes"/>
      <point x="404" y="-141"/>
      <point x="406" y="-140"/>
      <point x="406" y="-131" type="curve" smooth="yes"/>
      <point x="406" y="-120"/>
      <point x="405" y="350"/>
      <point x="405" y="657" type="curve"/>
      <point x="405" y="657"/>
      <point x="447" y="655"/>
      <point x="455" y="655" type="curve" smooth="yes"/>
      <point x="462" y="655"/>
      <point x="464" y="658"/>
      <point x="464" y="664" type="curve" smooth="yes"/>
      <point x="464" y="682" type="line" smooth="yes"/>
      <point x="464" y="687"/>
      <point x="461" y="689"/>
    </contour>
  </outline>
</glyph>
<glyph name="cedilla" format="1">
  <advance width="351"/>
  <unicode hex="00B8"/>
  <outline>
    <contour>
      <point x="185.0" y="3.0" type="line"/>
      <point x="104.0" y="-75.0" type="line"/>
      <point x="104.0" y="-86.0" type="line"/>
      <point x="148.0" y="-83.0"/>
      <point x="169.0" y="-105.0"/>
      <point x="169.0" y="-136.0" type="curve" smooth="yes"/>
      <point x="169.0" y="-174.0"/>
      <point x="136.0" y="-201.0"/>
      <point x="96.0" y="-201.0" type="curve"/>
      <point x="98.0" y="-214.0" type="line"/>
      <point x="170.0" y="-214.0"/>
      <point x="235.0" y="-170.0"/>
      <point x="235.0" y="-110.0" type="curve" smooth="yes"/>
      <point x="235.0" y="-71.0"/>
      <point x="202.0" y="-47.0"/>
      <point x="150.0" y="-53.0" type="curve"/>
      <point x="235.0" y="3.0" type="line"/>
    </contour>
  </outline>
</glyph>
<glyph name="ordmasculine" format="1">
  <advance width="335"/>
  <unicode hex="00BA"/>
  <outline>
    <contour>
      <point x="167.0" y="616.0" type="curve" smooth="yes"/>
      <point x="192.0" y="616.0"/>
      <point x="233.0" y="602.0"/>
      <point x="233.0" y="518.0" type="curve" smooth="yes"/>
      <point x="233.0" y="431.0"/>
      <point x="189.0" y="420.0"/>
      <point x="164.0" y="420.0" type="curve" smooth="yes"/>
      <point x="144.0" y="420.0"/>
      <point x="99.0" y="434.0"/>
      <point x="99.0" y="517.0" type="curve" smooth="yes"/>
      <point x="99.0" y="601.0"/>
      <point x="139.0" y="616.0"/>
    </contour>
    <contour>
      <point x="282.0" y="520.0" type="curve" smooth="yes"/>
      <point x="282.0" y="592.0"/>
      <point x="224.0" y="633.0"/>
      <point x="165.0" y="633.0" type="curve" smooth="yes"/>
      <point x="116.0" y="633.0"/>
      <point x="50.0" y="592.0"/>
      <point x="50.0" y="516.0" type="curve" smooth="yes"/>
      <point x="50.0" y="460.0"/>
      <point x="100.0" y="404.0"/>
      <point x="165.0" y="404.0" type="curve" smooth="yes"/>
      <point x="224.0" y="404.0"/>
      <point x="282.0" y="444.0"/>
    </contour>
  </outline>
</glyph>
<glyph name="questiondown" format="1">
  <advance width="461"/>
  <unicode hex="00BF"/>
  <outline>
    <contour>
      <point x="326" y="281" type="line"/>
      <point x="301" y="306"/>
      <point x="282" y="313"/>
      <point x="233" y="313" type="curve" smooth="yes"/>
      <point x="142" y="313"/>
      <point x="54" y="247"/>
      <point x="54" y="120" type="curve" smooth="yes"/>
      <point x="54" y="-30"/>
      <point x="177" y="-112"/>
      <point x="263" y="-112" type="curve" smooth="yes"/>
      <point x="323" y="-112"/>
      <point x="397" y="-65"/>
      <point x="397" y="-26" type="curve" smooth="yes"/>
      <point x="397" y="-13"/>
      <point x="389" y="-3"/>
      <point x="379" y="-3" type="curve" smooth="yes"/>
      <point x="356" y="-3"/>
      <point x="344" y="-15"/>
      <point x="336" y="-43" type="curve" smooth="yes"/>
      <point x="327" y="-75"/>
      <point x="305" y="-94"/>
      <point x="269" y="-94" type="curve" smooth="yes"/>
      <point x="199" y="-94"/>
      <point x="126" y="-13"/>
      <point x="126" y="121" type="curve" smooth="yes"/>
      <point x="126" y="210"/>
      <point x="154" y="293"/>
      <point x="234" y="293" type="curve" smooth="yes"/>
      <point x="295" y="293"/>
      <point x="336" y="258"/>
      <point x="336" y="165" type="curve"/>
      <point x="357" y="165" type="line"/>
      <point x="357" y="450" type="line"/>
      <point x="326" y="450" type="line"/>
    </contour>
    <component base="period" xOffset="231" yOffset="511"/>
  </outline>
</glyph>
<glyph name="AE" format="1">
  <advance width="961"/>
  <unicode hex="00C6"/>
  <outline>
    <contour>
      <point x="450" y="133" type="line"/>
      <point x="450" y="51"/>
      <point x="401" y="13"/>
      <point x="344" y="13" type="curve" smooth="yes"/>
      <point x="333" y="13" type="line"/>
      <point x="333" y="0" type="line"/>
      <point x="922" y="0" type="line"/>
      <point x="929" y="196" type="line"/>
      <point x="918" y="196" type="line"/>
      <point x="906" y="77"/>
      <point x="842" y="12"/>
      <point x="708" y="12" type="curve" smooth="yes"/>
      <point x="599" y="12"/>
      <point x="550" y="51"/>
      <point x="550" y="133" type="curve" smooth="yes"/>
      <point x="550" y="325" type="line"/>
      <point x="605" y="325" type="line" smooth="yes"/>
      <point x="674" y="325"/>
      <point x="718" y="279"/>
      <point x="718" y="209" type="curve" smooth="yes"/>
      <point x="718" y="198" type="line"/>
      <point x="729" y="198" type="line"/>
      <point x="729" y="463" type="line"/>
      <point x="718" y="463" type="line"/>
      <point x="718" y="452" type="line" smooth="yes"/>
      <point x="718" y="397"/>
      <point x="696" y="342"/>
      <point x="614" y="342" type="curve" smooth="yes"/>
      <point x="550" y="342" type="line"/>
      <point x="550" y="663" type="line"/>
      <point x="663" y="663" type="line" smooth="yes"/>
      <point x="794" y="663"/>
      <point x="855" y="607"/>
      <point x="862" y="518" type="curve"/>
      <point x="876" y="518" type="line"/>
      <point x="865" y="676" type="line"/>
      <point x="433" y="676" type="line"/>
      <point x="429" y="677" type="line"/>
      <point x="430" y="676" type="line"/>
      <point x="358" y="676" type="line"/>
      <point x="358" y="663" type="line"/>
      <point x="370" y="663" type="line" smooth="yes"/>
      <point x="393" y="663"/>
      <point x="406" y="659"/>
      <point x="421" y="648" type="curve"/>
      <point x="152" y="150" type="line" smooth="yes"/>
      <point x="116" y="83"/>
      <point x="72" y="13"/>
      <point x="16" y="13" type="curve" smooth="yes"/>
      <point x="5" y="13" type="line"/>
      <point x="5" y="0" type="line"/>
      <point x="226" y="0" type="line"/>
      <point x="226" y="13" type="line"/>
      <point x="218" y="13" type="line" smooth="yes"/>
      <point x="174" y="13"/>
      <point x="148" y="34"/>
      <point x="148" y="78" type="curve" smooth="yes"/>
      <point x="148" y="95"/>
      <point x="184" y="165"/>
      <point x="188" y="173" type="curve" smooth="yes"/>
      <point x="269" y="323" type="line"/>
      <point x="449" y="323" type="line"/>
    </contour>
    <contour>
      <point x="449" y="343" type="line"/>
      <point x="280" y="343" type="line"/>
      <point x="449" y="659" type="line"/>
      <point x="449" y="549" type="line"/>
    </contour>
  </outline>
</glyph>
<glyph name="Ccedilla" format="1">
  <advance width="668"/>
  <unicode hex="00C7"/>
  <outline>
    <contour>
      <point x="639" y="465"/>
      <point x="634" y="675"/>
      <point x="634" y="675" type="curve"/>
      <point x="623" y="675" type="line"/>
      <point x="621" y="665"/>
      <point x="610" y="648"/>
      <point x="596" y="648" type="curve" smooth="yes"/>
      <point x="568" y="648"/>
      <point x="502" y="691"/>
      <point x="384" y="691" type="curve" smooth="yes"/>
      <point x="188" y="691"/>
      <point x="43" y="521"/>
      <point x="43" y="338" type="curve" smooth="yes"/>
      <point x="43" y="113"/>
      <point x="182" y="-15"/>
      <point x="398" y="-15" type="curve"/>
      <point x="335" y="-75" type="line"/>
      <point x="335" y="-86" type="line"/>
      <point x="379" y="-83"/>
      <point x="400" y="-105"/>
      <point x="400" y="-136" type="curve" smooth="yes"/>
      <point x="400" y="-174"/>
      <point x="367" y="-201"/>
      <point x="327" y="-201" type="curve"/>
      <point x="329" y="-214" type="line"/>
      <point x="401" y="-214"/>
      <point x="466" y="-170"/>
      <point x="466" y="-110" type="curve" smooth="yes"/>
      <point x="466" y="-71"/>
      <point x="433" y="-47"/>
      <point x="381" y="-53" type="curve"/>
      <point x="405" y="-36"/>
      <point x="427" y="-17"/>
      <point x="473" y="-6" type="curve" smooth="yes"/>
      <point x="554" y="14"/>
      <point x="651" y="70"/>
      <point x="651" y="193" type="curve"/>
      <point x="638" y="193" type="line"/>
      <point x="638" y="95"/>
      <point x="553" y="12"/>
      <point x="412" y="12" type="curve" smooth="yes"/>
      <point x="261" y="12"/>
      <point x="159" y="152"/>
      <point x="159" y="338" type="curve" smooth="yes"/>
      <point x="159" y="525"/>
      <point x="262" y="678"/>
      <point x="396" y="678" type="curve" smooth="yes"/>
      <point x="508" y="678"/>
      <point x="588" y="632"/>
      <point x="630" y="465" type="curve"/>
      <point x="639" y="465" type="line"/>
    </contour>
  </outline>
</glyph>
<glyph name="Eth" format="1">
  <advance width="784"/>
  <unicode hex="00D0"/>
  <outline>
    <contour>
      <point x="48" y="355" type="line"/>
      <point x="48" y="330" type="line"/>
      <point x="152" y="330" type="line"/>
      <point x="152" y="133" type="line" smooth="yes"/>
      <point x="152" y="51"/>
      <point x="103" y="13"/>
      <point x="46" y="13" type="curve" smooth="yes"/>
      <point x="35" y="13" type="line"/>
      <point x="35" y="0" type="line"/>
      <point x="395" y="0" type="line" smooth="yes"/>
      <point x="662" y="0"/>
      <point x="740" y="173"/>
      <point x="740" y="338" type="curve" smooth="yes"/>
      <point x="740" y="484"/>
      <point x="660" y="676"/>
      <point x="365" y="676" type="curve" smooth="yes"/>
      <point x="42" y="676" type="line"/>
      <point x="42" y="663" type="line"/>
      <point x="54" y="663" type="line" smooth="yes"/>
      <point x="108" y="663"/>
      <point x="152" y="638"/>
      <point x="152" y="549" type="curve" smooth="yes"/>
      <point x="152" y="355" type="line"/>
    </contour>
    <contour>
      <point x="350" y="13" type="curve" smooth="yes"/>
      <point x="294" y="13"/>
      <point x="253" y="16"/>
      <point x="253" y="133" type="curve" smooth="yes"/>
      <point x="253" y="329" type="line"/>
      <point x="439" y="330" type="line"/>
      <point x="439" y="357" type="line"/>
      <point x="253" y="356" type="line"/>
      <point x="253" y="657" type="line"/>
      <point x="336" y="657" type="line" smooth="yes"/>
      <point x="550" y="657"/>
      <point x="627" y="457"/>
      <point x="627" y="338" type="curve" smooth="yes"/>
      <point x="627" y="181"/>
      <point x="523" y="13"/>
    </contour>
  </outline>
</glyph>
<glyph name="multiply" format="1">
  <advance width="476"/>
  <unicode hex="00d7"/>
  <outline>
    <contour>
      <point x="374" y="380" type="line" smooth="no"/>
      <point x="236" y="243" type="line" smooth="no"/>
      <point x="98" y="380" type="line" smooth="no"/>
      <point x="75" y="356" type="line" smooth="no"/>
      <point x="212" y="219" type="line" smooth="no"/>
      <point x="75" y="82" type="line" smooth="no"/>
      <point x="99" y="58" type="line" smooth="no"/>
      <point x="236" y="195" type="line" smooth="no"/>
      <point x="373" y="58" type="line" smooth="no"/>
      <point x="397" y="82" type="line" smooth="no"/>
      <point x="260" y="219" type="line" smooth="no"/>
      <point x="397" y="356" type="line" smooth="no"/>
    </contour>
  </outline>
</glyph>
<glyph name="Oslash" format="1">
  <advance width="802"/>
  <unicode hex="00D8"/>
  <outline>
    <contour>
      <point x="140" y="-27" type="line"/>
      <point x="162" y="-44" type="line"/>
      <point x="662" y="698" type="line"/>
      <point x="638" y="715" type="line"/>
    </contour>
    <component base="O"/>
  </outline>
</glyph>
<glyph name="Thorn" format="1">
  <advance width="634"/>
  <unicode hex="00DE"/>
  <outline>
    <contour>
      <point x="253" y="518" type="line"/>
      <point x="379" y="518"/>
      <point x="477" y="512"/>
      <point x="477" y="358" type="curve" smooth="yes"/>
      <point x="477" y="215"/>
      <point x="378" y="196"/>
      <point x="284" y="196" type="curve" smooth="yes"/>
      <point x="274" y="196"/>
      <point x="263" y="197"/>
      <point x="253" y="197" type="curve"/>
    </contour>
    <contour>
      <point x="254" y="531" type="line"/>
      <point x="253" y="643"/>
      <point x="297" y="663"/>
      <point x="351" y="663" type="curve" smooth="yes"/>
      <point x="363" y="663" type="line"/>
      <point x="363" y="676" type="line"/>
      <point x="43" y="676" type="line"/>
      <point x="43" y="663" type="line"/>
      <point x="55" y="663" type="line" smooth="yes"/>
      <point x="109" y="663"/>
      <point x="152" y="638"/>
      <point x="152" y="549" type="curve"/>
      <point x="152" y="133" type="line" smooth="yes"/>
      <point x="152" y="51"/>
      <point x="103" y="13"/>
      <point x="46" y="13" type="curve" smooth="yes"/>
      <point x="35" y="13" type="line"/>
      <point x="35" y="0" type="line"/>
      <point x="369" y="0" type="line"/>
      <point x="369" y="13" type="line"/>
      <point x="358" y="13" type="line" smooth="yes"/>
      <point x="301" y="13"/>
      <point x="253" y="52"/>
      <point x="253" y="133" type="curve" smooth="yes"/>
      <point x="253" y="186" type="line"/>
      <point x="285" y="184"/>
      <point x="319" y="182"/>
      <point x="351" y="182" type="curve" smooth="yes"/>
      <point x="474" y="182"/>
      <point x="581" y="208"/>
      <point x="581" y="356" type="curve"/>
      <point x="579" y="457"/>
      <point x="523" y="531"/>
      <point x="398" y="531" type="curve" smooth="yes"/>
    </contour>
  </outline>
</glyph>
<glyph name="germandbls" format="1">
  <advance width="498"/>
  <unicode hex="00DF"/>
  <outline>
    <contour>
      <point x="405" y="555" type="curve" smooth="yes"/>
      <point x="405" y="639"/>
      <point x="338" y="691"/>
      <point x="240" y="691" type="curve" smooth="yes"/>
      <point x="138" y="691"/>
      <point x="89" y="614"/>
      <point x="89" y="549" type="curve" smooth="yes"/>
      <point x="89" y="133" type="line"/>
      <point x="89" y="45"/>
      <point x="85" y="13"/>
      <point x="21" y="13" type="curve"/>
      <point x="21" y="0" type="line"/>
      <point x="211" y="0" type="line"/>
      <point x="211" y="13" type="line"/>
      <point x="157" y="13"/>
      <point x="155" y="40"/>
      <point x="155" y="133" type="curve" smooth="yes"/>
      <point x="155" y="549" type="line" smooth="yes"/>
      <point x="155" y="671"/>
      <point x="221" y="677"/>
      <point x="240" y="677" type="curve" smooth="yes"/>
      <point x="316" y="677"/>
      <point x="342" y="634"/>
      <point x="342" y="555" type="curve" smooth="yes"/>
      <point x="342" y="465"/>
      <point x="297" y="390"/>
      <point x="215" y="390" type="curve" smooth="yes"/>
      <point x="199" y="390"/>
      <point x="188" y="389"/>
      <point x="188" y="383" type="curve" smooth="yes"/>
      <point x="188" y="376"/>
      <point x="196" y="372"/>
      <point x="212" y="372" type="curve" smooth="yes"/>
      <point x="292" y="372"/>
      <point x="385" y="353"/>
      <point x="385" y="200" type="curve" smooth="yes"/>
      <point x="385" y="80"/>
      <point x="344" y="15"/>
      <point x="305" y="15" type="curve" smooth="yes"/>
      <point x="266" y="15"/>
      <point x="275" y="46"/>
      <point x="253" y="46" type="curve" smooth="yes"/>
      <point x="239" y="46"/>
      <point x="230" y="43"/>
      <point x="230" y="26" type="curve" smooth="yes"/>
      <point x="230" y="-5"/>
      <point x="285" y="-4"/>
      <point x="310" y="-4" type="curve"/>
      <point x="369" y="-4"/>
      <point x="453" y="59"/>
      <point x="453" y="200" type="curve" smooth="yes"/>
      <point x="453" y="326"/>
      <point x="360" y="387"/>
      <point x="281" y="387" type="curve"/>
      <point x="343" y="387"/>
      <point x="405" y="467"/>
    </contour>
  </outline>
</glyph>
<glyph name="ae" format="1">
  <advance width="680"/>
  <unicode hex="00E6"/>
  <outline>
    <contour>
      <point x="641" y="274" type="line"/>
      <point x="641" y="394"/>
      <point x="538" y="434"/>
      <point x="468" y="434" type="curve" smooth="yes"/>
      <point x="407" y="434"/>
      <point x="370" y="419"/>
      <point x="341" y="387" type="curve"/>
      <point x="312" y="421"/>
      <point x="256" y="431"/>
      <point x="201" y="431" type="curve" smooth="yes"/>
      <point x="147" y="431"/>
      <point x="61" y="406"/>
      <point x="61" y="356" type="curve" smooth="yes"/>
      <point x="61" y="334"/>
      <point x="76" y="317"/>
      <point x="98" y="317" type="curve" smooth="yes"/>
      <point x="120" y="317"/>
      <point x="134" y="334"/>
      <point x="137" y="354" type="curve" smooth="yes"/>
      <point x="145" y="406"/>
      <point x="167" y="415"/>
      <point x="199" y="415" type="curve" smooth="yes"/>
      <point x="280" y="415"/>
      <point x="282" y="366"/>
      <point x="282" y="301" type="curve" smooth="yes"/>
      <point x="282" y="260"/>
      <point x="245" y="227"/>
      <point x="200" y="221" type="curve" smooth="yes"/>
      <point x="89" y="207"/>
      <point x="39" y="173"/>
      <point x="39" y="104" type="curve" smooth="yes"/>
      <point x="39" y="62"/>
      <point x="58" y="-10"/>
      <point x="165" y="-10" type="curve" smooth="yes"/>
      <point x="232" y="-10"/>
      <point x="276" y="12"/>
      <point x="301" y="71" type="curve"/>
      <point x="331" y="34"/>
      <point x="393" y="-14"/>
      <point x="478" y="-14" type="curve" smooth="yes"/>
      <point x="573" y="-14"/>
      <point x="634" y="37"/>
      <point x="648" y="100" type="curve"/>
      <point x="637" y="100" type="line"/>
      <point x="616" y="50"/>
      <point x="572" y="13"/>
      <point x="501" y="13" type="curve" smooth="yes"/>
      <point x="380" y="13"/>
      <point x="349" y="94"/>
      <point x="349" y="209" type="curve" smooth="yes"/>
      <point x="349" y="235"/>
      <point x="349" y="251"/>
      <point x="351" y="274" type="curve"/>
    </contour>
    <contour>
      <point x="188" y="6" type="curve" smooth="yes"/>
      <point x="122" y="6"/>
      <point x="117" y="51"/>
      <point x="117" y="91" type="curve" smooth="yes"/>
      <point x="117" y="182"/>
      <point x="210" y="182"/>
      <point x="282" y="247" type="curve"/>
      <point x="282" y="145" type="line" smooth="yes"/>
      <point x="282" y="68"/>
      <point x="270" y="6"/>
    </contour>
    <contour>
      <point x="468" y="418" type="curve" smooth="yes"/>
      <point x="540" y="418"/>
      <point x="565" y="365"/>
      <point x="565" y="290" type="curve"/>
      <point x="353" y="290" type="line"/>
      <point x="363" y="361"/>
      <point x="388" y="418"/>
    </contour>
  </outline>
</glyph>
<glyph name="ccedilla" format="1">
  <advance width="417"/>
  <unicode hex="00E7"/>
  <outline>
    <contour>
      <point x="35" y="210" type="curve" smooth="yes"/>
      <point x="35" y="81"/>
      <point x="110" y="-14"/>
      <point x="248" y="-14" type="curve"/>
      <point x="185" y="-75" type="line"/>
      <point x="185" y="-86" type="line"/>
      <point x="229" y="-83"/>
      <point x="250" y="-105"/>
      <point x="250" y="-136" type="curve" smooth="yes"/>
      <point x="250" y="-174"/>
      <point x="217" y="-201"/>
      <point x="177" y="-201" type="curve"/>
      <point x="179" y="-214" type="line"/>
      <point x="251" y="-214"/>
      <point x="316" y="-170"/>
      <point x="316" y="-110" type="curve" smooth="yes"/>
      <point x="316" y="-71"/>
      <point x="283" y="-47"/>
      <point x="231" y="-53" type="curve"/>
      <point x="253" y="-36"/>
      <point x="276" y="-16"/>
      <point x="313" y="-8" type="curve" smooth="yes"/>
      <point x="377" y="6"/>
      <point x="406" y="50"/>
      <point x="412" y="100" type="curve"/>
      <point x="401" y="100" type="line"/>
      <point x="388" y="51"/>
      <point x="365" y="13"/>
      <point x="277" y="13" type="curve" smooth="yes"/>
      <point x="156" y="13"/>
      <point x="115" y="95"/>
      <point x="115" y="210" type="curve" smooth="yes"/>
      <point x="115" y="325"/>
      <point x="163" y="418"/>
      <point x="245" y="418" type="curve" smooth="yes"/>
      <point x="301" y="418"/>
      <point x="310" y="405"/>
      <point x="320" y="354" type="curve" smooth="yes"/>
      <point x="324" y="334"/>
      <point x="340" y="320"/>
      <point x="362" y="320" type="curve" smooth="yes"/>
      <point x="384" y="320"/>
      <point x="398" y="335"/>
      <point x="398" y="357" type="curve" smooth="yes"/>
      <point x="398" y="414"/>
      <point x="302" y="434"/>
      <point x="245" y="434" type="curve" smooth="yes"/>
      <point x="120" y="434"/>
      <point x="35" y="331"/>
    </contour>
  </outline>
</glyph>
<glyph name="eth" format="1">
  <advance width="505"/>
  <unicode hex="00F0"/>
  <outline>
    <contour>
      <point x="115.0" y="210.0" type="curve" smooth="yes"/>
      <point x="115.0" y="325.0"/>
      <point x="180.0" y="418.0"/>
      <point x="262.0" y="418.0" type="curve" smooth="yes"/>
      <point x="345.0" y="418.0"/>
      <point x="389.0" y="325.0"/>
      <point x="389.0" y="210.0" type="curve" smooth="yes"/>
      <point x="389.0" y="95.0"/>
      <point x="328.0" y="2.0"/>
      <point x="262.0" y="2.0" type="curve" smooth="yes"/>
      <point x="180.0" y="2.0"/>
      <point x="115.0" y="95.0"/>
    </contour>
    <contour>
      <point x="175.0" y="504.0" type="line"/>
      <point x="191.0" y="481.0" type="line"/>
      <point x="439.0" y="626.0" type="line"/>
      <point x="427.0" y="652.0" type="line"/>
    </contour>
    <contour>
      <point x="124" y="653" type="line"/>
      <point x="285" y="630"/>
      <point x="361.0" y="465.0"/>
      <point x="361.0" y="408.0" type="curve"/>
      <point x="332.0" y="424.0"/>
      <point x="299.0" y="434.0"/>
      <point x="262.0" y="434.0" type="curve" smooth="yes"/>
      <point x="137.0" y="434.0"/>
      <point x="35.0" y="331.0"/>
      <point x="35.0" y="210.0" type="curve" smooth="yes"/>
      <point x="35.0" y="89.0"/>
      <point x="137.0" y="-14.0"/>
      <point x="262.0" y="-14.0" type="curve" smooth="yes"/>
      <point x="376.0" y="-14.0"/>
      <point x="466.0" y="81.0"/>
      <point x="466.0" y="229.0" type="curve"/>
      <point x="466.0" y="440.0"/>
      <point x="367.0" y="653.0"/>
      <point x="124.0" y="665.0" type="curve"/>
    </contour>
  </outline>
</glyph>
<glyph name="divide" format="1">
  <advance width="532"/>
  <unicode hex="00F7"/>
  <outline>
    <contour>
      <point x="266" y="197" type="curve" smooth="yes"/>
      <point x="289" y="197"/>
      <point x="307" y="180"/>
      <point x="307" y="157" type="curve" smooth="yes"/>
      <point x="307" y="131"/>
      <point x="291" y="116"/>
      <point x="266" y="116" type="curve" smooth="yes"/>
      <point x="244" y="116"/>
      <point x="226" y="135"/>
      <point x="226" y="157" type="curve" smooth="yes"/>
      <point x="226" y="182"/>
      <point x="244" y="197"/>
    </contour>
    <contour>
      <point x="266" y="516" type="curve" smooth="yes"/>
      <point x="289" y="516"/>
      <point x="307" y="499"/>
      <point x="307" y="475" type="curve" smooth="yes"/>
      <point x="307" y="450"/>
      <point x="291" y="435"/>
      <point x="266" y="435" type="curve" smooth="yes"/>
      <point x="244" y="435"/>
      <point x="226" y="453"/>
      <point x="226" y="475" type="curve" smooth="yes"/>
      <point x="226" y="500"/>
      <point x="244" y="516"/>
    </contour>
    <contour>
      <point x="49" y="306" type="line"/>
      <point x="49" y="265" type="line"/>
      <point x="435" y="265" type="line"/>
      <point x="435" y="306" type="line"/>
    </contour>
  </outline>
</glyph>
<glyph name="oslash" format="1">
  <advance width="524"/>
  <unicode hex="00f8"/>
  <outline>
    <component base="o"/>
    <contour>
      <point x="90" y="-23" type="line" smooth="no"/>
      <point x="109" y="-37" type="line" smooth="no"/>
      <point x="435" y="451" type="line" smooth="no"/>
      <point x="414" y="465" type="line" smooth="no"/>
    </contour>
  </outline>
</glyph>
<glyph name="thorn" format="1">
  <advance width="519"/>
  <unicode hex="00FE"/>
  <outline>
    <contour>
      <point x="88" y="-46" type="line"/>
      <point x="88" y="-134"/>
      <point x="84" y="-191"/>
      <point x="13" y="-191" type="curve"/>
      <point x="13" y="-204" type="line"/>
      <point x="222" y="-204" type="line"/>
      <point x="222" y="-191" type="line"/>
      <point x="160" y="-191"/>
      <point x="156" y="-149"/>
      <point x="156" y="15" type="curve"/>
      <point x="181" y="-1"/>
      <point x="225" y="-14"/>
      <point x="270" y="-14" type="curve" smooth="yes"/>
      <point x="414" y="-14"/>
      <point x="484" y="89"/>
      <point x="484" y="210" type="curve" smooth="yes"/>
      <point x="484" y="331"/>
      <point x="394" y="434"/>
      <point x="270" y="434" type="curve" smooth="yes"/>
      <point x="206" y="434"/>
      <point x="159" y="397"/>
      <point x="154" y="392" type="curve"/>
      <point x="154" y="691" type="line"/>
      <point x="145" y="691" type="line"/>
      <point x="145" y="691"/>
      <point x="40" y="674"/>
      <point x="15" y="672" type="curve"/>
      <point x="15" y="662" type="line"/>
      <point x="86" y="660"/>
      <point x="88" y="644"/>
      <point x="88" y="552" type="curve" smooth="yes"/>
    </contour>
    <contour>
      <point x="152" y="210" type="curve" smooth="yes"/>
      <point x="152" y="345"/>
      <point x="162" y="418"/>
      <point x="257" y="418" type="curve" smooth="yes"/>
      <point x="357" y="418"/>
      <point x="404" y="325"/>
      <point x="404" y="210" type="curve" smooth="yes"/>
      <point x="404" y="106"/>
      <point x="362" y="2"/>
      <point x="257" y="2" type="curve" smooth="yes"/>
      <point x="155" y="2"/>
      <point x="152" y="75"/>
    </contour>
  </outline>
</glyph>
<glyph name="Aogonek" format="1">
  <advance width="720"/>
  <unicode hex="0104"/>
  <outline>
    <contour>
      <point x="366" y="677" type="line"/>
      <point x="128" y="150" type="line" smooth="yes"/>
      <point x="110" y="111"/>
      <point x="69" y="13"/>
      <point x="13" y="13" type="curve" smooth="yes"/>
      <point x="5" y="13" type="line"/>
      <point x="5" y="0" type="line"/>
      <point x="226" y="0" type="line"/>
      <point x="226" y="13" type="line"/>
      <point x="218" y="13" type="line" smooth="yes"/>
      <point x="159" y="13"/>
      <point x="141" y="56"/>
      <point x="141" y="100" type="curve" smooth="yes"/>
      <point x="141" y="127"/>
      <point x="149" y="154"/>
      <point x="157" y="173" type="curve" smooth="yes"/>
      <point x="197" y="263" type="line"/>
      <point x="430" y="263" type="line"/>
      <point x="442" y="233" type="line" smooth="yes"/>
      <point x="469" y="164"/>
      <point x="485" y="115"/>
      <point x="498" y="64" type="curve" smooth="yes"/>
      <point x="501" y="52"/>
      <point x="503" y="41"/>
      <point x="503" y="30" type="curve" smooth="yes"/>
      <point x="503" y="18"/>
      <point x="496" y="9"/>
      <point x="485" y="0" type="curve" smooth="yes"/>
      <point x="430" y="-43"/>
      <point x="355" y="-82"/>
      <point x="355" y="-147" type="curve" smooth="yes"/>
      <point x="355" y="-194"/>
      <point x="398" y="-218"/>
      <point x="443" y="-218" type="curve" smooth="yes"/>
      <point x="479" y="-218"/>
      <point x="503" y="-202"/>
      <point x="520" y="-177" type="curve"/>
      <point x="512" y="-169" type="line"/>
      <point x="503" y="-180"/>
      <point x="487" y="-189"/>
      <point x="469" y="-189" type="curve" smooth="yes"/>
      <point x="443" y="-189"/>
      <point x="420" y="-170"/>
      <point x="421" y="-132" type="curve" smooth="yes"/>
      <point x="422" y="-78"/>
      <point x="464" y="-37"/>
      <point x="486" y="-21" type="curve" smooth="yes"/>
      <point x="509" y="-4"/>
      <point x="533" y="0"/>
      <point x="561" y="0" type="curve" smooth="yes"/>
      <point x="715" y="0" type="line"/>
      <point x="715" y="13" type="line"/>
      <point x="703" y="13" type="line" smooth="yes"/>
      <point x="645" y="13"/>
      <point x="609" y="67"/>
      <point x="588" y="121" type="curve" smooth="yes"/>
      <point x="369" y="677" type="line"/>
    </contour>
    <contour>
      <point x="422" y="283" type="line"/>
      <point x="206" y="283" type="line"/>
      <point x="322" y="538" type="line"/>
    </contour>
  </outline>
</glyph>
